<?xml version="1.0" encoding="UTF-8"?>
<svg xmlns="http://www.w3.org/2000/svg" xmlns:xlink="http://www.w3.org/1999/xlink" width="165pt" height="82.499998pt" viewBox="0 0 165 82.499998" version="1.2">
<defs>
<clipPath id="clip1">
  <path d="M 0.496094 0 L 164.503906 0 L 164.503906 82.003906 L 0.496094 82.003906 Z M 0.496094 0 "/>
</clipPath>
<clipPath id="clip2">
  <path d="M 4.167969 14.226562 L 59 14.226562 L 59 67.902344 L 4.167969 67.902344 Z M 4.167969 14.226562 "/>
</clipPath>
<clipPath id="clip3">
  <path d="M 147 35 L 160.613281 35 L 160.613281 55 L 147 55 Z M 147 35 "/>
</clipPath>
</defs>
<g id="surface1">
<g clip-path="url(#clip1)" clip-rule="nonzero">
<path style=" stroke:none;fill-rule:nonzero;fill:rgb(100%,100%,100%);fill-opacity:1;" d="M 0.496094 0 L 164.503906 0 L 164.503906 171.460938 L 0.496094 171.460938 Z M 0.496094 0 "/>
<path style=" stroke:none;fill-rule:nonzero;fill:rgb(100%,100%,100%);fill-opacity:1;" d="M 0.496094 0 L 164.503906 0 L 164.503906 82.003906 L 0.496094 82.003906 Z M 0.496094 0 "/>
<path style=" stroke:none;fill-rule:nonzero;fill:rgb(100%,100%,100%);fill-opacity:1;" d="M 0.496094 0 L 164.503906 0 L 164.503906 82.003906 L 0.496094 82.003906 Z M 0.496094 0 "/>
</g>
<g clip-path="url(#clip2)" clip-rule="nonzero">
<path style=" stroke:none;fill-rule:nonzero;fill:rgb(100%,100%,100%);fill-opacity:1;" d="M 58.070312 42.414062 C 58.070312 41.320312 57.910156 40.25 57.582031 39.203125 C 57.253906 38.15625 56.78125 37.1875 56.152344 36.289062 C 55.527344 35.390625 54.785156 34.609375 53.917969 33.945312 C 53.050781 33.28125 52.105469 32.761719 51.082031 32.390625 C 51.269531 31.433594 51.363281 30.464844 51.363281 29.488281 C 51.363281 28.683594 51.300781 27.886719 51.175781 27.097656 C 51.050781 26.304688 50.867188 25.527344 50.621094 24.765625 C 50.375 24.003906 50.070312 23.265625 49.710938 22.550781 C 49.347656 21.835938 48.933594 21.15625 48.464844 20.507812 C 47.996094 19.859375 47.480469 19.25 46.914062 18.683594 C 46.351562 18.117188 45.746094 17.597656 45.101562 17.128906 C 44.457031 16.65625 43.777344 16.242188 43.066406 15.878906 C 42.359375 15.515625 41.625 15.210938 40.867188 14.964844 C 40.109375 14.714844 39.335938 14.53125 38.546875 14.40625 C 37.761719 14.285156 36.96875 14.222656 36.171875 14.222656 C 35.375 14.226562 34.582031 14.289062 33.796875 14.417969 C 33.011719 14.542969 32.238281 14.734375 31.480469 14.980469 C 30.722656 15.230469 29.992188 15.539062 29.28125 15.90625 C 28.574219 16.269531 27.898438 16.691406 27.253906 17.164062 C 26.609375 17.636719 26.007812 18.15625 25.445312 18.726562 C 24.882812 19.296875 24.371094 19.90625 23.90625 20.554688 C 23.210938 20.015625 22.453125 19.601562 21.628906 19.308594 C 20.800781 19.019531 19.949219 18.867188 19.074219 18.859375 C 18.199219 18.847656 17.34375 18.976562 16.511719 19.246094 C 15.675781 19.515625 14.90625 19.910156 14.203125 20.429688 C 13.496094 20.953125 12.890625 21.574219 12.386719 22.292969 C 11.882812 23.015625 11.507812 23.796875 11.253906 24.640625 C 11.003906 25.484375 10.894531 26.347656 10.921875 27.226562 C 10.953125 28.105469 11.117188 28.960938 11.421875 29.785156 C 10.394531 30.160156 9.449219 30.683594 8.582031 31.351562 C 7.710938 32.023438 6.964844 32.804688 6.335938 33.707031 C 5.707031 34.605469 5.222656 35.578125 4.890625 36.628906 C 4.558594 37.675781 4.390625 38.75 4.382812 39.851562 C 4.382812 40.949219 4.542969 42.023438 4.871094 43.074219 C 5.199219 44.121094 5.679688 45.097656 6.308594 45.996094 C 6.9375 46.894531 7.6875 47.675781 8.554688 48.34375 C 9.425781 49.007812 10.375 49.527344 11.40625 49.894531 C 11.222656 50.855469 11.128906 51.820312 11.128906 52.796875 C 11.125 53.597656 11.1875 54.394531 11.3125 55.183594 C 11.4375 55.976562 11.621094 56.75 11.867188 57.511719 C 12.113281 58.273438 12.417969 59.011719 12.777344 59.726562 C 13.140625 60.4375 13.554688 61.117188 14.023438 61.765625 C 14.492188 62.414062 15.007812 63.019531 15.570312 63.585938 C 16.136719 64.148438 16.738281 64.667969 17.382812 65.136719 C 18.03125 65.605469 18.707031 66.023438 19.417969 66.382812 C 20.125 66.746094 20.859375 67.050781 21.617188 67.292969 C 22.375 67.539062 23.148438 67.722656 23.933594 67.847656 C 24.71875 67.96875 25.511719 68.027344 26.308594 68.023438 C 27.101562 68.023438 27.894531 67.957031 28.679688 67.828125 C 29.464844 67.699219 30.234375 67.507812 30.992188 67.257812 C 31.746094 67.003906 32.476562 66.695312 33.183594 66.328125 C 33.894531 65.960938 34.566406 65.539062 35.207031 65.066406 C 35.847656 64.59375 36.449219 64.070312 37.007812 63.5 C 37.566406 62.929688 38.078125 62.320312 38.542969 61.667969 C 39.230469 62.210938 39.988281 62.625 40.8125 62.917969 C 41.640625 63.210938 42.488281 63.363281 43.363281 63.375 C 44.238281 63.390625 45.09375 63.261719 45.925781 62.996094 C 46.757812 62.726562 47.527344 62.335938 48.234375 61.8125 C 48.941406 61.292969 49.546875 60.675781 50.050781 59.957031 C 50.554688 59.238281 50.933594 58.457031 51.183594 57.613281 C 51.4375 56.769531 51.546875 55.910156 51.519531 55.03125 C 51.492188 54.152344 51.328125 53.296875 51.023438 52.472656 C 52.050781 52.097656 53 51.574219 53.867188 50.90625 C 54.734375 50.238281 55.484375 49.453125 56.113281 48.554688 C 56.746094 47.652344 57.226562 46.679688 57.558594 45.632812 C 57.890625 44.582031 58.058594 43.507812 58.066406 42.410156 "/>
</g>
<path style=" stroke:none;fill-rule:nonzero;fill:rgb(99.609375%,77.249146%,7.839966%);fill-opacity:1;" d="M 25.488281 37.398438 L 37.238281 42.792969 L 49.09375 32.347656 C 49.265625 31.484375 49.351562 30.609375 49.347656 29.726562 C 49.347656 29.019531 49.292969 28.320312 49.179688 27.621094 C 49.070312 26.921875 48.902344 26.238281 48.683594 25.566406 C 48.464844 24.894531 48.195312 24.246094 47.871094 23.617188 C 47.550781 22.988281 47.179688 22.390625 46.761719 21.820312 C 46.34375 21.253906 45.886719 20.71875 45.386719 20.222656 C 44.882812 19.730469 44.347656 19.277344 43.773438 18.867188 C 43.203125 18.457031 42.601562 18.09375 41.96875 17.78125 C 41.339844 17.46875 40.691406 17.207031 40.019531 17 C 39.347656 16.789062 38.664062 16.632812 37.96875 16.535156 C 37.273438 16.433594 36.574219 16.390625 35.871094 16.402344 C 35.167969 16.414062 34.472656 16.484375 33.78125 16.605469 C 33.089844 16.730469 32.410156 16.910156 31.746094 17.140625 C 31.082031 17.375 30.441406 17.65625 29.824219 17.992188 C 29.203125 18.328125 28.617188 18.707031 28.058594 19.136719 C 27.5 19.566406 26.976562 20.039062 26.492188 20.550781 C 26.007812 21.0625 25.570312 21.609375 25.171875 22.195312 L 23.195312 32.472656 Z M 25.488281 37.398438 "/>
<path style=" stroke:none;fill-rule:nonzero;fill:rgb(0%,74.899292%,70.199585%);fill-opacity:1;" d="M 13.332031 49.914062 C 13.15625 50.792969 13.070312 51.679688 13.070312 52.574219 C 13.070312 53.285156 13.128906 53.988281 13.238281 54.691406 C 13.351562 55.390625 13.515625 56.078125 13.738281 56.753906 C 13.957031 57.425781 14.230469 58.078125 14.554688 58.710938 C 14.878906 59.339844 15.25 59.941406 15.667969 60.511719 C 16.089844 61.082031 16.550781 61.617188 17.054688 62.113281 C 17.558594 62.613281 18.097656 63.066406 18.671875 63.476562 C 19.246094 63.886719 19.851562 64.25 20.484375 64.5625 C 21.117188 64.875 21.773438 65.136719 22.445312 65.347656 C 23.121094 65.554688 23.808594 65.710938 24.503906 65.808594 C 25.203125 65.90625 25.90625 65.949219 26.613281 65.9375 C 27.316406 65.921875 28.015625 65.851562 28.710938 65.726562 C 29.40625 65.601562 30.085938 65.417969 30.75 65.183594 C 31.417969 64.949219 32.0625 64.664062 32.679688 64.324219 C 33.300781 63.988281 33.890625 63.601562 34.449219 63.167969 C 35.011719 62.734375 35.53125 62.261719 36.015625 61.746094 C 36.5 61.226562 36.941406 60.675781 37.335938 60.089844 L 39.292969 49.832031 L 36.683594 44.808594 L 24.890625 39.402344 Z M 13.332031 49.914062 "/>
<path style=" stroke:none;fill-rule:nonzero;fill:rgb(94.119263%,30.589294%,59.609985%);fill-opacity:1;" d="M 13.257812 29.460938 L 21.308594 31.375 L 23.070312 22.164062 C 22.523438 21.746094 21.925781 21.425781 21.273438 21.203125 C 20.625 20.980469 19.957031 20.867188 19.269531 20.863281 C 18.582031 20.859375 17.910156 20.964844 17.257812 21.179688 C 16.605469 21.390625 16 21.703125 15.449219 22.117188 C 14.898438 22.527344 14.421875 23.015625 14.027344 23.582031 C 13.632812 24.144531 13.335938 24.757812 13.136719 25.421875 C 12.941406 26.082031 12.851562 26.761719 12.875 27.453125 C 12.894531 28.140625 13.023438 28.8125 13.257812 29.460938 "/>
<path style=" stroke:none;fill-rule:nonzero;fill:rgb(10.5896%,66.268921%,96.078491%);fill-opacity:1;" d="M 12.558594 31.390625 C 11.675781 31.6875 10.859375 32.117188 10.109375 32.671875 C 9.359375 33.230469 8.710938 33.886719 8.164062 34.648438 C 7.617188 35.40625 7.199219 36.230469 6.90625 37.121094 C 6.617188 38.011719 6.46875 38.929688 6.460938 39.867188 C 6.457031 40.773438 6.59375 41.65625 6.859375 42.523438 C 7.128906 43.386719 7.515625 44.195312 8.027344 44.941406 C 8.539062 45.6875 9.148438 46.339844 9.859375 46.898438 C 10.566406 47.457031 11.34375 47.898438 12.183594 48.21875 L 23.480469 37.949219 L 21.40625 33.488281 Z M 12.558594 31.390625 "/>
<path style=" stroke:none;fill-rule:nonzero;fill:rgb(57.649231%,78.819275%,5.488586%);fill-opacity:1;" d="M 39.402344 60.089844 C 39.949219 60.503906 40.546875 60.824219 41.195312 61.042969 C 41.84375 61.265625 42.511719 61.378906 43.199219 61.382812 C 43.882812 61.386719 44.550781 61.28125 45.203125 61.066406 C 45.851562 60.851562 46.453125 60.539062 47.003906 60.128906 C 47.554688 59.71875 48.027344 59.234375 48.421875 58.671875 C 48.816406 58.105469 49.113281 57.496094 49.3125 56.835938 C 49.507812 56.175781 49.597656 55.5 49.578125 54.8125 C 49.558594 54.121094 49.433594 53.453125 49.199219 52.804688 L 41.152344 50.921875 Z M 39.402344 60.089844 "/>
<path style=" stroke:none;fill-rule:nonzero;fill:rgb(0%,46.669006%,79.998779%);fill-opacity:1;" d="M 41.039062 48.789062 L 49.894531 50.871094 C 50.777344 50.574219 51.59375 50.144531 52.34375 49.589844 C 53.097656 49.035156 53.746094 48.375 54.292969 47.617188 C 54.839844 46.855469 55.257812 46.03125 55.546875 45.140625 C 55.839844 44.25 55.988281 43.332031 55.992188 42.394531 C 55.992188 41.492188 55.859375 40.609375 55.589844 39.746094 C 55.320312 38.882812 54.933594 38.078125 54.421875 37.332031 C 53.910156 36.589844 53.300781 35.9375 52.59375 35.382812 C 51.886719 34.824219 51.113281 34.382812 50.269531 34.0625 L 38.6875 44.265625 Z M 41.039062 48.789062 "/>
<path style=" stroke:none;fill-rule:nonzero;fill:rgb(10.978699%,11.759949%,13.729858%);fill-opacity:1;" d="M 79.445312 52.023438 L 80.519531 51.914062 L 80.59375 54.113281 C 78.203125 54.476562 75.796875 54.675781 73.378906 54.707031 C 70.71875 54.707031 68.832031 53.933594 67.71875 52.382812 C 66.609375 50.832031 66.054688 48.417969 66.054688 45.144531 C 66.054688 38.621094 68.632812 35.355469 73.789062 35.355469 C 76.285156 35.355469 78.144531 36.054688 79.375 37.457031 C 80.601562 38.859375 81.214844 41.058594 81.21875 44.050781 L 81.074219 46.171875 L 68.867188 46.171875 C 68.867188 48.230469 69.238281 49.757812 69.976562 50.75 C 70.71875 51.742188 72.007812 52.238281 73.839844 52.238281 C 75.679688 52.246094 77.546875 52.171875 79.445312 52.023438 Z M 78.445312 43.949219 C 78.445312 41.667969 78.082031 40.054688 77.359375 39.113281 C 76.632812 38.171875 75.449219 37.699219 73.808594 37.695312 C 72.164062 37.695312 70.933594 38.191406 70.105469 39.183594 C 69.28125 40.175781 68.855469 41.765625 68.832031 43.949219 Z M 78.445312 43.949219 "/>
<path style=" stroke:none;fill-rule:nonzero;fill:rgb(10.978699%,11.759949%,13.729858%);fill-opacity:1;" d="M 85.089844 30.074219 L 87.863281 30.074219 L 87.863281 54.5625 L 85.089844 54.5625 Z M 85.089844 30.074219 "/>
<path style=" stroke:none;fill-rule:nonzero;fill:rgb(10.978699%,11.759949%,13.729858%);fill-opacity:1;" d="M 105.335938 41.34375 L 105.335938 50.730469 C 105.335938 51.671875 107.636719 51.621094 107.636719 51.621094 L 107.496094 54.089844 C 105.546875 54.089844 103.933594 54.253906 102.964844 53.308594 C 100.847656 54.253906 98.628906 54.722656 96.308594 54.707031 C 94.609375 54.707031 93.316406 54.222656 92.425781 53.253906 C 91.535156 52.28125 91.089844 50.890625 91.09375 49.074219 C 91.09375 47.261719 91.550781 45.925781 92.464844 45.070312 C 93.375 44.214844 94.804688 43.691406 96.753906 43.5 L 102.558594 42.945312 L 102.558594 41.34375 C 102.558594 40.089844 102.289062 39.183594 101.75 38.625 C 101.125 38.035156 100.382812 37.761719 99.527344 37.808594 L 92.238281 37.808594 L 92.238281 35.351562 L 99.34375 35.351562 C 101.441406 35.351562 102.960938 35.835938 103.910156 36.804688 C 104.859375 37.773438 105.335938 39.285156 105.335938 41.34375 Z M 93.9375 48.933594 C 93.9375 51.21875 94.871094 52.359375 96.742188 52.359375 C 98.445312 52.359375 100.097656 52.074219 101.703125 51.503906 L 102.550781 51.207031 L 102.550781 45.0625 L 97.085938 45.585938 C 95.976562 45.6875 95.175781 46.007812 94.679688 46.550781 C 94.1875 47.097656 93.941406 47.890625 93.9375 48.933594 Z M 93.9375 48.933594 "/>
<path style=" stroke:none;fill-rule:nonzero;fill:rgb(10.978699%,11.759949%,13.729858%);fill-opacity:1;" d="M 116.164062 37.847656 C 113.476562 37.847656 112.128906 38.789062 112.128906 40.671875 C 112.128906 41.542969 112.441406 42.15625 113.066406 42.515625 C 113.691406 42.875 115.09375 43.246094 117.28125 43.632812 C 119.476562 44.019531 121.03125 44.558594 121.941406 45.253906 C 122.855469 45.945312 123.3125 47.246094 123.3125 49.160156 C 123.3125 51.070312 122.703125 52.472656 121.480469 53.363281 C 120.261719 54.257812 118.480469 54.703125 116.136719 54.707031 C 114.609375 54.707031 109.503906 54.132812 109.503906 54.132812 L 109.652344 51.71875 C 112.585938 52 114.703125 52.210938 116.136719 52.210938 C 117.570312 52.210938 118.65625 51.980469 119.410156 51.523438 C 120.160156 51.0625 120.535156 50.292969 120.535156 49.214844 C 120.535156 48.136719 120.222656 47.402344 119.574219 47.015625 C 118.925781 46.632812 117.527344 46.265625 115.359375 45.917969 C 113.191406 45.570312 111.644531 45.0625 110.734375 44.394531 C 109.824219 43.722656 109.367188 42.480469 109.367188 40.667969 C 109.367188 38.859375 109.988281 37.53125 111.273438 36.652344 C 112.554688 35.773438 114.125 35.347656 116.023438 35.347656 C 117.527344 35.347656 122.75 35.734375 122.75 35.734375 L 122.75 38.167969 C 119.992188 38.042969 117.738281 37.847656 116.164062 37.847656 Z M 116.164062 37.847656 "/>
<path style=" stroke:none;fill-rule:nonzero;fill:rgb(10.978699%,11.759949%,13.729858%);fill-opacity:1;" d="M 136.683594 38.140625 L 130.800781 38.140625 L 130.800781 47.039062 C 130.800781 49.171875 130.957031 50.574219 131.261719 51.242188 C 131.574219 51.914062 132.304688 52.246094 133.464844 52.246094 L 136.753906 52.023438 L 136.941406 54.332031 C 135.695312 54.5625 134.433594 54.703125 133.167969 54.742188 C 131.246094 54.742188 129.914062 54.269531 129.171875 53.328125 C 128.433594 52.382812 128.0625 50.585938 128.066406 47.929688 L 128.066406 38.140625 L 125.449219 38.140625 L 125.449219 35.726562 L 128.078125 35.726562 L 128.078125 30.03125 L 130.8125 30.03125 L 130.8125 35.726562 L 136.683594 35.726562 Z M 136.683594 38.140625 "/>
<path style=" stroke:none;fill-rule:nonzero;fill:rgb(10.978699%,11.759949%,13.729858%);fill-opacity:1;" d="M 140.539062 33.347656 L 140.539062 30.109375 L 143.3125 30.109375 L 143.3125 33.347656 Z M 140.539062 54.5625 L 140.539062 35.726562 L 143.3125 35.726562 L 143.3125 54.5625 Z M 140.539062 54.5625 "/>
<g clip-path="url(#clip3)" clip-rule="nonzero">
<path style=" stroke:none;fill-rule:nonzero;fill:rgb(10.978699%,11.759949%,13.729858%);fill-opacity:1;" d="M 155.328125 35.351562 C 156.714844 35.410156 158.09375 35.558594 159.460938 35.800781 L 160.347656 35.910156 L 160.238281 38.179688 C 158.789062 37.996094 157.332031 37.882812 155.871094 37.847656 C 153.773438 37.847656 152.347656 38.347656 151.597656 39.355469 C 150.847656 40.359375 150.46875 42.21875 150.46875 44.9375 C 150.46875 47.65625 150.820312 49.546875 151.523438 50.613281 C 152.226562 51.675781 153.691406 52.207031 155.921875 52.210938 L 160.292969 51.878906 L 160.402344 54.1875 C 158.699219 54.476562 156.988281 54.652344 155.261719 54.707031 C 152.378906 54.707031 150.386719 53.964844 149.289062 52.472656 C 148.191406 50.984375 147.640625 48.472656 147.640625 44.9375 C 147.640625 41.402344 148.234375 38.921875 149.417969 37.496094 C 150.601562 36.066406 152.570312 35.351562 155.328125 35.351562 Z M 155.328125 35.351562 "/>
</g>
</g>
</svg>
