<svg xmlns="http://www.w3.org/2000/svg" xmlns:xlink="http://www.w3.org/1999/xlink" width="220" zoomAndPan="magnify" viewBox="0 0 165 82.499998" height="110" preserveAspectRatio="xMidYMid meet" version="1.0"><defs><clipPath id="3851a6ffd0"><path d="M 0.496094 0 L 164.503906 0 L 164.503906 82.003906 L 0.496094 82.003906 Z M 0.496094 0 " clip-rule="nonzero"/></clipPath><clipPath id="f06be8f6b4"><path d="M 0.496094 5.660156 L 164.503906 5.660156 L 164.503906 76.480469 L 0.496094 76.480469 Z M 0.496094 5.660156 " clip-rule="nonzero"/></clipPath><clipPath id="1840d41dc6"><path d="M 60 27 L 154 27 L 154 73 L 60 73 Z M 60 27 " clip-rule="nonzero"/></clipPath><clipPath id="7484817195"><path d="M 81.847656 72.546875 C 81.730469 72.519531 81.617188 72.480469 81.496094 72.476562 C 78.992188 72.351562 76.582031 71.824219 74.265625 70.867188 C 71.921875 69.898438 69.800781 68.582031 67.90625 66.894531 C 64.464844 63.824219 62.160156 60.058594 61.015625 55.585938 C 60.609375 54.003906 60.355469 52.390625 60.371094 50.746094 C 60.382812 49.765625 60.34375 48.777344 60.449219 47.804688 C 60.65625 45.933594 61.050781 44.09375 61.714844 42.316406 C 62.664062 39.777344 64.015625 37.480469 65.777344 35.417969 C 67.414062 33.5 69.332031 31.910156 71.503906 30.652344 C 73.652344 29.414062 75.941406 28.550781 78.386719 28.066406 C 80.234375 27.703125 82.09375 27.570312 83.957031 27.667969 C 86.617188 27.804688 89.183594 28.40625 91.660156 29.40625 C 94.835938 30.683594 97.730469 32.445312 100.492188 34.449219 C 102.964844 36.238281 105.300781 38.195312 107.570312 40.238281 C 109.152344 41.660156 110.71875 43.105469 112.300781 44.527344 C 114.117188 46.164062 115.914062 47.820312 117.777344 49.402344 C 120.253906 51.503906 122.851562 53.441406 125.8125 54.828125 C 127.15625 55.460938 128.546875 55.960938 130.023438 56.183594 C 133.578125 56.726562 136.71875 54.492188 137.242188 51 C 137.632812 48.429688 136.609375 46.363281 134.464844 44.910156 C 132.578125 43.628906 130.519531 43.488281 128.503906 44.476562 C 126.515625 45.457031 125.253906 47.097656 125.007812 49.371094 C 124.933594 50.03125 124.996094 50.710938 124.996094 51.375 C 124.632812 51.140625 124.195312 50.875 123.769531 50.582031 C 121.667969 49.140625 119.6875 47.535156 117.789062 45.828125 C 115.695312 43.949219 113.628906 42.039062 111.558594 40.132812 C 111.140625 39.75 111.1875 39.886719 111.441406 39.410156 C 112.402344 37.597656 113.625 35.976562 115.035156 34.496094 C 117.179688 32.246094 119.710938 30.558594 122.558594 29.351562 C 124.3125 28.609375 126.152344 28.117188 128.035156 27.863281 C 129.738281 27.636719 131.460938 27.554688 133.175781 27.71875 C 137.632812 28.15625 141.640625 29.734375 145.128906 32.554688 C 149.003906 35.6875 151.582031 39.679688 152.824219 44.523438 C 153.410156 46.789062 153.617188 49.105469 153.472656 51.433594 C 153.199219 55.90625 151.726562 59.964844 149.015625 63.539062 C 145.910156 67.636719 141.878906 70.371094 136.921875 71.730469 C 135.671875 72.070312 134.398438 72.308594 133.101562 72.386719 C 132.703125 72.40625 132.308594 72.425781 131.910156 72.457031 C 131.800781 72.464844 131.695312 72.503906 131.585938 72.53125 L 130.359375 72.53125 C 130.230469 72.5 130.105469 72.460938 129.976562 72.449219 C 129.367188 72.398438 128.753906 72.386719 128.148438 72.304688 C 126.332031 72.058594 124.5625 71.617188 122.835938 71.003906 C 119.632812 69.875 116.683594 68.246094 113.882812 66.347656 C 110.429688 64.007812 107.265625 61.308594 104.171875 58.523438 C 102.371094 56.902344 100.609375 55.230469 98.78125 53.632812 C 96.882812 51.972656 94.953125 50.335938 92.984375 48.757812 C 90.914062 47.101562 88.652344 45.738281 86.242188 44.628906 C 85.335938 44.214844 84.367188 43.988281 83.378906 43.910156 C 81.960938 43.804688 80.636719 44.0625 79.40625 44.878906 C 77.207031 46.339844 76.082031 49.082031 76.761719 51.605469 C 77.628906 54.804688 80.640625 56.726562 83.890625 56.109375 C 85.835938 55.738281 87.265625 54.644531 88.207031 52.898438 C 88.714844 51.960938 88.886719 50.941406 88.914062 49.894531 C 88.921875 49.605469 88.914062 49.316406 88.914062 48.957031 C 93.949219 52.304688 98.144531 56.515625 102.570312 60.46875 C 102.515625 60.578125 102.476562 60.671875 102.425781 60.757812 C 99.945312 65.238281 96.390625 68.542969 91.707031 70.628906 C 89.523438 71.597656 87.238281 72.191406 84.855469 72.394531 C 84.417969 72.433594 83.988281 72.484375 83.550781 72.53125 L 81.832031 72.53125 L 81.835938 72.53125 Z M 81.847656 72.546875 " clip-rule="nonzero"/></clipPath><linearGradient x1="250.683087" gradientTransform="matrix(0.277004, 0, 0, -0.277598, -3.875821, 77.220729)" y1="-9.423549" x2="549.685668" gradientUnits="userSpaceOnUse" y2="205.213073" id="b9f01adb0a"><stop stop-opacity="1" stop-color="rgb(44.699097%, 14.099121%, 47.099304%)" offset="0"/><stop stop-opacity="1" stop-color="rgb(44.699097%, 14.099121%, 47.099304%)" offset="0.25"/><stop stop-opacity="1" stop-color="rgb(44.699097%, 14.099121%, 47.099304%)" offset="0.256794"/><stop stop-opacity="1" stop-color="rgb(44.699097%, 14.099121%, 47.099304%)" offset="0.28125"/><stop stop-opacity="1" stop-color="rgb(44.743347%, 14.085388%, 47.093201%)" offset="0.296875"/><stop stop-opacity="1" stop-color="rgb(45.109558%, 13.981628%, 47.039795%)" offset="0.300781"/><stop stop-opacity="1" stop-color="rgb(45.431519%, 13.890076%, 46.994019%)" offset="0.304687"/><stop stop-opacity="1" stop-color="rgb(45.751953%, 13.798523%, 46.948242%)" offset="0.308594"/><stop stop-opacity="1" stop-color="rgb(46.072388%, 13.70697%, 46.902466%)" offset="0.3125"/><stop stop-opacity="1" stop-color="rgb(46.392822%, 13.615417%, 46.856689%)" offset="0.316406"/><stop stop-opacity="1" stop-color="rgb(46.714783%, 13.523865%, 46.810913%)" offset="0.320312"/><stop stop-opacity="1" stop-color="rgb(47.035217%, 13.430786%, 46.765137%)" offset="0.324219"/><stop stop-opacity="1" stop-color="rgb(47.357178%, 13.339233%, 46.71936%)" offset="0.328125"/><stop stop-opacity="1" stop-color="rgb(47.673035%, 13.256836%, 46.682739%)" offset="0.332031"/><stop stop-opacity="1" stop-color="rgb(47.990417%, 13.174438%, 46.647644%)" offset="0.335937"/><stop stop-opacity="1" stop-color="rgb(48.306274%, 13.093567%, 46.614075%)" offset="0.339844"/><stop stop-opacity="1" stop-color="rgb(48.622131%, 13.012695%, 46.580505%)" offset="0.34375"/><stop stop-opacity="1" stop-color="rgb(48.936462%, 12.931824%, 46.546936%)" offset="0.347656"/><stop stop-opacity="1" stop-color="rgb(49.252319%, 12.850952%, 46.513367%)" offset="0.351562"/><stop stop-opacity="1" stop-color="rgb(49.568176%, 12.770081%, 46.479797%)" offset="0.355469"/><stop stop-opacity="1" stop-color="rgb(49.884033%, 12.690735%, 46.447754%)" offset="0.359375"/><stop stop-opacity="1" stop-color="rgb(50.198364%, 12.609863%, 46.414185%)" offset="0.363281"/><stop stop-opacity="1" stop-color="rgb(50.514221%, 12.528992%, 46.380615%)" offset="0.367187"/><stop stop-opacity="1" stop-color="rgb(50.830078%, 12.44812%, 46.347046%)" offset="0.371094"/><stop stop-opacity="1" stop-color="rgb(51.145935%, 12.367249%, 46.313477%)" offset="0.375"/><stop stop-opacity="1" stop-color="rgb(51.460266%, 12.286377%, 46.279907%)" offset="0.378906"/><stop stop-opacity="1" stop-color="rgb(51.776123%, 12.207031%, 46.246338%)" offset="0.382812"/><stop stop-opacity="1" stop-color="rgb(52.09198%, 12.12616%, 46.212769%)" offset="0.386719"/><stop stop-opacity="1" stop-color="rgb(52.407837%, 12.045288%, 46.180725%)" offset="0.390625"/><stop stop-opacity="1" stop-color="rgb(52.722168%, 11.964417%, 46.147156%)" offset="0.394531"/><stop stop-opacity="1" stop-color="rgb(53.038025%, 11.883545%, 46.113586%)" offset="0.398437"/><stop stop-opacity="1" stop-color="rgb(53.353882%, 11.802673%, 46.080017%)" offset="0.402344"/><stop stop-opacity="1" stop-color="rgb(53.669739%, 11.723328%, 46.046448%)" offset="0.40625"/><stop stop-opacity="1" stop-color="rgb(53.98407%, 11.642456%, 46.012878%)" offset="0.410156"/><stop stop-opacity="1" stop-color="rgb(54.299927%, 11.561584%, 45.980835%)" offset="0.414062"/><stop stop-opacity="1" stop-color="rgb(54.614258%, 11.480713%, 45.947266%)" offset="0.417969"/><stop stop-opacity="1" stop-color="rgb(54.930115%, 11.399841%, 45.913696%)" offset="0.421875"/><stop stop-opacity="1" stop-color="rgb(55.245972%, 11.31897%, 45.880127%)" offset="0.425781"/><stop stop-opacity="1" stop-color="rgb(55.561829%, 11.239624%, 45.846558%)" offset="0.429688"/><stop stop-opacity="1" stop-color="rgb(55.87616%, 11.158752%, 45.812988%)" offset="0.433594"/><stop stop-opacity="1" stop-color="rgb(56.192017%, 11.077881%, 45.779419%)" offset="0.4375"/><stop stop-opacity="1" stop-color="rgb(56.507874%, 10.997009%, 45.74585%)" offset="0.441406"/><stop stop-opacity="1" stop-color="rgb(56.82373%, 10.916138%, 45.713806%)" offset="0.445312"/><stop stop-opacity="1" stop-color="rgb(57.138062%, 10.835266%, 45.680237%)" offset="0.449219"/><stop stop-opacity="1" stop-color="rgb(57.453918%, 10.75592%, 45.646667%)" offset="0.453125"/><stop stop-opacity="1" stop-color="rgb(57.769775%, 10.675049%, 45.613098%)" offset="0.457031"/><stop stop-opacity="1" stop-color="rgb(58.085632%, 10.594177%, 45.579529%)" offset="0.460937"/><stop stop-opacity="1" stop-color="rgb(58.399963%, 10.513306%, 45.545959%)" offset="0.464844"/><stop stop-opacity="1" stop-color="rgb(58.71582%, 10.432434%, 45.513916%)" offset="0.46875"/><stop stop-opacity="1" stop-color="rgb(59.031677%, 10.351562%, 45.480347%)" offset="0.472656"/><stop stop-opacity="1" stop-color="rgb(59.347534%, 10.272217%, 45.446777%)" offset="0.476562"/><stop stop-opacity="1" stop-color="rgb(59.661865%, 10.191345%, 45.413208%)" offset="0.480469"/><stop stop-opacity="1" stop-color="rgb(59.977722%, 10.110474%, 45.379639%)" offset="0.484375"/><stop stop-opacity="1" stop-color="rgb(60.293579%, 10.029602%, 45.346069%)" offset="0.488281"/><stop stop-opacity="1" stop-color="rgb(60.609436%, 9.950256%, 45.3125%)" offset="0.492187"/><stop stop-opacity="1" stop-color="rgb(60.923767%, 9.869385%, 45.278931%)" offset="0.496094"/><stop stop-opacity="1" stop-color="rgb(61.239624%, 9.788513%, 45.246887%)" offset="0.5"/><stop stop-opacity="1" stop-color="rgb(61.555481%, 9.707642%, 45.213318%)" offset="0.503906"/><stop stop-opacity="1" stop-color="rgb(61.871338%, 9.62677%, 45.179749%)" offset="0.507812"/><stop stop-opacity="1" stop-color="rgb(62.185669%, 9.545898%, 45.146179%)" offset="0.511719"/><stop stop-opacity="1" stop-color="rgb(62.501526%, 9.466553%, 45.11261%)" offset="0.515625"/><stop stop-opacity="1" stop-color="rgb(62.817383%, 9.385681%, 45.079041%)" offset="0.519531"/><stop stop-opacity="1" stop-color="rgb(63.13324%, 9.30481%, 45.046997%)" offset="0.523437"/><stop stop-opacity="1" stop-color="rgb(63.447571%, 9.223938%, 45.013428%)" offset="0.527344"/><stop stop-opacity="1" stop-color="rgb(63.763428%, 9.143066%, 44.979858%)" offset="0.53125"/><stop stop-opacity="1" stop-color="rgb(64.079285%, 9.062195%, 44.946289%)" offset="0.535156"/><stop stop-opacity="1" stop-color="rgb(64.395142%, 8.982849%, 44.91272%)" offset="0.539062"/><stop stop-opacity="1" stop-color="rgb(64.709473%, 8.901978%, 44.87915%)" offset="0.542969"/><stop stop-opacity="1" stop-color="rgb(65.02533%, 8.821106%, 44.845581%)" offset="0.546875"/><stop stop-opacity="1" stop-color="rgb(65.341187%, 8.740234%, 44.812012%)" offset="0.550781"/><stop stop-opacity="1" stop-color="rgb(65.657043%, 8.659363%, 44.779968%)" offset="0.554688"/><stop stop-opacity="1" stop-color="rgb(65.971375%, 8.578491%, 44.746399%)" offset="0.558594"/><stop stop-opacity="1" stop-color="rgb(66.287231%, 8.499146%, 44.71283%)" offset="0.5625"/><stop stop-opacity="1" stop-color="rgb(66.603088%, 8.418274%, 44.67926%)" offset="0.566406"/><stop stop-opacity="1" stop-color="rgb(66.918945%, 8.337402%, 44.645691%)" offset="0.570312"/><stop stop-opacity="1" stop-color="rgb(67.233276%, 8.256531%, 44.612122%)" offset="0.574219"/><stop stop-opacity="1" stop-color="rgb(67.549133%, 8.175659%, 44.580078%)" offset="0.578125"/><stop stop-opacity="1" stop-color="rgb(67.86499%, 8.094788%, 44.546509%)" offset="0.582031"/><stop stop-opacity="1" stop-color="rgb(68.180847%, 8.015442%, 44.512939%)" offset="0.585938"/><stop stop-opacity="1" stop-color="rgb(68.495178%, 7.93457%, 44.47937%)" offset="0.589844"/><stop stop-opacity="1" stop-color="rgb(68.811035%, 7.853699%, 44.445801%)" offset="0.59375"/><stop stop-opacity="1" stop-color="rgb(69.126892%, 7.772827%, 44.412231%)" offset="0.597656"/><stop stop-opacity="1" stop-color="rgb(69.442749%, 7.691956%, 44.378662%)" offset="0.601562"/><stop stop-opacity="1" stop-color="rgb(69.75708%, 7.611084%, 44.345093%)" offset="0.605469"/><stop stop-opacity="1" stop-color="rgb(70.072937%, 7.531738%, 44.313049%)" offset="0.609375"/><stop stop-opacity="1" stop-color="rgb(70.343018%, 7.461548%, 44.288635%)" offset="0.613281"/><stop stop-opacity="1" stop-color="rgb(70.613098%, 7.392883%, 44.264221%)" offset="0.617187"/><stop stop-opacity="1" stop-color="rgb(70.870972%, 7.327271%, 44.241333%)" offset="0.621094"/><stop stop-opacity="1" stop-color="rgb(71.130371%, 7.261658%, 44.219971%)" offset="0.625"/><stop stop-opacity="1" stop-color="rgb(71.388245%, 7.194519%, 44.197083%)" offset="0.628906"/><stop stop-opacity="1" stop-color="rgb(71.647644%, 7.128906%, 44.17572%)" offset="0.632812"/><stop stop-opacity="1" stop-color="rgb(71.905518%, 7.063293%, 44.152832%)" offset="0.636719"/><stop stop-opacity="1" stop-color="rgb(72.164917%, 6.997681%, 44.13147%)" offset="0.640625"/><stop stop-opacity="1" stop-color="rgb(72.422791%, 6.930542%, 44.108582%)" offset="0.644531"/><stop stop-opacity="1" stop-color="rgb(72.68219%, 6.864929%, 44.087219%)" offset="0.648437"/><stop stop-opacity="1" stop-color="rgb(72.940063%, 6.799316%, 44.065857%)" offset="0.652344"/><stop stop-opacity="1" stop-color="rgb(73.199463%, 6.733704%, 44.044495%)" offset="0.65625"/><stop stop-opacity="1" stop-color="rgb(73.457336%, 6.666565%, 44.021606%)" offset="0.660156"/><stop stop-opacity="1" stop-color="rgb(73.716736%, 6.600952%, 44.000244%)" offset="0.664062"/><stop stop-opacity="1" stop-color="rgb(73.974609%, 6.535339%, 43.977356%)" offset="0.667969"/><stop stop-opacity="1" stop-color="rgb(74.234009%, 6.469727%, 43.955994%)" offset="0.671875"/><stop stop-opacity="1" stop-color="rgb(74.491882%, 6.402588%, 43.933105%)" offset="0.675781"/><stop stop-opacity="1" stop-color="rgb(74.751282%, 6.336975%, 43.911743%)" offset="0.679688"/><stop stop-opacity="1" stop-color="rgb(75.009155%, 6.269836%, 43.888855%)" offset="0.683594"/><stop stop-opacity="1" stop-color="rgb(75.268555%, 6.204224%, 43.867493%)" offset="0.6875"/><stop stop-opacity="1" stop-color="rgb(75.526428%, 6.138611%, 43.844604%)" offset="0.691406"/><stop stop-opacity="1" stop-color="rgb(75.785828%, 6.072998%, 43.823242%)" offset="0.695312"/><stop stop-opacity="1" stop-color="rgb(76.043701%, 6.005859%, 43.800354%)" offset="0.699219"/><stop stop-opacity="1" stop-color="rgb(76.303101%, 5.940247%, 43.778992%)" offset="0.703125"/><stop stop-opacity="1" stop-color="rgb(76.560974%, 5.874634%, 43.757629%)" offset="0.707031"/><stop stop-opacity="1" stop-color="rgb(76.820374%, 5.809021%, 43.736267%)" offset="0.710938"/><stop stop-opacity="1" stop-color="rgb(77.078247%, 5.741882%, 43.713379%)" offset="0.714844"/><stop stop-opacity="1" stop-color="rgb(77.337646%, 5.67627%, 43.692017%)" offset="0.71875"/><stop stop-opacity="1" stop-color="rgb(77.59552%, 5.610657%, 43.669128%)" offset="0.722656"/><stop stop-opacity="1" stop-color="rgb(77.854919%, 5.545044%, 43.647766%)" offset="0.726562"/><stop stop-opacity="1" stop-color="rgb(78.112793%, 5.477905%, 43.624878%)" offset="0.730469"/><stop stop-opacity="1" stop-color="rgb(78.372192%, 5.412292%, 43.603516%)" offset="0.734375"/><stop stop-opacity="1" stop-color="rgb(78.630066%, 5.345154%, 43.580627%)" offset="0.738281"/><stop stop-opacity="1" stop-color="rgb(78.889465%, 5.279541%, 43.559265%)" offset="0.742187"/><stop stop-opacity="1" stop-color="rgb(79.147339%, 5.213928%, 43.536377%)" offset="0.746094"/><stop stop-opacity="1" stop-color="rgb(79.406738%, 5.148315%, 43.515015%)" offset="0.75"/><stop stop-opacity="1" stop-color="rgb(79.664612%, 5.081177%, 43.493652%)" offset="0.753906"/><stop stop-opacity="1" stop-color="rgb(79.924011%, 5.015564%, 43.47229%)" offset="0.757812"/><stop stop-opacity="1" stop-color="rgb(80.183411%, 4.949951%, 43.449402%)" offset="0.761719"/><stop stop-opacity="1" stop-color="rgb(80.44281%, 4.884338%, 43.42804%)" offset="0.765625"/><stop stop-opacity="1" stop-color="rgb(80.700684%, 4.8172%, 43.405151%)" offset="0.769531"/><stop stop-opacity="1" stop-color="rgb(80.960083%, 4.751587%, 43.383789%)" offset="0.773437"/><stop stop-opacity="1" stop-color="rgb(81.217957%, 4.685974%, 43.360901%)" offset="0.777344"/><stop stop-opacity="1" stop-color="rgb(81.477356%, 4.620361%, 43.339539%)" offset="0.78125"/><stop stop-opacity="1" stop-color="rgb(81.735229%, 4.553223%, 43.31665%)" offset="0.785156"/><stop stop-opacity="1" stop-color="rgb(81.994629%, 4.48761%, 43.295288%)" offset="0.789062"/><stop stop-opacity="1" stop-color="rgb(82.252502%, 4.421997%, 43.2724%)" offset="0.792969"/><stop stop-opacity="1" stop-color="rgb(82.511902%, 4.356384%, 43.251038%)" offset="0.796875"/><stop stop-opacity="1" stop-color="rgb(82.769775%, 4.289246%, 43.228149%)" offset="0.800781"/><stop stop-opacity="1" stop-color="rgb(83.029175%, 4.223633%, 43.206787%)" offset="0.804688"/><stop stop-opacity="1" stop-color="rgb(83.287048%, 4.156494%, 43.185425%)" offset="0.808594"/><stop stop-opacity="1" stop-color="rgb(83.546448%, 4.090881%, 43.164062%)" offset="0.8125"/><stop stop-opacity="1" stop-color="rgb(83.804321%, 4.025269%, 43.141174%)" offset="0.816406"/><stop stop-opacity="1" stop-color="rgb(84.063721%, 3.959656%, 43.119812%)" offset="0.820312"/><stop stop-opacity="1" stop-color="rgb(84.286499%, 3.90625%, 43.101501%)" offset="0.824219"/><stop stop-opacity="1" stop-color="rgb(84.510803%, 3.852844%, 43.083191%)" offset="0.828125"/><stop stop-opacity="1" stop-color="rgb(84.70459%, 3.81012%, 43.069458%)" offset="0.835938"/><stop stop-opacity="1" stop-color="rgb(85.092163%, 3.726196%, 43.040466%)" offset="0.84375"/><stop stop-opacity="1" stop-color="rgb(85.479736%, 3.640747%, 43.013%)" offset="0.851562"/><stop stop-opacity="1" stop-color="rgb(85.868835%, 3.556824%, 42.984009%)" offset="0.859375"/><stop stop-opacity="1" stop-color="rgb(86.256409%, 3.471375%, 42.956543%)" offset="0.867187"/><stop stop-opacity="1" stop-color="rgb(86.643982%, 3.387451%, 42.927551%)" offset="0.875"/><stop stop-opacity="1" stop-color="rgb(87.033081%, 3.302002%, 42.900085%)" offset="0.882812"/><stop stop-opacity="1" stop-color="rgb(87.420654%, 3.218079%, 42.871094%)" offset="0.890625"/><stop stop-opacity="1" stop-color="rgb(87.808228%, 3.132629%, 42.843628%)" offset="0.898437"/><stop stop-opacity="1" stop-color="rgb(88.195801%, 3.048706%, 42.816162%)" offset="0.90625"/><stop stop-opacity="1" stop-color="rgb(88.5849%, 2.963257%, 42.78717%)" offset="0.914062"/><stop stop-opacity="1" stop-color="rgb(88.972473%, 2.879333%, 42.759705%)" offset="0.921875"/><stop stop-opacity="1" stop-color="rgb(89.360046%, 2.793884%, 42.730713%)" offset="0.929688"/><stop stop-opacity="1" stop-color="rgb(89.677429%, 2.72522%, 42.707825%)" offset="0.9375"/><stop stop-opacity="1" stop-color="rgb(89.7995%, 2.69928%, 42.698669%)" offset="1"/></linearGradient></defs><g clip-path="url(#3851a6ffd0)"><path fill="#ffffff" d="M 0.496094 0 L 164.503906 0 L 164.503906 89.457031 L 0.496094 89.457031 Z M 0.496094 0 " fill-opacity="1" fill-rule="nonzero"/><path fill="#ffffff" d="M 0.496094 0 L 164.503906 0 L 164.503906 82.003906 L 0.496094 82.003906 Z M 0.496094 0 " fill-opacity="1" fill-rule="nonzero"/><path fill="#ffffff" d="M 0.496094 0 L 164.503906 0 L 164.503906 82.003906 L 0.496094 82.003906 Z M 0.496094 0 " fill-opacity="1" fill-rule="nonzero"/></g><g clip-path="url(#f06be8f6b4)"><path fill="#ffffff" d="M -3.875 5.660156 L 168.871094 5.660156 L 168.871094 76.480469 L -3.875 76.480469 Z M -3.875 5.660156 " fill-opacity="1" fill-rule="nonzero"/></g><g clip-path="url(#1840d41dc6)"><g clip-path="url(#7484817195)"><path fill="url(#b9f01adb0a)" d="M 60.34375 72.546875 L 60.34375 27.554688 L 153.617188 27.554688 L 153.617188 72.546875 Z M 60.34375 72.546875 " fill-rule="nonzero"/></g></g><path fill="#722478" d="M 48.316406 9.488281 C 48.730469 9.574219 49.152344 9.636719 49.5625 9.75 C 52.765625 10.648438 54.820312 12.703125 55.449219 15.992188 C 55.945312 18.609375 55.152344 20.914062 53.265625 22.8125 C 51.988281 24.109375 50.417969 24.859375 48.632812 25.085938 C 44.496094 25.617188 40.507812 23.023438 39.703125 18.773438 C 39.152344 15.863281 40.085938 13.386719 42.3125 11.433594 C 43.546875 10.347656 45.003906 9.734375 46.644531 9.5625 C 46.714844 9.554688 46.777344 9.515625 46.84375 9.492188 L 48.316406 9.492188 Z M 48.316406 9.488281 " fill-opacity="1" fill-rule="nonzero"/><path fill="#722478" d="M 34.511719 12.511719 L 34.511719 12.859375 C 34.5625 18.027344 34.613281 23.195312 34.664062 28.359375 C 34.667969 28.769531 34.667969 28.765625 34.242188 28.773438 C 33.335938 28.796875 32.425781 28.742188 31.535156 29.003906 C 29.476562 29.609375 27.972656 31.335938 27.773438 33.476562 C 27.675781 34.492188 27.734375 35.523438 27.730469 36.542969 C 27.726562 37.054688 27.738281 37.5625 27.746094 38.109375 C 30.085938 38.085938 32.394531 38.066406 34.730469 38.042969 C 34.78125 43.503906 34.835938 48.929688 34.886719 54.382812 C 32.570312 54.40625 30.257812 54.425781 27.910156 54.449219 C 27.964844 60.199219 28.019531 65.921875 28.074219 71.664062 C 22.644531 71.714844 17.253906 71.769531 11.824219 71.820312 C 11.824219 71.703125 11.824219 71.59375 11.820312 71.484375 C 11.703125 58.773438 11.5625 46.058594 11.472656 33.347656 C 11.457031 30.859375 12.007812 28.445312 12.964844 26.144531 C 15.652344 19.679688 20.34375 15.40625 27.03125 13.34375 C 29.421875 12.605469 31.890625 12.4375 34.378906 12.476562 C 34.410156 12.476562 34.4375 12.492188 34.515625 12.507812 Z M 34.511719 12.511719 " fill-opacity="1" fill-rule="nonzero"/><path fill="#722478" d="M 39.449219 28.667969 L 55.65625 28.667969 L 55.65625 71.53125 L 39.449219 71.53125 Z M 39.449219 28.667969 " fill-opacity="1" fill-rule="nonzero"/><path fill="#722478" d="M 105.152344 34.582031 C 104.460938 34.046875 103.804688 33.535156 103.132812 33.03125 C 100.035156 30.710938 96.777344 28.652344 93.167969 27.226562 C 91.867188 26.710938 90.511719 26.332031 89.179688 25.90625 C 89.003906 25.851562 88.925781 25.800781 88.925781 25.605469 C 88.933594 21.21875 88.933594 16.832031 88.933594 12.445312 C 88.933594 12.40625 88.9375 12.367188 88.941406 12.300781 L 105.152344 12.300781 Z M 105.152344 34.582031 " fill-opacity="1" fill-rule="nonzero"/></svg>