<svg xmlns="http://www.w3.org/2000/svg" xmlns:xlink="http://www.w3.org/1999/xlink" width="220" zoomAndPan="magnify" viewBox="0 0 165 82.499998" height="110" preserveAspectRatio="xMidYMid meet" version="1.0"><defs><clipPath id="9c62401682"><path d="M 0.496094 0 L 164.503906 0 L 164.503906 82.003906 L 0.496094 82.003906 Z M 0.496094 0 " clip-rule="nonzero"/></clipPath></defs><g clip-path="url(#9c62401682)"><path fill="#ffffff" d="M 0.496094 0 L 164.503906 0 L 164.503906 439.835938 L 0.496094 439.835938 Z M 0.496094 0 " fill-opacity="1" fill-rule="nonzero"/><path fill="#ffffff" d="M 0.496094 0 L 164.503906 0 L 164.503906 82.003906 L 0.496094 82.003906 Z M 0.496094 0 " fill-opacity="1" fill-rule="nonzero"/></g><path fill="#fdd951" d="M 144.152344 33.230469 C 144.542969 33.585938 145.046875 33.765625 145.65625 33.765625 C 146.253906 33.765625 146.742188 33.585938 147.121094 33.230469 C 147.511719 32.859375 147.710938 32.402344 147.710938 31.867188 C 147.710938 31.316406 147.511719 30.863281 147.121094 30.507812 C 146.742188 30.136719 146.253906 29.949219 145.65625 29.949219 C 145.046875 29.949219 144.542969 30.136719 144.152344 30.507812 C 143.773438 30.863281 143.582031 31.316406 143.582031 31.867188 C 143.582031 32.402344 143.773438 32.859375 144.152344 33.230469 " fill-opacity="1" fill-rule="nonzero"/><path fill="#fdd951" d="M 21.207031 20.835938 C 21.597656 21.195312 22.101562 21.375 22.710938 21.375 C 23.308594 21.375 23.796875 21.195312 24.175781 20.835938 C 24.570312 20.464844 24.765625 20.011719 24.765625 19.476562 C 24.765625 18.925781 24.570312 18.472656 24.175781 18.117188 C 23.796875 17.742188 23.308594 17.558594 22.710938 17.558594 C 22.101562 17.558594 21.597656 17.742188 21.207031 18.117188 C 20.828125 18.472656 20.636719 18.925781 20.636719 19.476562 C 20.636719 20.011719 20.828125 20.464844 21.207031 20.835938 " fill-opacity="1" fill-rule="nonzero"/><path fill="#fdd951" d="M 25.578125 34.367188 C 24.539062 34.367188 23.613281 34.128906 22.800781 33.730469 C 24.050781 32.945312 25.304688 31.871094 26.078125 30.820312 C 26.722656 30.722656 27.097656 30.433594 27.371094 30.105469 C 27.78125 29.613281 28.042969 28.929688 28.265625 28.15625 C 28.289062 28.078125 28.316406 27.976562 28.347656 27.863281 C 28.507812 27.25 28.800781 26.144531 29.34375 25.179688 C 30.050781 23.921875 31.289062 22.671875 33.378906 22.429688 C 34.691406 22.277344 36.152344 22.671875 37.289062 23.695312 C 38.457031 24.742188 39.152344 26.332031 39.152344 28.328125 L 39.152344 33.933594 L 35.628906 33.933594 L 35.628906 28.328125 C 35.628906 27.175781 35.25 26.589844 34.929688 26.304688 C 34.578125 25.988281 34.136719 25.878906 33.789062 25.921875 C 33.117188 26 32.738281 26.332031 32.414062 26.902344 C 32.117188 27.433594 31.964844 27.992188 31.796875 28.601562 C 31.75 28.773438 31.703125 28.953125 31.652344 29.132812 C 31.40625 29.964844 30.988281 31.261719 30.082031 32.351562 C 29.101562 33.53125 27.632812 34.367188 25.578125 34.367188 M 16.316406 34.515625 C 17.644531 34.566406 19.175781 34.375 20.191406 34.046875 C 20.746094 33.871094 21.300781 33.640625 21.84375 33.363281 C 23.011719 32.710938 24.238281 31.746094 25.070312 30.789062 C 25.941406 29.691406 26.554688 28.324219 26.554688 26.746094 C 26.554688 25.539062 26.1875 24.441406 25.445312 23.617188 C 24.699219 22.796875 23.671875 22.367188 22.609375 22.367188 C 20.121094 22.367188 18.667969 24.613281 18.667969 26.84375 C 18.667969 27.800781 18.875 28.824219 19.273438 29.796875 C 20.953125 29.195312 22 28 22.199219 27.039062 C 22.195312 26.972656 22.191406 26.910156 22.191406 26.84375 C 22.191406 26.394531 22.328125 26.125 22.429688 26 C 22.523438 25.882812 22.585938 25.882812 22.609375 25.882812 C 22.710938 25.882812 22.773438 25.914062 22.828125 25.976562 C 22.886719 26.039062 23.03125 26.246094 23.03125 26.746094 C 23.03125 26.863281 23.019531 26.984375 23.003906 27.101562 L 23.003906 27.105469 C 23 27.136719 22.996094 27.167969 22.988281 27.199219 C 22.914062 27.585938 22.75 27.976562 22.492188 28.355469 C 21.871094 29.300781 20.765625 30.152344 19.375 30.609375 C 19.285156 30.644531 19.195312 30.675781 19.105469 30.703125 C 18.011719 31.058594 16.820312 31.054688 16.316406 31.011719 C 16.300781 31.007812 16.335938 31.015625 16.316406 31.011719 Z M 16.316406 34.515625 " fill-opacity="1" fill-rule="evenodd"/><path fill="#1c4a84" d="M 44.796875 24.441406 C 45.207031 23.8125 45.722656 23.320312 46.335938 22.964844 C 46.953125 22.597656 47.636719 22.414062 48.390625 22.414062 L 48.390625 26.121094 L 47.425781 26.121094 C 46.550781 26.121094 45.890625 26.3125 45.453125 26.695312 C 45.015625 27.0625 44.796875 27.71875 44.796875 28.660156 L 44.796875 33.964844 L 41.285156 33.964844 L 41.285156 22.535156 L 44.796875 22.535156 Z M 44.796875 24.441406 " fill-opacity="1" fill-rule="nonzero"/><path fill="#1c4a84" d="M 57.28125 27.144531 C 57.28125 26.542969 57.074219 26.066406 56.664062 25.710938 C 56.253906 25.355469 55.738281 25.179688 55.121094 25.179688 C 54.535156 25.179688 54.035156 25.347656 53.625 25.691406 C 53.226562 26.03125 52.980469 26.515625 52.882812 27.144531 Z M 60.875 28.066406 C 60.875 28.394531 60.851562 28.734375 60.8125 29.089844 L 52.863281 29.089844 C 52.917969 29.800781 53.144531 30.347656 53.542969 30.730469 C 53.953125 31.097656 54.453125 31.28125 55.039062 31.28125 C 55.917969 31.28125 56.527344 30.914062 56.867188 30.175781 L 60.605469 30.175781 C 60.414062 30.925781 60.066406 31.605469 59.558594 32.203125 C 59.066406 32.804688 58.441406 33.277344 57.691406 33.617188 C 56.9375 33.960938 56.09375 34.128906 55.164062 34.128906 C 54.039062 34.128906 53.042969 33.890625 52.164062 33.414062 C 51.289062 32.933594 50.605469 32.253906 50.109375 31.363281 C 49.617188 30.476562 49.371094 29.4375 49.371094 28.25 C 49.371094 27.0625 49.609375 26.023438 50.089844 25.136719 C 50.582031 24.25 51.269531 23.566406 52.144531 23.089844 C 53.019531 22.609375 54.027344 22.371094 55.164062 22.371094 C 56.273438 22.371094 57.257812 22.605469 58.121094 23.070312 C 58.984375 23.53125 59.65625 24.195312 60.132812 25.054688 C 60.628906 25.914062 60.875 26.917969 60.875 28.066406 " fill-opacity="1" fill-rule="nonzero"/><path fill="#1c4a84" d="M 62.234375 28.25 C 62.234375 27.0625 62.472656 26.023438 62.953125 25.136719 C 63.445312 24.25 64.125 23.566406 64.984375 23.089844 C 65.863281 22.609375 66.863281 22.371094 67.984375 22.371094 C 69.421875 22.371094 70.621094 22.746094 71.578125 23.5 C 72.550781 24.25 73.1875 25.308594 73.488281 26.671875 L 69.75 26.671875 C 69.4375 25.800781 68.828125 25.363281 67.921875 25.363281 C 67.28125 25.363281 66.765625 25.617188 66.382812 26.121094 C 66 26.613281 65.808594 27.324219 65.808594 28.25 C 65.808594 29.179688 66 29.898438 66.382812 30.402344 C 66.765625 30.894531 67.28125 31.140625 67.921875 31.140625 C 68.828125 31.140625 69.4375 30.703125 69.75 29.828125 L 73.488281 29.828125 C 73.1875 31.167969 72.550781 32.21875 71.578125 32.984375 C 70.605469 33.746094 69.410156 34.128906 67.984375 34.128906 C 66.863281 34.128906 65.863281 33.890625 64.984375 33.414062 C 64.125 32.933594 63.445312 32.253906 62.953125 31.363281 C 62.472656 30.476562 62.234375 29.4375 62.234375 28.25 " fill-opacity="1" fill-rule="nonzero"/><path fill="#1c4a84" d="M 78.675781 24.441406 C 79.085938 23.8125 79.597656 23.320312 80.214844 22.964844 C 80.832031 22.597656 81.515625 22.414062 82.269531 22.414062 L 82.269531 26.121094 L 81.304688 26.121094 C 80.429688 26.121094 79.769531 26.3125 79.332031 26.695312 C 78.894531 27.0625 78.675781 27.71875 78.675781 28.660156 L 78.675781 33.964844 L 75.164062 33.964844 L 75.164062 22.535156 L 78.675781 22.535156 Z M 78.675781 24.441406 " fill-opacity="1" fill-rule="nonzero"/><path fill="#1c4a84" d="M 100.898438 22.535156 L 97.386719 22.535156 L 97.386719 33.964844 L 100.898438 33.964844 Z M 100.898438 22.535156 " fill-opacity="1" fill-rule="evenodd"/><path fill="#1c4a84" d="M 110.136719 30.996094 L 110.136719 33.964844 L 108.351562 33.964844 C 107.078125 33.964844 106.085938 33.660156 105.371094 33.042969 C 104.660156 32.417969 104.304688 31.398438 104.304688 29.992188 L 104.304688 25.445312 L 102.90625 25.445312 L 102.90625 22.535156 L 104.304688 22.535156 L 104.304688 19.75 L 107.816406 19.75 L 107.816406 22.535156 L 110.117188 22.535156 L 110.117188 25.445312 L 107.816406 25.445312 L 107.816406 30.035156 C 107.816406 30.375 107.898438 30.621094 108.0625 30.769531 C 108.226562 30.921875 108.5 30.996094 108.886719 30.996094 Z M 110.136719 30.996094 " fill-opacity="1" fill-rule="nonzero"/><path fill="#1c4a84" d="M 115.8125 22.535156 L 112.300781 22.535156 L 112.300781 33.964844 L 115.8125 33.964844 Z M 115.8125 22.535156 " fill-opacity="1" fill-rule="evenodd"/><path fill="#1c4a84" d="M 138.667969 28.25 C 138.667969 27.378906 138.421875 26.6875 137.929688 26.183594 C 137.449219 25.675781 136.859375 25.425781 136.160156 25.425781 C 135.464844 25.425781 134.867188 25.675781 134.375 26.183594 C 133.894531 26.671875 133.65625 27.355469 133.65625 28.230469 C 133.65625 29.105469 133.894531 29.800781 134.375 30.320312 C 134.867188 30.824219 135.464844 31.078125 136.160156 31.078125 C 136.859375 31.078125 137.449219 30.824219 137.929688 30.320312 C 138.421875 29.816406 138.667969 29.125 138.667969 28.25 M 135.132812 22.371094 C 135.941406 22.371094 136.648438 22.535156 137.25 22.863281 C 137.867188 23.191406 138.339844 23.621094 138.667969 24.152344 L 138.667969 22.535156 L 142.179688 22.535156 L 142.179688 33.945312 C 142.179688 34.996094 141.96875 35.945312 141.542969 36.792969 C 141.132812 37.652344 140.496094 38.335938 139.632812 38.839844 C 138.785156 39.347656 137.722656 39.597656 136.449219 39.597656 C 134.75 39.597656 133.375 39.195312 132.320312 38.390625 C 131.265625 37.597656 130.664062 36.519531 130.511719 35.152344 L 133.984375 35.152344 C 134.09375 35.589844 134.355469 35.933594 134.765625 36.179688 C 135.175781 36.4375 135.683594 36.566406 136.285156 36.566406 C 137.011719 36.566406 137.585938 36.355469 138.011719 35.933594 C 138.449219 35.523438 138.667969 34.859375 138.667969 33.945312 L 138.667969 32.328125 C 138.324219 32.859375 137.851562 33.296875 137.25 33.636719 C 136.648438 33.964844 135.941406 34.128906 135.132812 34.128906 C 134.191406 34.128906 133.332031 33.890625 132.566406 33.414062 C 131.800781 32.921875 131.191406 32.230469 130.738281 31.34375 C 130.300781 30.441406 130.082031 29.40625 130.082031 28.230469 C 130.082031 27.054688 130.300781 26.023438 130.738281 25.136719 C 131.191406 24.25 131.800781 23.566406 132.566406 23.089844 C 133.332031 22.609375 134.191406 22.371094 135.132812 22.371094 " fill-opacity="1" fill-rule="nonzero"/><path fill="#1c4a84" d="M 125.367188 34.066406 L 128.78125 34.066406 L 128.78125 27.734375 C 128.78125 24.464844 126.277344 21.816406 123.191406 21.816406 C 120.105469 21.816406 117.605469 24.464844 117.605469 27.734375 L 117.605469 34.066406 L 121.019531 34.066406 L 121.019531 27.734375 C 121.019531 26.464844 121.992188 25.234375 123.191406 25.234375 C 124.394531 25.234375 125.367188 26.464844 125.367188 27.734375 Z M 125.367188 34.066406 " fill-opacity="1" fill-rule="evenodd"/><path fill="#1c4a84" d="M 87.464844 22.480469 L 87.464844 28.644531 C 87.464844 29.609375 88.03125 30.433594 88.835938 30.789062 C 88.03125 30.433594 87.464844 29.609375 87.464844 28.644531 Z M 89.714844 34.40625 C 92.796875 34.40625 95.292969 31.828125 95.292969 28.644531 L 95.292969 22.480469 L 95.292969 28.644531 C 95.292969 31.828125 92.796875 34.40625 89.714844 34.40625 C 89.523438 34.40625 89.332031 34.398438 89.144531 34.378906 C 89.332031 34.398438 89.523438 34.40625 89.714844 34.40625 M 91.90625 22.417969 L 95.351562 22.417969 L 95.351562 28.644531 C 95.351562 31.859375 92.828125 34.46875 89.714844 34.46875 C 86.601562 34.46875 84.078125 31.859375 84.078125 28.644531 L 84.078125 22.417969 L 87.523438 22.417969 L 87.523438 28.644531 C 87.523438 29.894531 88.503906 30.910156 89.714844 30.910156 C 90.925781 30.910156 91.90625 29.894531 91.90625 28.644531 Z M 91.90625 22.417969 " fill-opacity="1" fill-rule="evenodd"/><path fill="#1c4a84" d="M 112.300781 22.535156 L 115.8125 22.535156 L 115.8125 33.964844 L 112.300781 33.964844 Z M 97.386719 22.535156 L 100.898438 22.535156 L 100.898438 33.964844 L 97.386719 33.964844 Z M 57.277344 27.085938 C 57.265625 26.511719 57.058594 26.054688 56.664062 25.710938 C 56.253906 25.355469 55.738281 25.179688 55.121094 25.179688 C 54.535156 25.179688 54.035156 25.347656 53.625 25.691406 C 53.238281 26.019531 52.996094 26.484375 52.894531 27.085938 C 52.890625 27.105469 52.886719 27.125 52.882812 27.144531 L 57.28125 27.144531 C 57.28125 27.125 57.277344 27.105469 57.277344 27.085938 M 57.21875 27.085938 C 57.203125 26.527344 57.003906 26.085938 56.625 25.757812 C 56.226562 25.414062 55.726562 25.238281 55.121094 25.238281 C 54.546875 25.238281 54.0625 25.40625 53.664062 25.738281 C 53.292969 26.054688 53.054688 26.5 52.953125 27.085938 Z M 134.375 30.320312 C 133.894531 29.800781 133.65625 29.105469 133.65625 28.230469 C 133.65625 27.355469 133.894531 26.671875 134.375 26.183594 C 134.867188 25.675781 135.464844 25.425781 136.160156 25.425781 C 136.859375 25.425781 137.449219 25.675781 137.929688 26.183594 C 138.421875 26.6875 138.667969 27.378906 138.667969 28.25 C 138.667969 29.125 138.421875 29.816406 137.929688 30.320312 C 137.449219 30.824219 136.859375 31.078125 136.160156 31.078125 C 135.464844 31.078125 134.867188 30.824219 134.375 30.320312 M 137.882812 26.222656 C 137.417969 25.730469 136.84375 25.484375 136.160156 25.484375 C 135.480469 25.484375 134.898438 25.730469 134.417969 26.222656 C 133.953125 26.703125 133.714844 27.367188 133.714844 28.230469 C 133.714844 29.09375 133.953125 29.773438 134.417969 30.277344 C 134.898438 30.773438 135.480469 31.015625 136.160156 31.015625 C 136.84375 31.015625 137.417969 30.773438 137.882812 30.277344 C 138.363281 29.785156 138.605469 29.113281 138.605469 28.25 C 138.605469 27.390625 138.363281 26.714844 137.882812 26.222656 M 132.285156 38.4375 C 131.214844 37.636719 130.605469 36.542969 130.453125 35.160156 L 130.445312 35.09375 L 134.03125 35.09375 L 134.042969 35.140625 C 134.148438 35.558594 134.398438 35.886719 134.796875 36.125 L 134.796875 36.128906 C 135.195312 36.378906 135.691406 36.507812 136.285156 36.507812 C 137 36.507812 137.554688 36.300781 137.96875 35.890625 L 137.96875 35.886719 C 138.390625 35.496094 138.605469 34.851562 138.605469 33.945312 L 138.605469 32.523438 C 138.269531 32.992188 137.828125 33.378906 137.28125 33.691406 L 137.277344 33.691406 C 136.667969 34.023438 135.949219 34.191406 135.132812 34.191406 C 134.179688 34.191406 133.3125 33.949219 132.535156 33.464844 C 131.757812 32.964844 131.140625 32.265625 130.683594 31.371094 C 130.242188 30.460938 130.019531 29.414062 130.019531 28.230469 C 130.019531 27.046875 130.242188 26.007812 130.683594 25.109375 C 131.140625 24.214844 131.757812 23.523438 132.535156 23.039062 C 133.3125 22.554688 134.179688 22.3125 135.132812 22.3125 C 135.949219 22.3125 136.664062 22.476562 137.277344 22.8125 C 137.835938 23.109375 138.28125 23.488281 138.605469 23.953125 L 138.605469 22.476562 L 142.238281 22.476562 L 142.238281 33.945312 C 142.238281 35.003906 142.027344 35.964844 141.597656 36.820312 C 141.179688 37.691406 140.535156 38.382812 139.664062 38.894531 C 138.804688 39.40625 137.730469 39.660156 136.449219 39.660156 C 134.742188 39.660156 133.351562 39.253906 132.285156 38.4375 M 133.984375 35.152344 C 134.09375 35.589844 134.355469 35.933594 134.765625 36.179688 C 135.175781 36.4375 135.683594 36.566406 136.285156 36.566406 C 137.011719 36.566406 137.585938 36.355469 138.011719 35.933594 C 138.449219 35.523438 138.667969 34.859375 138.667969 33.945312 L 138.667969 32.328125 C 138.648438 32.359375 138.628906 32.386719 138.605469 32.417969 C 138.269531 32.910156 137.816406 33.316406 137.25 33.636719 C 136.648438 33.964844 135.941406 34.128906 135.132812 34.128906 C 134.191406 34.128906 133.332031 33.890625 132.566406 33.414062 C 131.800781 32.921875 131.191406 32.230469 130.738281 31.34375 C 130.300781 30.441406 130.082031 29.40625 130.082031 28.230469 C 130.082031 27.054688 130.300781 26.023438 130.738281 25.136719 C 131.191406 24.25 131.800781 23.566406 132.566406 23.089844 C 133.332031 22.609375 134.191406 22.371094 135.132812 22.371094 C 135.941406 22.371094 136.648438 22.535156 137.25 22.863281 C 137.828125 23.171875 138.28125 23.570312 138.605469 24.058594 C 138.628906 24.089844 138.648438 24.121094 138.667969 24.152344 L 138.667969 22.535156 L 142.179688 22.535156 L 142.179688 33.945312 C 142.179688 34.996094 141.96875 35.945312 141.542969 36.792969 C 141.132812 37.652344 140.496094 38.335938 139.632812 38.839844 C 138.785156 39.347656 137.722656 39.597656 136.449219 39.597656 C 134.75 39.597656 133.375 39.195312 132.320312 38.390625 C 131.28125 37.609375 130.679688 36.550781 130.519531 35.214844 C 130.515625 35.195312 130.515625 35.175781 130.511719 35.152344 Z M 115.871094 34.027344 L 112.238281 34.027344 L 112.238281 22.476562 L 115.871094 22.476562 Z M 107.816406 30.03125 C 107.816406 30.375 107.898438 30.621094 108.0625 30.769531 C 108.226562 30.921875 108.5 30.996094 108.886719 30.996094 L 110.136719 30.996094 L 110.136719 33.964844 L 108.351562 33.964844 C 107.078125 33.964844 106.085938 33.660156 105.371094 33.042969 C 104.660156 32.414062 104.304688 31.398438 104.304688 29.992188 L 104.304688 25.445312 L 102.90625 25.445312 L 102.90625 22.535156 L 104.304688 22.535156 L 104.304688 19.75 L 107.816406 19.75 L 107.816406 22.535156 L 110.117188 22.535156 L 110.117188 25.445312 L 107.816406 25.445312 Z M 110.199219 30.933594 L 110.199219 34.027344 L 108.351562 34.027344 C 107.066406 34.027344 106.058594 33.714844 105.332031 33.089844 C 104.601562 32.445312 104.242188 31.40625 104.242188 29.992188 L 104.242188 25.503906 L 102.847656 25.503906 L 102.847656 22.476562 L 104.242188 22.476562 L 104.242188 19.691406 L 107.878906 19.691406 L 107.878906 22.476562 L 110.175781 22.476562 L 110.175781 25.503906 L 107.878906 25.503906 L 107.878906 30.03125 C 107.878906 30.367188 107.957031 30.59375 108.105469 30.726562 C 108.25 30.859375 108.507812 30.933594 108.886719 30.933594 Z M 100.957031 34.027344 L 97.324219 34.027344 L 97.324219 22.476562 L 100.957031 22.476562 Z M 80.183594 22.914062 C 80.8125 22.539062 81.507812 22.351562 82.269531 22.351562 L 82.332031 22.351562 L 82.332031 26.179688 L 81.304688 26.179688 C 80.433594 26.179688 79.796875 26.371094 79.371094 26.738281 C 78.953125 27.09375 78.734375 27.726562 78.734375 28.660156 L 78.734375 34.027344 L 75.101562 34.027344 L 75.101562 22.476562 L 78.734375 22.476562 L 78.734375 24.246094 C 79.132812 23.6875 79.613281 23.242188 80.183594 22.914062 M 82.210938 22.414062 C 82.230469 22.414062 82.25 22.414062 82.269531 22.414062 L 82.269531 26.121094 L 81.304688 26.121094 C 80.429688 26.121094 79.769531 26.3125 79.332031 26.695312 C 78.894531 27.0625 78.675781 27.71875 78.675781 28.660156 L 78.675781 33.964844 L 75.164062 33.964844 L 75.164062 22.535156 L 78.675781 22.535156 L 78.675781 24.441406 C 78.695312 24.410156 78.714844 24.378906 78.734375 24.351562 C 79.136719 23.765625 79.628906 23.304688 80.214844 22.964844 C 80.816406 22.605469 81.480469 22.421875 82.210938 22.414062 M 71.578125 23.5 C 70.621094 22.746094 69.421875 22.371094 67.984375 22.371094 C 66.863281 22.371094 65.863281 22.609375 64.984375 23.089844 C 64.125 23.566406 63.445312 24.25 62.953125 25.136719 C 62.472656 26.023438 62.234375 27.0625 62.234375 28.25 C 62.234375 29.4375 62.472656 30.476562 62.953125 31.363281 C 63.445312 32.253906 64.125 32.933594 64.984375 33.414062 C 65.863281 33.890625 66.863281 34.128906 67.984375 34.128906 C 69.410156 34.128906 70.605469 33.746094 71.578125 32.984375 C 72.535156 32.230469 73.167969 31.199219 73.476562 29.886719 C 73.480469 29.867188 73.484375 29.847656 73.488281 29.828125 L 69.75 29.828125 C 69.4375 30.703125 68.828125 31.140625 67.921875 31.140625 C 67.28125 31.140625 66.765625 30.894531 66.382812 30.402344 C 66 29.898438 65.808594 29.179688 65.808594 28.25 C 65.808594 27.320312 66 26.613281 66.382812 26.121094 C 66.765625 25.617188 67.28125 25.363281 67.921875 25.363281 C 68.828125 25.363281 69.4375 25.800781 69.75 26.671875 L 73.488281 26.671875 C 73.484375 26.652344 73.480469 26.632812 73.476562 26.613281 C 73.167969 25.277344 72.539062 24.238281 71.578125 23.5 M 62.898438 25.109375 C 63.398438 24.210938 64.082031 23.519531 64.957031 23.035156 C 65.84375 22.554688 66.851562 22.3125 67.984375 22.3125 C 69.433594 22.3125 70.644531 22.691406 71.617188 23.449219 C 72.601562 24.210938 73.246094 25.285156 73.546875 26.660156 L 73.566406 26.734375 L 69.707031 26.734375 L 69.695312 26.695312 C 69.539062 26.265625 69.316406 25.949219 69.023438 25.738281 C 68.730469 25.53125 68.367188 25.421875 67.921875 25.421875 C 67.296875 25.421875 66.800781 25.667969 66.429688 26.15625 C 66.058594 26.632812 65.867188 27.328125 65.867188 28.25 C 65.867188 29.171875 66.058594 29.875 66.429688 30.363281 C 66.800781 30.839844 67.296875 31.078125 67.921875 31.078125 C 68.367188 31.078125 68.730469 30.972656 69.023438 30.761719 C 69.316406 30.550781 69.539062 30.234375 69.695312 29.808594 L 69.707031 29.769531 L 73.566406 29.769531 L 73.546875 29.839844 C 73.246094 31.191406 72.601562 32.253906 71.617188 33.03125 C 70.632812 33.804688 69.421875 34.191406 67.984375 34.191406 C 66.851562 34.191406 65.84375 33.949219 64.957031 33.464844 C 64.082031 32.980469 63.398438 32.289062 62.898438 31.394531 C 62.414062 30.496094 62.171875 29.445312 62.171875 28.25 C 62.171875 27.054688 62.414062 26.007812 62.898438 25.109375 M 60.132812 25.054688 C 59.65625 24.195312 58.984375 23.53125 58.121094 23.070312 C 57.257812 22.605469 56.273438 22.371094 55.164062 22.371094 C 54.027344 22.371094 53.019531 22.609375 52.144531 23.089844 C 51.269531 23.566406 50.582031 24.25 50.089844 25.136719 C 49.609375 26.023438 49.371094 27.0625 49.371094 28.25 C 49.371094 29.4375 49.617188 30.476562 50.109375 31.363281 C 50.605469 32.253906 51.289062 32.933594 52.164062 33.414062 C 53.042969 33.890625 54.039062 34.128906 55.164062 34.128906 C 56.09375 34.128906 56.9375 33.960938 57.691406 33.617188 C 58.441406 33.277344 59.066406 32.804688 59.558594 32.203125 C 60.050781 31.621094 60.394531 30.964844 60.589844 30.238281 C 60.597656 30.214844 60.601562 30.195312 60.605469 30.175781 L 56.867188 30.175781 C 56.527344 30.914062 55.917969 31.28125 55.039062 31.28125 C 54.453125 31.28125 53.953125 31.097656 53.542969 30.730469 C 53.15625 30.359375 52.929688 29.832031 52.867188 29.152344 C 52.867188 29.132812 52.863281 29.109375 52.863281 29.089844 L 60.8125 29.089844 C 60.851562 28.734375 60.875 28.394531 60.875 28.066406 C 60.875 26.917969 60.628906 25.914062 60.132812 25.054688 M 60.867188 29.152344 L 52.929688 29.152344 C 52.992188 29.820312 53.210938 30.328125 53.582031 30.683594 C 53.980469 31.042969 54.464844 31.222656 55.039062 31.222656 C 55.46875 31.222656 55.828125 31.132812 56.125 30.953125 C 56.417969 30.777344 56.648438 30.511719 56.8125 30.152344 L 56.828125 30.117188 L 60.683594 30.117188 L 60.664062 30.191406 C 60.472656 30.949219 60.117188 31.636719 59.605469 32.242188 C 59.105469 32.851562 58.476562 33.328125 57.714844 33.671875 C 56.953125 34.019531 56.101562 34.191406 55.164062 34.191406 C 54.03125 34.191406 53.023438 33.949219 52.136719 33.464844 C 51.25 32.980469 50.554688 32.292969 50.058594 31.394531 C 49.558594 30.496094 49.3125 29.449219 49.3125 28.25 C 49.3125 27.054688 49.550781 26.007812 50.039062 25.109375 C 50.535156 24.210938 51.230469 23.519531 52.117188 23.035156 C 53 22.554688 54.019531 22.3125 55.164062 22.3125 C 56.28125 22.3125 57.277344 22.546875 58.148438 23.015625 C 59.023438 23.484375 59.703125 24.15625 60.1875 25.027344 C 60.6875 25.898438 60.933594 26.910156 60.933594 28.066406 C 60.933594 28.398438 60.914062 28.742188 60.871094 29.097656 Z M 46.304688 22.914062 C 46.933594 22.539062 47.628906 22.351562 48.390625 22.351562 L 48.453125 22.351562 L 48.453125 26.179688 L 47.425781 26.179688 C 46.558594 26.179688 45.917969 26.371094 45.492188 26.738281 C 45.074219 27.09375 44.855469 27.726562 44.855469 28.660156 L 44.855469 34.027344 L 41.222656 34.027344 L 41.222656 22.476562 L 44.855469 22.476562 L 44.855469 24.246094 C 45.253906 23.6875 45.734375 23.242188 46.304688 22.914062 M 48.332031 22.414062 C 48.351562 22.414062 48.371094 22.414062 48.390625 22.414062 L 48.390625 26.121094 L 47.425781 26.121094 C 46.550781 26.121094 45.890625 26.3125 45.453125 26.695312 C 45.015625 27.0625 44.796875 27.71875 44.796875 28.660156 L 44.796875 33.964844 L 41.285156 33.964844 L 41.285156 22.535156 L 44.796875 22.535156 L 44.796875 24.441406 C 44.816406 24.410156 44.835938 24.378906 44.855469 24.351562 C 45.257812 23.765625 45.75 23.304688 46.335938 22.964844 C 46.9375 22.605469 47.601562 22.421875 48.332031 22.414062 " fill-opacity="1" fill-rule="evenodd"/><path fill="#1c4a84" d="M 97.535156 20.878906 C 97.925781 21.234375 98.429688 21.414062 99.039062 21.414062 C 99.636719 21.414062 100.125 21.234375 100.503906 20.878906 C 100.894531 20.507812 101.09375 20.054688 101.09375 19.515625 C 101.09375 18.96875 100.894531 18.511719 100.503906 18.15625 C 100.125 17.785156 99.636719 17.597656 99.039062 17.597656 C 98.429688 17.597656 97.925781 17.785156 97.535156 18.15625 C 97.152344 18.511719 96.964844 18.96875 96.964844 19.515625 C 96.964844 20.054688 97.152344 20.507812 97.535156 20.878906 " fill-opacity="1" fill-rule="nonzero"/><path fill="#1c4a84" d="M 112.433594 20.878906 C 112.828125 21.234375 113.332031 21.414062 113.941406 21.414062 C 114.535156 21.414062 115.023438 21.234375 115.402344 20.878906 C 115.796875 20.507812 115.992188 20.054688 115.992188 19.515625 C 115.992188 18.96875 115.796875 18.511719 115.402344 18.15625 C 115.023438 17.785156 114.535156 17.597656 113.941406 17.597656 C 113.332031 17.597656 112.828125 17.785156 112.433594 18.15625 C 112.054688 18.511719 111.867188 18.96875 111.867188 19.515625 C 111.867188 20.054688 112.054688 20.507812 112.433594 20.878906 " fill-opacity="1" fill-rule="nonzero"/><path fill="#6f6f6e" d="M 42.738281 64.371094 L 47.332031 55.492188 L 43.132812 55.492188 C 43.070312 55.1875 43.042969 54.878906 43.042969 54.566406 C 43.042969 54.230469 43.070312 53.910156 43.132812 53.609375 L 50.464844 53.609375 L 50.585938 53.789062 L 46.039062 62.640625 L 50.359375 62.640625 C 50.417969 62.945312 50.449219 63.253906 50.449219 63.570312 C 50.449219 63.902344 50.417969 64.222656 50.359375 64.523438 L 42.84375 64.523438 Z M 42.738281 64.371094 " fill-opacity="1" fill-rule="nonzero"/><path fill="#6f6f6e" d="M 52.289062 53.609375 C 52.480469 53.578125 52.667969 53.558594 52.851562 53.546875 C 53.035156 53.539062 53.222656 53.53125 53.414062 53.53125 C 53.585938 53.53125 53.765625 53.539062 53.949219 53.546875 C 54.128906 53.558594 54.316406 53.578125 54.511719 53.609375 L 54.511719 59.273438 C 54.511719 59.890625 54.535156 60.417969 54.578125 60.859375 C 54.625 61.296875 54.714844 61.664062 54.851562 61.953125 C 54.988281 62.238281 55.183594 62.453125 55.429688 62.589844 C 55.679688 62.726562 56 62.792969 56.398438 62.792969 C 56.792969 62.792969 57.113281 62.726562 57.355469 62.589844 C 57.597656 62.453125 57.789062 62.238281 57.925781 61.953125 C 58.0625 61.664062 58.152344 61.296875 58.199219 60.859375 C 58.246094 60.417969 58.269531 59.890625 58.269531 59.273438 L 58.269531 53.609375 C 58.46875 53.578125 58.664062 53.558594 58.84375 53.546875 C 59.027344 53.539062 59.207031 53.53125 59.378906 53.53125 C 59.5625 53.53125 59.746094 53.539062 59.933594 53.546875 C 60.121094 53.558594 60.3125 53.578125 60.503906 53.609375 L 60.503906 59.742188 C 60.503906 60.480469 60.441406 61.15625 60.320312 61.769531 C 60.199219 62.382812 59.980469 62.90625 59.667969 63.339844 C 59.351562 63.777344 58.933594 64.113281 58.40625 64.351562 C 57.878906 64.589844 57.207031 64.707031 56.398438 64.707031 C 55.585938 64.707031 54.914062 64.589844 54.390625 64.351562 C 53.859375 64.113281 53.441406 63.777344 53.125 63.339844 C 52.8125 62.90625 52.59375 62.382812 52.472656 61.769531 C 52.351562 61.15625 52.289062 60.480469 52.289062 59.742188 Z M 52.289062 53.609375 " fill-opacity="1" fill-rule="nonzero"/><path fill="#6f6f6e" d="M 70.085938 62.460938 C 70.21875 62.742188 70.328125 63.035156 70.414062 63.332031 C 70.5 63.632812 70.5625 63.933594 70.605469 64.234375 C 70.078125 64.429688 69.601562 64.554688 69.179688 64.617188 C 68.761719 64.675781 68.308594 64.707031 67.820312 64.707031 C 66.957031 64.707031 66.203125 64.566406 65.554688 64.289062 C 64.90625 64.011719 64.359375 63.621094 63.917969 63.121094 C 63.476562 62.621094 63.144531 62.023438 62.921875 61.335938 C 62.699219 60.648438 62.585938 59.898438 62.585938 59.089844 C 62.585938 58.28125 62.703125 57.527344 62.9375 56.835938 C 63.171875 56.140625 63.507812 55.542969 63.949219 55.035156 C 64.390625 54.53125 64.933594 54.136719 65.578125 53.851562 C 66.21875 53.566406 66.953125 53.425781 67.773438 53.425781 C 68.261719 53.425781 68.710938 53.457031 69.121094 53.515625 C 69.53125 53.578125 69.976562 53.703125 70.453125 53.898438 C 70.429688 54.199219 70.371094 54.496094 70.269531 54.785156 C 70.167969 55.074219 70.054688 55.363281 69.933594 55.65625 C 69.578125 55.535156 69.265625 55.449219 68.992188 55.398438 C 68.71875 55.347656 68.394531 55.324219 68.019531 55.324219 C 67.042969 55.324219 66.296875 55.640625 65.773438 56.273438 C 65.25 56.90625 64.992188 57.84375 64.992188 59.089844 C 64.992188 61.558594 66.039062 62.792969 68.140625 62.792969 C 68.515625 62.792969 68.84375 62.769531 69.128906 62.71875 C 69.414062 62.667969 69.730469 62.582031 70.085938 62.460938 " fill-opacity="1" fill-rule="nonzero"/><path fill="#6f6f6e" d="M 79.335938 62.460938 C 79.464844 62.742188 79.574219 63.035156 79.664062 63.332031 C 79.75 63.632812 79.8125 63.933594 79.851562 64.234375 C 79.324219 64.429688 78.851562 64.554688 78.429688 64.617188 C 78.007812 64.675781 77.554688 64.707031 77.070312 64.707031 C 76.207031 64.707031 75.449219 64.566406 74.800781 64.289062 C 74.152344 64.011719 73.609375 63.621094 73.167969 63.121094 C 72.726562 62.621094 72.394531 62.023438 72.171875 61.335938 C 71.949219 60.648438 71.835938 59.898438 71.835938 59.089844 C 71.835938 58.28125 71.953125 57.527344 72.1875 56.835938 C 72.417969 56.140625 72.757812 55.542969 73.199219 55.035156 C 73.636719 54.53125 74.179688 54.136719 74.824219 53.851562 C 75.46875 53.566406 76.203125 53.425781 77.023438 53.425781 C 77.511719 53.425781 77.957031 53.457031 78.371094 53.515625 C 78.78125 53.578125 79.222656 53.703125 79.699219 53.898438 C 79.679688 54.199219 79.617188 54.496094 79.519531 54.785156 C 79.417969 55.074219 79.304688 55.363281 79.183594 55.65625 C 78.828125 55.535156 78.515625 55.449219 78.238281 55.398438 C 77.964844 55.347656 77.640625 55.324219 77.265625 55.324219 C 76.292969 55.324219 75.542969 55.640625 75.023438 56.273438 C 74.5 56.90625 74.238281 57.84375 74.238281 59.089844 C 74.238281 61.558594 75.289062 62.792969 77.386719 62.792969 C 77.761719 62.792969 78.09375 62.769531 78.375 62.71875 C 78.660156 62.667969 78.980469 62.582031 79.335938 62.460938 " fill-opacity="1" fill-rule="nonzero"/><path fill="#6f6f6e" d="M 81.8125 53.609375 C 82.191406 53.546875 82.558594 53.515625 82.925781 53.515625 C 83.289062 53.515625 83.664062 53.546875 84.050781 53.609375 L 84.050781 57.890625 L 87.714844 57.890625 L 87.714844 53.609375 C 88.089844 53.546875 88.460938 53.515625 88.828125 53.515625 C 89.191406 53.515625 89.566406 53.546875 89.953125 53.609375 L 89.953125 64.523438 C 89.566406 64.585938 89.195312 64.617188 88.84375 64.617188 C 88.46875 64.617188 88.089844 64.585938 87.714844 64.523438 L 87.714844 59.804688 L 84.050781 59.804688 L 84.050781 64.523438 C 83.664062 64.585938 83.292969 64.617188 82.941406 64.617188 C 82.566406 64.617188 82.191406 64.585938 81.8125 64.523438 Z M 81.8125 53.609375 " fill-opacity="1" fill-rule="nonzero"/><path fill="#6f6f6e" d="M 92.386719 53.609375 L 98.59375 53.609375 C 98.652344 53.914062 98.683594 54.222656 98.683594 54.535156 C 98.683594 54.867188 98.652344 55.1875 98.59375 55.492188 L 94.605469 55.492188 L 94.605469 57.859375 L 97.769531 57.859375 C 97.832031 58.183594 97.863281 58.496094 97.863281 58.800781 C 97.863281 59.125 97.832031 59.445312 97.769531 59.757812 L 94.605469 59.757812 L 94.605469 62.640625 L 98.699219 62.640625 C 98.757812 62.945312 98.789062 63.253906 98.789062 63.570312 C 98.789062 63.902344 98.757812 64.222656 98.699219 64.523438 L 92.386719 64.523438 Z M 92.386719 53.609375 " fill-opacity="1" fill-rule="nonzero"/><path fill="#6f6f6e" d="M 102.898438 55.492188 L 100.175781 55.492188 C 100.113281 55.1875 100.082031 54.867188 100.082031 54.535156 C 100.082031 54.222656 100.113281 53.914062 100.175781 53.609375 L 107.855469 53.609375 C 107.917969 53.914062 107.945312 54.222656 107.945312 54.535156 C 107.945312 54.867188 107.917969 55.1875 107.855469 55.492188 L 105.132812 55.492188 L 105.132812 64.523438 C 104.949219 64.546875 104.769531 64.5625 104.585938 64.578125 C 104.402344 64.59375 104.226562 64.601562 104.054688 64.601562 C 103.878906 64.601562 103.695312 64.59375 103.5 64.585938 C 103.300781 64.574219 103.101562 64.554688 102.898438 64.523438 Z M 102.898438 55.492188 " fill-opacity="1" fill-rule="nonzero"/><path fill="#6f6f6e" d="M 111.824219 55.492188 L 109.101562 55.492188 C 109.042969 55.1875 109.011719 54.867188 109.011719 54.535156 C 109.011719 54.222656 109.042969 53.914062 109.101562 53.609375 L 116.785156 53.609375 C 116.84375 53.914062 116.875 54.222656 116.875 54.535156 C 116.875 54.867188 116.84375 55.1875 116.785156 55.492188 L 114.0625 55.492188 L 114.0625 64.523438 C 113.878906 64.546875 113.695312 64.5625 113.515625 64.578125 C 113.332031 64.59375 113.152344 64.601562 112.980469 64.601562 C 112.808594 64.601562 112.625 64.59375 112.425781 64.585938 C 112.230469 64.574219 112.027344 64.554688 111.824219 64.523438 Z M 111.824219 55.492188 " fill-opacity="1" fill-rule="nonzero"/><path fill="#6f6f6e" d="M 118.625 53.609375 C 119 53.546875 119.371094 53.515625 119.734375 53.515625 C 120.101562 53.515625 120.476562 53.546875 120.859375 53.609375 L 120.859375 64.523438 C 120.476562 64.585938 120.105469 64.617188 119.75 64.617188 C 119.375 64.617188 119 64.585938 118.625 64.523438 Z M 118.625 53.609375 " fill-opacity="1" fill-rule="nonzero"/><path fill="#6f6f6e" d="M 147.628906 44.925781 L 16.398438 44.925781 L 16.398438 45.613281 L 147.628906 45.613281 Z M 147.628906 44.925781 " fill-opacity="1" fill-rule="evenodd"/></svg>