<svg xmlns="http://www.w3.org/2000/svg" xmlns:xlink="http://www.w3.org/1999/xlink" width="220" zoomAndPan="magnify" viewBox="0 0 165 82.499998" height="110" preserveAspectRatio="xMidYMid meet" version="1.0"><defs><clipPath id="7e692c35f8"><path d="M 0.496094 0 L 164.503906 0 L 164.503906 82.003906 L 0.496094 82.003906 Z M 0.496094 0 " clip-rule="nonzero"/></clipPath></defs><g clip-path="url(#7e692c35f8)"><path fill="#ffffff" d="M 0.496094 0 L 164.503906 0 L 164.503906 89.457031 L 0.496094 89.457031 Z M 0.496094 0 " fill-opacity="1" fill-rule="nonzero"/><path fill="#ffffff" d="M 0.496094 0 L 164.503906 0 L 164.503906 82.003906 L 0.496094 82.003906 Z M 0.496094 0 " fill-opacity="1" fill-rule="nonzero"/></g><path fill="#041e41" d="M 55.839844 35.332031 L 43.71875 35.332031 L 43.71875 16.085938 L 55.839844 16.085938 L 55.839844 19.429688 L 48.183594 19.429688 L 48.183594 23.65625 L 55.308594 23.65625 L 55.308594 27 L 48.183594 27 L 48.183594 31.960938 L 55.839844 31.960938 Z M 55.839844 35.332031 " fill-opacity="1" fill-rule="nonzero"/><path fill="#041e41" d="M 92.492188 35.332031 L 80.375 35.332031 L 80.375 16.085938 L 92.492188 16.085938 L 92.492188 19.429688 L 84.835938 19.429688 L 84.835938 23.65625 L 91.964844 23.65625 L 91.964844 27 L 84.835938 27 L 84.835938 31.960938 L 92.492188 31.960938 Z M 92.492188 35.332031 " fill-opacity="1" fill-rule="nonzero"/><path fill="#041e41" d="M 73.132812 16.085938 L 77.640625 16.085938 L 70.488281 35.332031 L 65.621094 35.332031 L 58.480469 16.085938 L 62.988281 16.085938 L 66.949219 27.535156 C 67.167969 28.214844 67.394531 29 67.632812 29.898438 C 67.867188 30.796875 68.011719 31.425781 68.070312 31.777344 C 68.175781 30.96875 68.535156 29.554688 69.148438 27.535156 Z M 73.132812 16.085938 " fill-opacity="1" fill-rule="nonzero"/><path fill="#041e41" d="M 143.164062 35.332031 L 131.042969 35.332031 L 131.042969 16.085938 L 143.164062 16.085938 L 143.164062 19.429688 L 135.507812 19.429688 L 135.507812 23.65625 L 142.628906 23.65625 L 142.628906 27 L 135.507812 27 L 135.507812 31.960938 L 143.164062 31.960938 Z M 143.164062 35.332031 " fill-opacity="1" fill-rule="nonzero"/><path fill="#041e41" d="M 127.167969 20.324219 C 126.0625 19.914062 125.148438 19.621094 124.425781 19.457031 C 123.691406 19.289062 122.96875 19.203125 122.261719 19.203125 C 121.417969 19.203125 120.765625 19.386719 120.316406 19.746094 C 119.867188 20.101562 119.640625 20.570312 119.640625 21.152344 C 119.640625 21.511719 119.734375 21.824219 119.914062 22.09375 C 120.09375 22.363281 120.386719 22.621094 120.785156 22.871094 C 121.183594 23.125 122.125 23.570312 123.613281 24.222656 C 125.578125 25.082031 126.925781 25.945312 127.65625 26.8125 C 128.382812 27.675781 128.75 28.734375 128.75 29.988281 C 128.75 31.726562 128.066406 33.09375 126.699219 34.09375 C 125.332031 35.09375 123.429688 35.59375 120.992188 35.59375 C 118.746094 35.59375 116.757812 35.210938 115.03125 34.433594 L 115.03125 30.644531 C 116.449219 31.222656 117.652344 31.628906 118.636719 31.867188 C 119.621094 32.109375 120.519531 32.222656 121.335938 32.222656 C 122.3125 32.222656 123.0625 32.050781 123.589844 31.710938 C 124.109375 31.367188 124.375 30.859375 124.375 30.183594 C 124.375 29.808594 124.261719 29.46875 124.03125 29.175781 C 123.800781 28.882812 123.460938 28.597656 123.015625 28.324219 C 122.570312 28.054688 121.660156 27.617188 120.289062 27.019531 C 119.003906 26.464844 118.039062 25.933594 117.394531 25.425781 C 116.75 24.917969 116.238281 24.324219 115.855469 23.648438 C 115.46875 22.96875 115.277344 22.183594 115.277344 21.273438 C 115.277344 19.570312 115.910156 18.234375 117.171875 17.257812 C 118.433594 16.285156 120.175781 15.796875 122.402344 15.796875 C 123.492188 15.796875 124.539062 15.917969 125.535156 16.152344 C 126.070312 16.28125 126.613281 16.433594 127.171875 16.617188 " fill-opacity="1" fill-rule="nonzero"/><path fill="#041e41" d="M 100.746094 24.578125 L 102.1875 24.578125 C 103.597656 24.578125 104.640625 24.359375 105.3125 23.929688 C 105.984375 23.5 106.320312 22.824219 106.320312 21.902344 C 106.320312 20.992188 105.972656 20.339844 105.289062 19.957031 C 104.605469 19.570312 103.539062 19.378906 102.097656 19.378906 L 100.746094 19.378906 Z M 100.746094 27.890625 L 100.746094 35.28125 L 96.285156 35.28125 L 96.285156 16.03125 L 102.417969 16.03125 C 105.277344 16.03125 107.390625 16.507812 108.765625 17.460938 C 110.140625 18.414062 110.824219 19.859375 110.824219 21.796875 C 110.824219 22.929688 110.484375 23.933594 109.804688 24.820312 C 109.125 25.699219 108.15625 26.394531 106.910156 26.894531 C 110.078125 31.222656 112.140625 34.019531 113.101562 35.28125 L 108.148438 35.28125 L 103.125 27.890625 Z M 100.746094 27.890625 " fill-opacity="1" fill-rule="nonzero"/><path fill="#041e41" d="M 26.730469 19.664062 L 26.730469 16.085938 C 26.730469 16.085938 30.699219 16.050781 31.863281 16.140625 C 32.445312 16.1875 34.199219 16.265625 35.898438 17.164062 C 37.617188 18.070312 39.03125 20.425781 39.03125 22.402344 C 39.03125 27.683594 34.054688 28.765625 34.054688 28.765625 L 41.628906 39.109375 L 36.445312 39.109375 L 29.558594 29.78125 L 21.503906 29.78125 L 21.503906 26.15625 L 30.648438 26.15625 C 30.648438 26.15625 34.511719 26.214844 34.402344 22.746094 C 34.332031 20.503906 32.46875 19.933594 30.902344 19.800781 C 29.949219 19.71875 26.730469 19.664062 26.730469 19.664062 " fill-opacity="1" fill-rule="nonzero"/><path fill="#b52372" d="M 43.703125 48.164062 L 44.277344 48.066406 L 44.277344 43.015625 L 43.679688 42.824219 L 43.679688 42.359375 L 45.183594 42.179688 L 45.394531 42.257812 L 45.390625 44.121094 L 45.335938 44.648438 C 45.457031 44.546875 45.582031 44.457031 45.714844 44.386719 C 45.84375 44.316406 45.976562 44.257812 46.109375 44.214844 C 46.242188 44.171875 46.371094 44.140625 46.5 44.117188 C 46.625 44.101562 46.738281 44.085938 46.839844 44.085938 C 47.113281 44.085938 47.339844 44.132812 47.511719 44.21875 C 47.683594 44.308594 47.820312 44.441406 47.917969 44.617188 C 48.015625 44.792969 48.082031 45.011719 48.113281 45.273438 C 48.144531 45.535156 48.15625 45.835938 48.15625 46.175781 L 48.15625 48.070312 L 48.71875 48.167969 L 48.71875 48.617188 L 46.425781 48.613281 L 46.425781 48.167969 L 47.035156 48.066406 L 47.035156 46.425781 C 47.035156 46.179688 47.03125 45.957031 47.015625 45.757812 C 47.003906 45.558594 46.972656 45.394531 46.917969 45.257812 C 46.867188 45.121094 46.785156 45.015625 46.675781 44.945312 C 46.566406 44.871094 46.414062 44.835938 46.226562 44.835938 C 46.085938 44.835938 45.941406 44.851562 45.800781 44.886719 C 45.660156 44.921875 45.527344 44.984375 45.402344 45.078125 L 45.402344 48.070312 L 45.871094 48.167969 L 45.871094 48.617188 L 43.707031 48.617188 L 43.707031 48.164062 Z M 43.703125 48.164062 " fill-opacity="1" fill-rule="nonzero"/><path fill="#b52372" d="M 49.636719 45 L 49.246094 44.789062 L 49.246094 44.386719 L 50.542969 44.085938 L 50.71875 44.15625 L 50.71875 46.898438 C 50.71875 47.089844 50.726562 47.257812 50.75 47.40625 C 50.769531 47.546875 50.808594 47.667969 50.859375 47.765625 C 50.914062 47.855469 50.984375 47.925781 51.078125 47.976562 C 51.167969 48.019531 51.289062 48.046875 51.429688 48.046875 C 51.519531 48.046875 51.605469 48.039062 51.699219 48.015625 C 51.789062 48 51.871094 47.972656 51.953125 47.941406 C 52.03125 47.910156 52.097656 47.878906 52.160156 47.839844 C 52.222656 47.804688 52.269531 47.769531 52.304688 47.734375 L 52.304688 45.054688 L 51.808594 44.84375 L 51.808594 44.390625 L 53.234375 44.089844 L 53.402344 44.15625 L 53.402344 48.167969 L 53.859375 48.167969 L 53.859375 48.539062 C 53.816406 48.566406 53.761719 48.589844 53.691406 48.613281 C 53.621094 48.640625 53.542969 48.664062 53.453125 48.679688 C 53.367188 48.699219 53.277344 48.710938 53.179688 48.722656 C 53.085938 48.734375 52.996094 48.742188 52.90625 48.742188 C 52.761719 48.742188 52.640625 48.710938 52.546875 48.648438 C 52.457031 48.585938 52.40625 48.484375 52.40625 48.347656 L 52.40625 48.121094 C 52.3125 48.214844 52.210938 48.300781 52.097656 48.375 C 51.984375 48.449219 51.863281 48.511719 51.742188 48.558594 C 51.621094 48.613281 51.5 48.648438 51.378906 48.675781 C 51.257812 48.703125 51.144531 48.714844 51.039062 48.714844 C 50.75 48.714844 50.511719 48.675781 50.332031 48.601562 C 50.148438 48.519531 50.003906 48.410156 49.902344 48.257812 C 49.796875 48.109375 49.726562 47.921875 49.691406 47.707031 C 49.648438 47.488281 49.632812 47.238281 49.632812 46.953125 L 49.632812 45 Z M 49.636719 45 " fill-opacity="1" fill-rule="nonzero"/><path fill="#b52372" d="M 54.578125 48.164062 L 55.089844 48.070312 L 55.089844 45.207031 L 54.539062 44.855469 L 54.539062 44.472656 L 55.828125 44.085938 L 56.066406 44.167969 L 56.066406 44.738281 C 56.148438 44.65625 56.25 44.578125 56.367188 44.5 C 56.480469 44.421875 56.605469 44.351562 56.738281 44.292969 C 56.871094 44.234375 57.007812 44.183594 57.144531 44.148438 C 57.285156 44.109375 57.421875 44.085938 57.558594 44.082031 C 57.699219 44.074219 57.832031 44.078125 57.960938 44.09375 C 58.089844 44.113281 58.203125 44.144531 58.308594 44.1875 C 58.414062 44.234375 58.511719 44.300781 58.59375 44.378906 C 58.675781 44.457031 58.742188 44.558594 58.796875 44.679688 C 58.882812 44.605469 58.984375 44.535156 59.097656 44.460938 C 59.207031 44.390625 59.332031 44.328125 59.457031 44.273438 C 59.585938 44.214844 59.722656 44.171875 59.863281 44.140625 C 60.007812 44.105469 60.152344 44.085938 60.300781 44.085938 C 60.558594 44.082031 60.773438 44.121094 60.953125 44.199219 C 61.128906 44.277344 61.273438 44.390625 61.390625 44.546875 C 61.503906 44.703125 61.582031 44.902344 61.636719 45.140625 C 61.691406 45.378906 61.710938 45.65625 61.710938 45.972656 L 61.710938 48.058594 L 62.316406 48.15625 L 62.316406 48.609375 L 60.097656 48.609375 L 60.097656 48.15625 L 60.59375 48.058594 L 60.59375 46.125 C 60.59375 45.875 60.582031 45.660156 60.554688 45.5 C 60.527344 45.332031 60.480469 45.199219 60.414062 45.101562 C 60.347656 45.003906 60.257812 44.933594 60.144531 44.894531 C 60.027344 44.855469 59.890625 44.839844 59.71875 44.84375 C 59.589844 44.847656 59.457031 44.875 59.320312 44.917969 C 59.183594 44.960938 59.054688 45.023438 58.9375 45.105469 C 58.953125 45.191406 58.96875 45.300781 58.980469 45.421875 C 58.988281 45.546875 59 45.703125 59 45.886719 L 59 48.066406 L 59.578125 48.164062 L 59.578125 48.613281 L 57.308594 48.613281 L 57.308594 48.164062 L 57.882812 48.058594 L 57.882812 46.085938 C 57.882812 45.835938 57.863281 45.625 57.832031 45.460938 C 57.800781 45.300781 57.75 45.171875 57.671875 45.078125 C 57.597656 44.984375 57.503906 44.917969 57.386719 44.882812 C 57.265625 44.847656 57.125 44.839844 56.957031 44.847656 C 56.910156 44.851562 56.851562 44.859375 56.789062 44.878906 C 56.726562 44.890625 56.660156 44.914062 56.59375 44.9375 C 56.527344 44.957031 56.460938 44.988281 56.398438 45.023438 C 56.332031 45.058594 56.269531 45.101562 56.214844 45.140625 L 56.214844 46.222656 C 56.214844 46.277344 56.214844 46.347656 56.214844 46.4375 C 56.214844 46.523438 56.214844 46.621094 56.214844 46.734375 C 56.214844 46.839844 56.214844 46.953125 56.214844 47.078125 C 56.214844 47.199219 56.214844 47.316406 56.214844 47.4375 C 56.214844 47.554688 56.214844 47.671875 56.214844 47.777344 C 56.214844 47.886719 56.214844 47.984375 56.214844 48.070312 L 56.761719 48.167969 L 56.761719 48.617188 L 54.582031 48.617188 L 54.582031 48.164062 Z M 54.578125 48.164062 " fill-opacity="1" fill-rule="nonzero"/><path fill="#b52372" d="M 62.914062 47.179688 C 62.945312 47.011719 63.007812 46.867188 63.113281 46.738281 C 63.214844 46.609375 63.335938 46.5 63.488281 46.40625 C 63.632812 46.3125 63.796875 46.234375 63.976562 46.167969 C 64.15625 46.101562 64.335938 46.050781 64.511719 46.011719 C 64.691406 45.972656 64.867188 45.945312 65.035156 45.925781 C 65.203125 45.910156 65.347656 45.902344 65.476562 45.902344 L 65.476562 45.75 C 65.476562 45.542969 65.453125 45.375 65.410156 45.242188 C 65.367188 45.109375 65.300781 45.007812 65.21875 44.933594 C 65.136719 44.855469 65.039062 44.808594 64.921875 44.78125 C 64.808594 44.753906 64.679688 44.742188 64.539062 44.742188 C 64.40625 44.742188 64.277344 44.753906 64.15625 44.777344 C 64.03125 44.800781 63.917969 44.824219 63.804688 44.855469 C 63.699219 44.886719 63.601562 44.921875 63.515625 44.960938 C 63.425781 45.003906 63.355469 45.035156 63.296875 45.070312 L 63.085938 44.570312 C 63.152344 44.515625 63.246094 44.457031 63.367188 44.402344 C 63.492188 44.34375 63.632812 44.292969 63.792969 44.246094 C 63.953125 44.203125 64.128906 44.160156 64.320312 44.136719 C 64.507812 44.105469 64.703125 44.089844 64.90625 44.089844 C 65.144531 44.089844 65.371094 44.113281 65.578125 44.160156 C 65.785156 44.207031 65.964844 44.289062 66.117188 44.40625 C 66.269531 44.519531 66.390625 44.679688 66.476562 44.878906 C 66.5625 45.078125 66.601562 45.328125 66.601562 45.640625 L 66.597656 48.167969 L 67.105469 48.167969 L 67.105469 48.515625 C 67.050781 48.550781 66.984375 48.582031 66.90625 48.609375 C 66.832031 48.636719 66.757812 48.65625 66.679688 48.671875 C 66.597656 48.6875 66.519531 48.699219 66.433594 48.707031 C 66.355469 48.710938 66.277344 48.714844 66.199219 48.714844 C 66.152344 48.714844 66.089844 48.710938 66.023438 48.703125 C 65.957031 48.691406 65.890625 48.671875 65.824219 48.644531 C 65.761719 48.613281 65.710938 48.570312 65.660156 48.511719 C 65.617188 48.453125 65.59375 48.375 65.59375 48.273438 L 65.59375 48.238281 C 65.460938 48.371094 65.296875 48.484375 65.101562 48.578125 C 64.902344 48.671875 64.664062 48.71875 64.378906 48.71875 C 64.097656 48.71875 63.855469 48.679688 63.652344 48.589844 C 63.449219 48.507812 63.285156 48.390625 63.164062 48.25 C 63.042969 48.109375 62.960938 47.945312 62.921875 47.757812 C 62.878906 47.574219 62.875 47.382812 62.914062 47.179688 Z M 64.019531 47.316406 C 64.019531 47.601562 64.09375 47.800781 64.246094 47.917969 C 64.402344 48.039062 64.617188 48.085938 64.90625 48.066406 C 65.019531 48.054688 65.121094 48.023438 65.214844 47.972656 C 65.308594 47.917969 65.390625 47.867188 65.472656 47.804688 C 65.472656 47.574219 65.472656 47.34375 65.472656 47.113281 C 65.472656 46.882812 65.472656 46.652344 65.472656 46.421875 C 65.378906 46.421875 65.277344 46.425781 65.167969 46.441406 C 65.054688 46.449219 64.949219 46.472656 64.839844 46.492188 C 64.734375 46.519531 64.628906 46.554688 64.53125 46.601562 C 64.433594 46.644531 64.34375 46.703125 64.269531 46.769531 C 64.195312 46.835938 64.132812 46.914062 64.085938 47.003906 C 64.039062 47.089844 64.019531 47.199219 64.019531 47.316406 Z M 64.019531 47.316406 " fill-opacity="1" fill-rule="nonzero"/><path fill="#b52372" d="M 67.664062 48.164062 L 68.175781 48.070312 L 68.175781 45.203125 L 67.628906 44.851562 L 67.628906 44.46875 L 68.910156 44.082031 L 69.152344 44.160156 L 69.152344 44.734375 C 69.25 44.644531 69.359375 44.558594 69.488281 44.480469 C 69.617188 44.402344 69.753906 44.335938 69.894531 44.277344 C 70.035156 44.21875 70.1875 44.171875 70.335938 44.140625 C 70.488281 44.105469 70.632812 44.085938 70.777344 44.085938 C 71.027344 44.082031 71.234375 44.121094 71.402344 44.199219 C 71.570312 44.273438 71.703125 44.386719 71.804688 44.539062 C 71.90625 44.6875 71.976562 44.878906 72.019531 45.109375 C 72.0625 45.335938 72.082031 45.601562 72.082031 45.90625 L 72.082031 48.074219 L 72.667969 48.167969 L 72.667969 48.617188 L 70.386719 48.617188 L 70.386719 48.167969 L 70.960938 48.066406 L 70.960938 46.066406 C 70.960938 45.839844 70.949219 45.652344 70.929688 45.492188 C 70.90625 45.339844 70.867188 45.210938 70.804688 45.117188 C 70.742188 45.019531 70.660156 44.953125 70.546875 44.914062 C 70.4375 44.875 70.292969 44.855469 70.109375 44.855469 C 70.0625 44.859375 70 44.867188 69.933594 44.878906 C 69.867188 44.890625 69.796875 44.910156 69.722656 44.933594 C 69.648438 44.953125 69.578125 44.984375 69.5 45.019531 C 69.425781 45.054688 69.359375 45.09375 69.296875 45.140625 L 69.296875 48.070312 L 69.828125 48.167969 L 69.828125 48.617188 L 67.667969 48.617188 L 67.667969 48.164062 Z M 67.664062 48.164062 " fill-opacity="1" fill-rule="nonzero"/><path fill="#b52372" d="M 43.765625 57.265625 L 44.316406 57.171875 L 44.316406 54.308594 L 43.769531 53.960938 L 43.769531 53.574219 L 45.050781 53.1875 L 45.289062 53.265625 L 45.289062 53.96875 C 45.328125 53.863281 45.394531 53.761719 45.492188 53.664062 C 45.589844 53.570312 45.695312 53.484375 45.816406 53.414062 C 45.933594 53.34375 46.054688 53.289062 46.179688 53.25 C 46.304688 53.210938 46.421875 53.1875 46.515625 53.1875 C 46.605469 53.1875 46.691406 53.195312 46.765625 53.199219 C 46.839844 53.203125 46.894531 53.214844 46.921875 53.230469 L 46.921875 54.285156 C 46.847656 54.238281 46.746094 54.199219 46.625 54.167969 C 46.5 54.136719 46.371094 54.121094 46.238281 54.121094 C 46.128906 54.121094 46.03125 54.128906 45.945312 54.140625 C 45.863281 54.152344 45.789062 54.171875 45.722656 54.195312 C 45.65625 54.214844 45.597656 54.238281 45.554688 54.261719 C 45.511719 54.28125 45.46875 54.304688 45.4375 54.328125 L 45.4375 57.144531 L 46.445312 57.265625 L 46.445312 57.714844 L 43.765625 57.714844 Z M 43.765625 57.265625 " fill-opacity="1" fill-rule="nonzero"/><path fill="#b52372" d="M 47.425781 55.574219 C 47.425781 55.238281 47.480469 54.921875 47.589844 54.632812 C 47.695312 54.339844 47.851562 54.085938 48.054688 53.871094 C 48.257812 53.65625 48.5 53.484375 48.785156 53.363281 C 49.070312 53.238281 49.390625 53.171875 49.742188 53.171875 C 50.023438 53.167969 50.269531 53.207031 50.480469 53.28125 C 50.691406 53.363281 50.863281 53.472656 51.007812 53.613281 C 51.148438 53.753906 51.253906 53.933594 51.328125 54.136719 C 51.402344 54.339844 51.445312 54.566406 51.457031 54.816406 C 51.460938 54.984375 51.457031 55.128906 51.445312 55.253906 C 51.429688 55.378906 51.417969 55.496094 51.402344 55.597656 L 48.574219 55.597656 C 48.574219 55.605469 48.574219 55.609375 48.574219 55.617188 C 48.574219 55.621094 48.574219 55.632812 48.574219 55.636719 C 48.59375 55.90625 48.636719 56.136719 48.714844 56.328125 C 48.789062 56.515625 48.886719 56.671875 49.007812 56.792969 C 49.132812 56.910156 49.273438 57 49.433594 57.050781 C 49.59375 57.105469 49.765625 57.136719 49.945312 57.136719 C 50.042969 57.136719 50.144531 57.132812 50.253906 57.117188 C 50.367188 57.109375 50.472656 57.09375 50.578125 57.070312 C 50.683594 57.046875 50.785156 57.019531 50.886719 56.988281 C 50.988281 56.960938 51.078125 56.921875 51.164062 56.878906 L 51.347656 57.304688 C 51.257812 57.378906 51.144531 57.449219 51.011719 57.515625 C 50.878906 57.582031 50.730469 57.636719 50.574219 57.679688 C 50.414062 57.726562 50.25 57.761719 50.074219 57.78125 C 49.898438 57.804688 49.726562 57.816406 49.550781 57.8125 C 49.210938 57.808594 48.910156 57.753906 48.648438 57.648438 C 48.382812 57.542969 48.160156 57.398438 47.980469 57.203125 C 47.796875 57.011719 47.660156 56.777344 47.570312 56.503906 C 47.472656 56.234375 47.425781 55.921875 47.425781 55.574219 Z M 50.335938 55.035156 C 50.34375 54.917969 50.347656 54.804688 50.351562 54.679688 C 50.355469 54.554688 50.347656 54.441406 50.332031 54.328125 C 50.3125 54.210938 50.28125 54.109375 50.238281 54.011719 C 50.191406 53.917969 50.121094 53.839844 50.035156 53.777344 C 49.976562 53.742188 49.914062 53.710938 49.839844 53.6875 C 49.765625 53.667969 49.679688 53.65625 49.589844 53.65625 C 49.433594 53.65625 49.296875 53.695312 49.179688 53.765625 C 49.066406 53.835938 48.964844 53.933594 48.886719 54.054688 C 48.804688 54.179688 48.738281 54.328125 48.691406 54.496094 C 48.640625 54.664062 48.613281 54.839844 48.59375 55.03125 L 50.335938 55.03125 Z M 50.335938 55.035156 " fill-opacity="1" fill-rule="nonzero"/><path fill="#b52372" d="M 52.328125 56.480469 L 52.847656 56.480469 L 53.054688 56.9375 C 53.105469 56.980469 53.152344 57.027344 53.207031 57.070312 C 53.257812 57.113281 53.316406 57.152344 53.378906 57.1875 C 53.441406 57.226562 53.511719 57.253906 53.589844 57.28125 C 53.671875 57.308594 53.753906 57.320312 53.847656 57.328125 C 54.113281 57.339844 54.316406 57.296875 54.464844 57.1875 C 54.617188 57.082031 54.691406 56.929688 54.691406 56.726562 C 54.691406 56.632812 54.660156 56.550781 54.597656 56.476562 C 54.535156 56.40625 54.457031 56.335938 54.359375 56.273438 C 54.261719 56.210938 54.148438 56.148438 54.019531 56.085938 C 53.890625 56.03125 53.757812 55.96875 53.621094 55.902344 C 53.449219 55.820312 53.28125 55.734375 53.121094 55.640625 C 52.964844 55.546875 52.820312 55.441406 52.699219 55.320312 C 52.574219 55.203125 52.476562 55.070312 52.402344 54.917969 C 52.332031 54.769531 52.296875 54.597656 52.296875 54.402344 C 52.300781 54.253906 52.328125 54.121094 52.378906 54.003906 C 52.433594 53.886719 52.503906 53.78125 52.597656 53.6875 C 52.683594 53.597656 52.792969 53.519531 52.90625 53.453125 C 53.019531 53.386719 53.144531 53.335938 53.273438 53.296875 C 53.402344 53.25 53.535156 53.21875 53.667969 53.203125 C 53.796875 53.179688 53.925781 53.171875 54.050781 53.167969 C 54.191406 53.164062 54.332031 53.171875 54.46875 53.183594 C 54.605469 53.199219 54.738281 53.214844 54.863281 53.238281 C 54.988281 53.261719 55.101562 53.285156 55.207031 53.316406 C 55.3125 53.347656 55.398438 53.378906 55.46875 53.410156 L 55.46875 54.386719 L 54.933594 54.386719 L 54.730469 53.917969 C 54.660156 53.839844 54.570312 53.773438 54.46875 53.710938 C 54.367188 53.652344 54.246094 53.621094 54.101562 53.617188 C 54.011719 53.617188 53.917969 53.628906 53.832031 53.644531 C 53.75 53.664062 53.675781 53.695312 53.609375 53.734375 C 53.542969 53.773438 53.488281 53.828125 53.453125 53.886719 C 53.414062 53.949219 53.398438 54.023438 53.398438 54.109375 C 53.390625 54.210938 53.414062 54.300781 53.460938 54.378906 C 53.511719 54.460938 53.574219 54.535156 53.652344 54.601562 C 53.730469 54.667969 53.824219 54.730469 53.933594 54.785156 C 54.042969 54.84375 54.15625 54.902344 54.277344 54.960938 C 54.449219 55.039062 54.621094 55.117188 54.796875 55.199219 C 54.972656 55.277344 55.132812 55.375 55.273438 55.484375 C 55.414062 55.597656 55.53125 55.722656 55.625 55.871094 C 55.714844 56.019531 55.761719 56.199219 55.761719 56.40625 C 55.761719 56.648438 55.707031 56.863281 55.605469 57.035156 C 55.503906 57.210938 55.363281 57.351562 55.1875 57.464844 C 55.007812 57.574219 54.804688 57.660156 54.566406 57.710938 C 54.328125 57.765625 54.082031 57.792969 53.816406 57.792969 C 53.691406 57.792969 53.5625 57.78125 53.433594 57.769531 C 53.300781 57.753906 53.167969 57.734375 53.039062 57.707031 C 52.910156 57.679688 52.78125 57.644531 52.660156 57.601562 C 52.535156 57.554688 52.425781 57.503906 52.324219 57.445312 L 52.324219 56.480469 Z M 52.328125 56.480469 " fill-opacity="1" fill-rule="nonzero"/><path fill="#b52372" d="M 56.40625 55.464844 C 56.410156 55.082031 56.476562 54.746094 56.605469 54.460938 C 56.730469 54.171875 56.898438 53.933594 57.109375 53.742188 C 57.316406 53.550781 57.558594 53.410156 57.828125 53.3125 C 58.101562 53.214844 58.382812 53.167969 58.675781 53.164062 C 59.019531 53.15625 59.324219 53.210938 59.589844 53.3125 C 59.855469 53.414062 60.082031 53.566406 60.261719 53.761719 C 60.445312 53.953125 60.582031 54.195312 60.671875 54.472656 C 60.765625 54.75 60.816406 55.0625 60.816406 55.410156 C 60.808594 55.800781 60.75 56.140625 60.628906 56.4375 C 60.511719 56.734375 60.347656 56.984375 60.140625 57.1875 C 59.9375 57.394531 59.695312 57.546875 59.421875 57.652344 C 59.152344 57.761719 58.867188 57.8125 58.566406 57.8125 C 58.171875 57.8125 57.835938 57.75 57.558594 57.628906 C 57.28125 57.503906 57.054688 57.332031 56.882812 57.113281 C 56.710938 56.898438 56.582031 56.648438 56.507812 56.367188 C 56.4375 56.078125 56.398438 55.777344 56.40625 55.464844 Z M 58.613281 57.292969 C 58.8125 57.296875 58.980469 57.246094 59.113281 57.148438 C 59.246094 57.050781 59.347656 56.917969 59.425781 56.753906 C 59.503906 56.585938 59.554688 56.398438 59.585938 56.171875 C 59.617188 55.949219 59.628906 55.710938 59.628906 55.464844 C 59.628906 55.242188 59.613281 55.027344 59.582031 54.8125 C 59.550781 54.601562 59.5 54.410156 59.421875 54.242188 C 59.347656 54.074219 59.246094 53.9375 59.117188 53.835938 C 58.988281 53.730469 58.832031 53.675781 58.640625 53.675781 C 58.4375 53.671875 58.269531 53.71875 58.136719 53.808594 C 58.003906 53.902344 57.898438 54.023438 57.816406 54.179688 C 57.734375 54.335938 57.679688 54.519531 57.640625 54.730469 C 57.613281 54.9375 57.59375 55.15625 57.59375 55.386719 C 57.59375 55.527344 57.601562 55.667969 57.617188 55.8125 C 57.628906 55.960938 57.65625 56.105469 57.691406 56.246094 C 57.726562 56.386719 57.769531 56.519531 57.820312 56.648438 C 57.871094 56.777344 57.933594 56.886719 58.007812 56.980469 C 58.085938 57.078125 58.171875 57.152344 58.269531 57.210938 C 58.371094 57.265625 58.488281 57.292969 58.613281 57.292969 Z M 58.613281 57.292969 " fill-opacity="1" fill-rule="nonzero"/><path fill="#b52372" d="M 61.839844 54.101562 L 61.449219 53.894531 L 61.449219 53.488281 L 62.746094 53.1875 L 62.921875 53.261719 L 62.921875 56 C 62.921875 56.195312 62.929688 56.363281 62.953125 56.507812 C 62.972656 56.648438 63.011719 56.769531 63.0625 56.867188 C 63.117188 56.960938 63.1875 57.03125 63.28125 57.078125 C 63.371094 57.121094 63.492188 57.148438 63.632812 57.148438 C 63.722656 57.148438 63.808594 57.140625 63.902344 57.117188 C 63.992188 57.101562 64.074219 57.074219 64.15625 57.042969 C 64.234375 57.011719 64.300781 56.980469 64.363281 56.941406 C 64.425781 56.90625 64.472656 56.871094 64.507812 56.835938 L 64.507812 54.15625 L 64.011719 53.945312 L 64.011719 53.496094 L 65.4375 53.195312 L 65.605469 53.261719 L 65.605469 57.269531 L 66.0625 57.269531 L 66.0625 57.640625 C 66.019531 57.667969 65.964844 57.695312 65.894531 57.714844 C 65.824219 57.742188 65.746094 57.765625 65.65625 57.78125 C 65.570312 57.800781 65.480469 57.8125 65.382812 57.828125 C 65.289062 57.835938 65.199219 57.84375 65.109375 57.84375 C 64.964844 57.84375 64.84375 57.8125 64.75 57.75 C 64.660156 57.6875 64.609375 57.585938 64.609375 57.449219 L 64.609375 57.226562 C 64.515625 57.316406 64.414062 57.402344 64.300781 57.476562 C 64.1875 57.550781 64.066406 57.613281 63.949219 57.664062 C 63.824219 57.714844 63.703125 57.75 63.582031 57.777344 C 63.460938 57.804688 63.347656 57.816406 63.242188 57.816406 C 62.953125 57.816406 62.714844 57.777344 62.535156 57.703125 C 62.351562 57.628906 62.207031 57.511719 62.105469 57.363281 C 62 57.210938 61.929688 57.027344 61.894531 56.808594 C 61.851562 56.59375 61.835938 56.339844 61.835938 56.054688 L 61.835938 54.101562 Z M 61.839844 54.101562 " fill-opacity="1" fill-rule="nonzero"/><path fill="#b52372" d="M 66.738281 57.265625 L 67.292969 57.171875 L 67.292969 54.308594 L 66.746094 53.960938 L 66.746094 53.574219 L 68.027344 53.1875 L 68.265625 53.265625 L 68.265625 53.96875 C 68.304688 53.863281 68.371094 53.761719 68.46875 53.664062 C 68.566406 53.570312 68.671875 53.484375 68.789062 53.414062 C 68.910156 53.34375 69.027344 53.289062 69.15625 53.25 C 69.28125 53.210938 69.394531 53.1875 69.492188 53.1875 C 69.582031 53.1875 69.664062 53.195312 69.738281 53.199219 C 69.816406 53.203125 69.867188 53.214844 69.898438 53.230469 L 69.898438 54.285156 C 69.824219 54.238281 69.722656 54.199219 69.597656 54.167969 C 69.476562 54.136719 69.347656 54.121094 69.214844 54.121094 C 69.105469 54.121094 69.007812 54.128906 68.921875 54.140625 C 68.839844 54.152344 68.761719 54.171875 68.695312 54.195312 C 68.628906 54.214844 68.574219 54.238281 68.527344 54.261719 C 68.484375 54.28125 68.445312 54.304688 68.414062 54.328125 L 68.414062 57.144531 L 69.421875 57.265625 L 69.421875 57.714844 L 66.738281 57.714844 Z M 66.738281 57.265625 " fill-opacity="1" fill-rule="nonzero"/><path fill="#b52372" d="M 70.410156 55.617188 C 70.40625 55.246094 70.46875 54.910156 70.589844 54.609375 C 70.707031 54.3125 70.871094 54.054688 71.082031 53.847656 C 71.289062 53.640625 71.539062 53.476562 71.820312 53.363281 C 72.105469 53.246094 72.410156 53.183594 72.734375 53.171875 C 72.859375 53.167969 72.988281 53.171875 73.121094 53.179688 C 73.253906 53.1875 73.375 53.203125 73.496094 53.214844 C 73.613281 53.234375 73.726562 53.253906 73.820312 53.28125 C 73.917969 53.308594 74 53.339844 74.050781 53.375 L 74.050781 54.5 L 73.480469 54.5 L 73.21875 53.855469 C 73.136719 53.804688 73.042969 53.769531 72.9375 53.75 C 72.832031 53.734375 72.730469 53.722656 72.640625 53.722656 C 72.488281 53.722656 72.347656 53.753906 72.21875 53.820312 C 72.089844 53.886719 71.976562 53.984375 71.878906 54.113281 C 71.78125 54.242188 71.703125 54.402344 71.644531 54.589844 C 71.585938 54.78125 71.554688 55.003906 71.550781 55.25 C 71.542969 55.585938 71.578125 55.875 71.652344 56.113281 C 71.726562 56.351562 71.828125 56.546875 71.957031 56.703125 C 72.085938 56.855469 72.230469 56.96875 72.398438 57.039062 C 72.5625 57.109375 72.734375 57.144531 72.902344 57.144531 C 73.015625 57.144531 73.125 57.136719 73.234375 57.121094 C 73.34375 57.109375 73.449219 57.085938 73.554688 57.066406 C 73.65625 57.042969 73.742188 57.011719 73.820312 56.980469 C 73.902344 56.949219 73.96875 56.914062 74.019531 56.878906 L 74.199219 57.3125 C 74.105469 57.394531 74 57.464844 73.871094 57.527344 C 73.746094 57.585938 73.609375 57.640625 73.464844 57.683594 C 73.320312 57.730469 73.160156 57.761719 72.992188 57.78125 C 72.824219 57.804688 72.652344 57.816406 72.476562 57.816406 C 72.144531 57.816406 71.847656 57.761719 71.589844 57.648438 C 71.335938 57.539062 71.117188 57.382812 70.945312 57.1875 C 70.773438 56.996094 70.640625 56.765625 70.546875 56.496094 C 70.460938 56.226562 70.414062 55.933594 70.410156 55.617188 Z M 70.410156 55.617188 " fill-opacity="1" fill-rule="nonzero"/><path fill="#b52372" d="M 74.71875 55.574219 C 74.71875 55.238281 74.773438 54.921875 74.882812 54.632812 C 74.988281 54.339844 75.144531 54.085938 75.347656 53.871094 C 75.550781 53.65625 75.792969 53.484375 76.074219 53.363281 C 76.363281 53.238281 76.679688 53.171875 77.035156 53.171875 C 77.316406 53.167969 77.558594 53.207031 77.773438 53.28125 C 77.984375 53.363281 78.15625 53.472656 78.296875 53.613281 C 78.4375 53.753906 78.546875 53.933594 78.621094 54.136719 C 78.695312 54.339844 78.734375 54.566406 78.75 54.816406 C 78.753906 54.984375 78.75 55.128906 78.734375 55.253906 C 78.722656 55.378906 78.707031 55.496094 78.695312 55.597656 L 75.867188 55.597656 C 75.867188 55.605469 75.867188 55.609375 75.867188 55.617188 C 75.867188 55.621094 75.867188 55.632812 75.867188 55.636719 C 75.886719 55.90625 75.929688 56.136719 76.003906 56.328125 C 76.078125 56.515625 76.175781 56.671875 76.300781 56.792969 C 76.425781 56.910156 76.566406 57 76.726562 57.050781 C 76.882812 57.105469 77.054688 57.136719 77.238281 57.136719 C 77.335938 57.136719 77.4375 57.132812 77.546875 57.117188 C 77.65625 57.109375 77.761719 57.09375 77.871094 57.070312 C 77.976562 57.046875 78.078125 57.019531 78.179688 56.988281 C 78.28125 56.960938 78.367188 56.921875 78.457031 56.878906 L 78.636719 57.304688 C 78.550781 57.378906 78.433594 57.449219 78.300781 57.515625 C 78.167969 57.582031 78.023438 57.636719 77.863281 57.679688 C 77.707031 57.726562 77.542969 57.761719 77.367188 57.78125 C 77.1875 57.804688 77.015625 57.816406 76.84375 57.8125 C 76.503906 57.808594 76.203125 57.753906 75.9375 57.648438 C 75.671875 57.542969 75.453125 57.398438 75.269531 57.203125 C 75.089844 57.011719 74.953125 56.777344 74.859375 56.503906 C 74.761719 56.234375 74.71875 55.921875 74.71875 55.574219 Z M 77.625 55.035156 C 77.636719 54.917969 77.640625 54.804688 77.644531 54.679688 C 77.648438 54.554688 77.640625 54.441406 77.621094 54.328125 C 77.605469 54.210938 77.574219 54.109375 77.527344 54.011719 C 77.484375 53.917969 77.414062 53.839844 77.324219 53.777344 C 77.269531 53.742188 77.207031 53.710938 77.132812 53.6875 C 77.054688 53.667969 76.972656 53.65625 76.878906 53.65625 C 76.726562 53.65625 76.589844 53.695312 76.472656 53.765625 C 76.359375 53.835938 76.257812 53.933594 76.175781 54.054688 C 76.097656 54.179688 76.03125 54.328125 75.984375 54.496094 C 75.933594 54.664062 75.902344 54.839844 75.886719 55.03125 L 77.625 55.03125 Z M 77.625 55.035156 " fill-opacity="1" fill-rule="nonzero"/><path fill="#b52372" d="M 79.625 56.480469 L 80.144531 56.480469 L 80.351562 56.9375 C 80.402344 56.980469 80.449219 57.027344 80.503906 57.070312 C 80.554688 57.113281 80.613281 57.152344 80.675781 57.1875 C 80.738281 57.226562 80.808594 57.253906 80.886719 57.28125 C 80.964844 57.308594 81.050781 57.320312 81.144531 57.328125 C 81.410156 57.339844 81.613281 57.296875 81.761719 57.1875 C 81.914062 57.082031 81.988281 56.929688 81.988281 56.726562 C 81.988281 56.632812 81.957031 56.550781 81.894531 56.476562 C 81.832031 56.40625 81.753906 56.335938 81.65625 56.273438 C 81.558594 56.210938 81.445312 56.148438 81.316406 56.085938 C 81.1875 56.03125 81.054688 55.96875 80.917969 55.902344 C 80.746094 55.820312 80.578125 55.734375 80.417969 55.640625 C 80.257812 55.546875 80.117188 55.441406 79.996094 55.320312 C 79.871094 55.203125 79.773438 55.070312 79.699219 54.917969 C 79.628906 54.769531 79.59375 54.597656 79.59375 54.402344 C 79.597656 54.253906 79.625 54.121094 79.675781 54.003906 C 79.730469 53.886719 79.800781 53.78125 79.894531 53.6875 C 79.980469 53.597656 80.085938 53.519531 80.203125 53.453125 C 80.316406 53.386719 80.441406 53.335938 80.570312 53.296875 C 80.695312 53.25 80.828125 53.21875 80.960938 53.203125 C 81.09375 53.179688 81.222656 53.171875 81.347656 53.167969 C 81.488281 53.164062 81.628906 53.171875 81.765625 53.183594 C 81.902344 53.199219 82.035156 53.214844 82.160156 53.238281 C 82.285156 53.261719 82.398438 53.285156 82.503906 53.316406 C 82.609375 53.347656 82.695312 53.378906 82.765625 53.410156 L 82.765625 54.386719 L 82.230469 54.386719 L 82.027344 53.917969 C 81.957031 53.839844 81.867188 53.773438 81.765625 53.710938 C 81.664062 53.652344 81.542969 53.621094 81.398438 53.617188 C 81.308594 53.617188 81.214844 53.628906 81.128906 53.644531 C 81.046875 53.664062 80.972656 53.695312 80.90625 53.734375 C 80.839844 53.773438 80.785156 53.828125 80.75 53.886719 C 80.710938 53.949219 80.691406 54.023438 80.691406 54.109375 C 80.6875 54.210938 80.710938 54.300781 80.757812 54.378906 C 80.808594 54.460938 80.871094 54.535156 80.949219 54.601562 C 81.027344 54.667969 81.121094 54.730469 81.230469 54.785156 C 81.335938 54.84375 81.453125 54.902344 81.570312 54.960938 C 81.746094 55.039062 81.917969 55.117188 82.09375 55.199219 C 82.269531 55.277344 82.429688 55.375 82.570312 55.484375 C 82.710938 55.597656 82.828125 55.722656 82.917969 55.871094 C 83.011719 56.019531 83.054688 56.199219 83.054688 56.40625 C 83.054688 56.648438 83.003906 56.863281 82.902344 57.035156 C 82.800781 57.210938 82.660156 57.351562 82.480469 57.464844 C 82.304688 57.574219 82.101562 57.660156 81.863281 57.710938 C 81.628906 57.765625 81.378906 57.792969 81.113281 57.792969 C 80.988281 57.792969 80.859375 57.78125 80.726562 57.769531 C 80.59375 57.753906 80.464844 57.734375 80.335938 57.707031 C 80.207031 57.679688 80.078125 57.644531 79.953125 57.601562 C 79.832031 57.554688 79.722656 57.503906 79.617188 57.445312 L 79.617188 56.480469 Z M 79.625 56.480469 " fill-opacity="1" fill-rule="nonzero"/><path fill="#b52372" d="M 43.867188 65.582031 L 44.386719 65.582031 L 44.59375 66.039062 C 44.644531 66.082031 44.691406 66.128906 44.746094 66.171875 C 44.796875 66.214844 44.855469 66.257812 44.917969 66.292969 C 44.980469 66.328125 45.050781 66.359375 45.128906 66.382812 C 45.210938 66.410156 45.292969 66.425781 45.386719 66.429688 C 45.652344 66.441406 45.855469 66.398438 46.003906 66.292969 C 46.15625 66.183594 46.230469 66.03125 46.230469 65.828125 C 46.230469 65.734375 46.199219 65.65625 46.136719 65.578125 C 46.074219 65.507812 45.996094 65.4375 45.898438 65.375 C 45.800781 65.3125 45.6875 65.25 45.558594 65.191406 C 45.429688 65.132812 45.296875 65.070312 45.160156 65.003906 C 44.988281 64.925781 44.820312 64.835938 44.660156 64.742188 C 44.503906 64.648438 44.359375 64.542969 44.238281 64.425781 C 44.113281 64.304688 44.015625 64.171875 43.941406 64.023438 C 43.871094 63.871094 43.835938 63.699219 43.835938 63.503906 C 43.839844 63.359375 43.867188 63.226562 43.917969 63.105469 C 43.972656 62.992188 44.042969 62.882812 44.136719 62.792969 C 44.222656 62.699219 44.332031 62.625 44.445312 62.558594 C 44.558594 62.492188 44.683594 62.4375 44.8125 62.398438 C 44.941406 62.359375 45.074219 62.324219 45.203125 62.304688 C 45.335938 62.28125 45.464844 62.273438 45.589844 62.269531 C 45.730469 62.265625 45.871094 62.273438 46.007812 62.285156 C 46.144531 62.300781 46.277344 62.316406 46.402344 62.339844 C 46.527344 62.363281 46.640625 62.390625 46.746094 62.417969 C 46.851562 62.449219 46.9375 62.480469 47.007812 62.511719 L 47.007812 63.492188 L 46.476562 63.492188 L 46.273438 63.023438 C 46.203125 62.941406 46.113281 62.875 46.011719 62.8125 C 45.910156 62.757812 45.789062 62.726562 45.648438 62.71875 C 45.554688 62.71875 45.460938 62.730469 45.378906 62.746094 C 45.292969 62.765625 45.21875 62.796875 45.152344 62.835938 C 45.085938 62.875 45.03125 62.929688 44.996094 62.992188 C 44.957031 63.050781 44.941406 63.128906 44.941406 63.210938 C 44.933594 63.3125 44.957031 63.402344 45.007812 63.480469 C 45.054688 63.5625 45.117188 63.636719 45.195312 63.703125 C 45.277344 63.769531 45.367188 63.832031 45.480469 63.890625 C 45.585938 63.945312 45.699219 64.003906 45.820312 64.0625 C 45.992188 64.140625 46.164062 64.222656 46.339844 64.300781 C 46.515625 64.378906 46.675781 64.476562 46.816406 64.589844 C 46.960938 64.699219 47.074219 64.828125 47.167969 64.976562 C 47.257812 65.128906 47.304688 65.304688 47.304688 65.511719 C 47.304688 65.757812 47.25 65.96875 47.148438 66.140625 C 47.046875 66.316406 46.90625 66.460938 46.730469 66.570312 C 46.550781 66.679688 46.347656 66.765625 46.109375 66.816406 C 45.875 66.871094 45.625 66.898438 45.359375 66.898438 C 45.234375 66.898438 45.109375 66.890625 44.976562 66.875 C 44.84375 66.863281 44.710938 66.839844 44.582031 66.8125 C 44.453125 66.789062 44.324219 66.75 44.203125 66.707031 C 44.078125 66.664062 43.96875 66.609375 43.867188 66.554688 Z M 43.867188 65.582031 " fill-opacity="1" fill-rule="nonzero"/><path fill="#b52372" d="M 47.941406 64.722656 C 47.933594 64.34375 47.996094 64.011719 48.117188 63.710938 C 48.234375 63.414062 48.398438 63.160156 48.613281 62.949219 C 48.820312 62.742188 49.066406 62.578125 49.347656 62.464844 C 49.632812 62.347656 49.9375 62.285156 50.265625 62.273438 C 50.386719 62.269531 50.515625 62.273438 50.648438 62.28125 C 50.78125 62.292969 50.90625 62.304688 51.023438 62.316406 C 51.144531 62.335938 51.253906 62.359375 51.351562 62.382812 C 51.449219 62.410156 51.527344 62.441406 51.582031 62.476562 L 51.582031 63.601562 L 51.011719 63.601562 L 50.746094 62.960938 C 50.664062 62.90625 50.574219 62.871094 50.46875 62.851562 C 50.359375 62.835938 50.257812 62.828125 50.171875 62.828125 C 50.015625 62.828125 49.875 62.859375 49.746094 62.925781 C 49.617188 62.992188 49.503906 63.089844 49.40625 63.214844 C 49.308594 63.34375 49.230469 63.503906 49.171875 63.695312 C 49.113281 63.882812 49.085938 64.105469 49.078125 64.351562 C 49.070312 64.691406 49.105469 64.976562 49.179688 65.214844 C 49.257812 65.457031 49.359375 65.648438 49.484375 65.804688 C 49.613281 65.960938 49.761719 66.070312 49.929688 66.140625 C 50.097656 66.210938 50.265625 66.246094 50.433594 66.246094 C 50.542969 66.246094 50.652344 66.238281 50.761719 66.226562 C 50.875 66.210938 50.980469 66.191406 51.082031 66.167969 C 51.183594 66.144531 51.269531 66.113281 51.351562 66.082031 C 51.429688 66.054688 51.496094 66.015625 51.550781 65.980469 L 51.726562 66.414062 C 51.632812 66.496094 51.527344 66.566406 51.398438 66.628906 C 51.277344 66.691406 51.140625 66.742188 50.992188 66.789062 C 50.847656 66.832031 50.6875 66.863281 50.519531 66.882812 C 50.351562 66.90625 50.179688 66.921875 50.003906 66.921875 C 49.671875 66.921875 49.378906 66.867188 49.121094 66.757812 C 48.863281 66.644531 48.648438 66.496094 48.472656 66.296875 C 48.300781 66.101562 48.167969 65.871094 48.078125 65.601562 C 47.992188 65.328125 47.945312 65.035156 47.941406 64.722656 Z M 47.941406 64.722656 " fill-opacity="1" fill-rule="nonzero"/><path fill="#b52372" d="M 52.28125 66.367188 L 52.875 66.265625 L 52.875 63.476562 L 52.355469 63.03125 L 52.355469 62.714844 L 53.714844 62.296875 L 53.980469 62.382812 L 53.980469 66.273438 L 54.582031 66.367188 L 54.582031 66.816406 L 52.28125 66.816406 Z M 53.285156 61.496094 C 53.199219 61.496094 53.113281 61.480469 53.035156 61.449219 C 52.953125 61.417969 52.878906 61.378906 52.816406 61.328125 C 52.753906 61.273438 52.703125 61.207031 52.667969 61.128906 C 52.628906 61.050781 52.609375 60.964844 52.609375 60.867188 C 52.609375 60.761719 52.632812 60.660156 52.679688 60.566406 C 52.730469 60.472656 52.792969 60.394531 52.867188 60.328125 C 52.945312 60.261719 53.03125 60.207031 53.128906 60.167969 C 53.222656 60.128906 53.316406 60.109375 53.414062 60.109375 C 53.535156 60.109375 53.636719 60.128906 53.71875 60.164062 C 53.804688 60.199219 53.875 60.242188 53.925781 60.300781 C 53.984375 60.359375 54.023438 60.425781 54.050781 60.503906 C 54.078125 60.582031 54.089844 60.664062 54.089844 60.75 C 54.089844 60.867188 54.066406 60.96875 54.019531 61.0625 C 53.976562 61.152344 53.914062 61.234375 53.839844 61.296875 C 53.761719 61.363281 53.679688 61.410156 53.582031 61.445312 C 53.484375 61.476562 53.386719 61.496094 53.285156 61.496094 Z M 53.285156 61.496094 " fill-opacity="1" fill-rule="nonzero"/><path fill="#b52372" d="M 55.089844 64.675781 C 55.089844 64.339844 55.140625 64.027344 55.253906 63.734375 C 55.359375 63.441406 55.511719 63.191406 55.714844 62.972656 C 55.917969 62.757812 56.164062 62.589844 56.445312 62.464844 C 56.730469 62.339844 57.050781 62.273438 57.402344 62.273438 C 57.6875 62.269531 57.929688 62.308594 58.140625 62.382812 C 58.355469 62.464844 58.527344 62.574219 58.667969 62.714844 C 58.808594 62.859375 58.914062 63.035156 58.988281 63.238281 C 59.066406 63.441406 59.105469 63.667969 59.117188 63.917969 C 59.121094 64.089844 59.117188 64.230469 59.105469 64.359375 C 59.089844 64.480469 59.078125 64.597656 59.066406 64.699219 L 56.238281 64.699219 C 56.238281 64.707031 56.238281 64.710938 56.238281 64.722656 C 56.238281 64.726562 56.238281 64.734375 56.238281 64.738281 C 56.253906 65.007812 56.300781 65.238281 56.375 65.429688 C 56.449219 65.617188 56.546875 65.773438 56.671875 65.894531 C 56.792969 66.011719 56.9375 66.101562 57.09375 66.15625 C 57.253906 66.207031 57.425781 66.238281 57.605469 66.238281 C 57.703125 66.238281 57.804688 66.234375 57.917969 66.222656 C 58.027344 66.210938 58.132812 66.195312 58.238281 66.171875 C 58.34375 66.148438 58.445312 66.125 58.546875 66.09375 C 58.648438 66.0625 58.738281 66.027344 58.828125 65.980469 L 59.007812 66.40625 C 58.917969 66.480469 58.804688 66.554688 58.671875 66.621094 C 58.539062 66.683594 58.394531 66.738281 58.234375 66.78125 C 58.074219 66.828125 57.910156 66.863281 57.734375 66.882812 C 57.558594 66.90625 57.386719 66.921875 57.214844 66.914062 C 56.875 66.910156 56.574219 66.859375 56.308594 66.75 C 56.042969 66.644531 55.820312 66.5 55.640625 66.304688 C 55.460938 66.113281 55.324219 65.878906 55.230469 65.605469 C 55.136719 65.335938 55.089844 65.027344 55.089844 64.675781 Z M 57.996094 64.136719 C 58.003906 64.023438 58.007812 63.90625 58.011719 63.78125 C 58.019531 63.660156 58.007812 63.542969 57.992188 63.429688 C 57.972656 63.3125 57.941406 63.210938 57.898438 63.113281 C 57.855469 63.023438 57.785156 62.941406 57.695312 62.878906 C 57.636719 62.84375 57.578125 62.8125 57.5 62.792969 C 57.425781 62.769531 57.34375 62.761719 57.25 62.761719 C 57.09375 62.761719 56.957031 62.796875 56.84375 62.867188 C 56.726562 62.9375 56.625 63.035156 56.546875 63.160156 C 56.46875 63.28125 56.402344 63.429688 56.351562 63.597656 C 56.304688 63.765625 56.273438 63.941406 56.253906 64.132812 L 57.996094 64.132812 Z M 57.996094 64.136719 " fill-opacity="1" fill-rule="nonzero"/><path fill="#b52372" d="M 59.9375 66.367188 L 60.449219 66.273438 L 60.449219 63.40625 L 59.898438 63.058594 L 59.898438 62.671875 L 61.179688 62.285156 L 61.425781 62.367188 L 61.425781 62.9375 C 61.523438 62.847656 61.632812 62.765625 61.761719 62.683594 C 61.886719 62.605469 62.027344 62.539062 62.167969 62.480469 C 62.308594 62.425781 62.457031 62.378906 62.609375 62.34375 C 62.757812 62.308594 62.90625 62.292969 63.050781 62.292969 C 63.296875 62.285156 63.503906 62.328125 63.671875 62.402344 C 63.839844 62.476562 63.972656 62.59375 64.074219 62.742188 C 64.175781 62.894531 64.246094 63.082031 64.292969 63.3125 C 64.335938 63.542969 64.355469 63.804688 64.355469 64.109375 L 64.355469 66.277344 L 64.941406 66.371094 L 64.941406 66.824219 L 62.65625 66.824219 L 62.65625 66.371094 L 63.230469 66.269531 L 63.230469 64.265625 C 63.230469 64.039062 63.222656 63.851562 63.199219 63.695312 C 63.179688 63.539062 63.140625 63.410156 63.078125 63.316406 C 63.015625 63.21875 62.929688 63.15625 62.820312 63.113281 C 62.710938 63.074219 62.566406 63.050781 62.382812 63.058594 C 62.335938 63.0625 62.273438 63.066406 62.207031 63.078125 C 62.140625 63.09375 62.070312 63.109375 61.996094 63.132812 C 61.917969 63.15625 61.847656 63.183594 61.773438 63.21875 C 61.699219 63.257812 61.632812 63.296875 61.570312 63.339844 L 61.570312 66.269531 L 62.101562 66.367188 L 62.101562 66.816406 L 59.941406 66.816406 L 59.941406 66.367188 Z M 59.9375 66.367188 " fill-opacity="1" fill-rule="nonzero"/><path fill="#b52372" d="M 65.492188 64.722656 C 65.488281 64.34375 65.550781 64.011719 65.671875 63.710938 C 65.789062 63.414062 65.953125 63.160156 66.164062 62.949219 C 66.371094 62.742188 66.621094 62.578125 66.902344 62.464844 C 67.1875 62.347656 67.492188 62.285156 67.816406 62.273438 C 67.941406 62.269531 68.070312 62.273438 68.203125 62.28125 C 68.335938 62.292969 68.457031 62.304688 68.578125 62.316406 C 68.695312 62.335938 68.808594 62.359375 68.90625 62.382812 C 69 62.410156 69.082031 62.441406 69.132812 62.476562 L 69.132812 63.601562 L 68.566406 63.601562 L 68.300781 62.960938 C 68.21875 62.90625 68.128906 62.871094 68.019531 62.851562 C 67.914062 62.835938 67.8125 62.828125 67.726562 62.828125 C 67.570312 62.828125 67.429688 62.859375 67.300781 62.925781 C 67.171875 62.992188 67.058594 63.089844 66.960938 63.214844 C 66.863281 63.34375 66.785156 63.503906 66.726562 63.695312 C 66.667969 63.882812 66.636719 64.105469 66.632812 64.351562 C 66.625 64.691406 66.660156 64.976562 66.734375 65.214844 C 66.808594 65.457031 66.910156 65.648438 67.039062 65.804688 C 67.167969 65.960938 67.3125 66.070312 67.480469 66.140625 C 67.648438 66.210938 67.816406 66.246094 67.984375 66.246094 C 68.097656 66.246094 68.207031 66.238281 68.316406 66.226562 C 68.425781 66.210938 68.535156 66.191406 68.636719 66.167969 C 68.738281 66.144531 68.824219 66.113281 68.90625 66.082031 C 68.984375 66.054688 69.050781 66.015625 69.105469 65.980469 L 69.28125 66.414062 C 69.1875 66.496094 69.082031 66.566406 68.953125 66.628906 C 68.828125 66.691406 68.691406 66.742188 68.546875 66.789062 C 68.402344 66.832031 68.242188 66.863281 68.074219 66.882812 C 67.90625 66.90625 67.734375 66.921875 67.558594 66.921875 C 67.226562 66.921875 66.933594 66.867188 66.671875 66.757812 C 66.417969 66.644531 66.199219 66.496094 66.027344 66.296875 C 65.855469 66.101562 65.722656 65.871094 65.628906 65.601562 C 65.542969 65.328125 65.492188 65.035156 65.492188 64.722656 Z M 65.492188 64.722656 " fill-opacity="1" fill-rule="nonzero"/><path fill="#b52372" d="M 69.800781 64.675781 C 69.800781 64.339844 69.855469 64.027344 69.964844 63.734375 C 70.070312 63.441406 70.226562 63.191406 70.429688 62.972656 C 70.632812 62.757812 70.875 62.589844 71.15625 62.464844 C 71.445312 62.339844 71.761719 62.273438 72.117188 62.273438 C 72.398438 62.269531 72.644531 62.308594 72.855469 62.382812 C 73.066406 62.464844 73.238281 62.574219 73.378906 62.714844 C 73.523438 62.859375 73.628906 63.035156 73.703125 63.238281 C 73.777344 63.441406 73.816406 63.667969 73.832031 63.917969 C 73.835938 64.089844 73.832031 64.230469 73.816406 64.359375 C 73.804688 64.480469 73.792969 64.597656 73.777344 64.699219 L 70.949219 64.699219 C 70.949219 64.707031 70.949219 64.710938 70.949219 64.722656 C 70.949219 64.726562 70.949219 64.734375 70.949219 64.738281 C 70.96875 65.007812 71.011719 65.238281 71.085938 65.429688 C 71.164062 65.617188 71.257812 65.773438 71.382812 65.894531 C 71.507812 66.011719 71.648438 66.101562 71.808594 66.15625 C 71.964844 66.207031 72.140625 66.238281 72.320312 66.238281 C 72.417969 66.238281 72.519531 66.234375 72.628906 66.222656 C 72.738281 66.210938 72.847656 66.195312 72.953125 66.171875 C 73.058594 66.148438 73.160156 66.125 73.261719 66.09375 C 73.363281 66.0625 73.449219 66.027344 73.539062 65.980469 L 73.71875 66.40625 C 73.632812 66.480469 73.515625 66.554688 73.386719 66.621094 C 73.253906 66.683594 73.105469 66.738281 72.949219 66.78125 C 72.789062 66.828125 72.625 66.863281 72.449219 66.882812 C 72.269531 66.90625 72.097656 66.921875 71.925781 66.914062 C 71.585938 66.910156 71.285156 66.859375 71.019531 66.75 C 70.757812 66.644531 70.535156 66.5 70.355469 66.304688 C 70.171875 66.113281 70.035156 65.878906 69.941406 65.605469 C 69.847656 65.335938 69.800781 65.027344 69.800781 64.675781 Z M 72.707031 64.136719 C 72.71875 64.023438 72.722656 63.90625 72.726562 63.78125 C 72.730469 63.660156 72.722656 63.542969 72.703125 63.429688 C 72.6875 63.3125 72.65625 63.210938 72.613281 63.113281 C 72.566406 63.023438 72.496094 62.941406 72.410156 62.878906 C 72.351562 62.84375 72.289062 62.8125 72.214844 62.792969 C 72.140625 62.769531 72.054688 62.761719 71.960938 62.761719 C 71.808594 62.761719 71.671875 62.796875 71.554688 62.867188 C 71.441406 62.9375 71.339844 63.035156 71.257812 63.160156 C 71.179688 63.28125 71.113281 63.429688 71.066406 63.597656 C 71.015625 63.765625 70.984375 63.941406 70.96875 64.132812 L 72.707031 64.132812 Z M 72.707031 64.136719 " fill-opacity="1" fill-rule="nonzero"/></svg>