<svg xmlns="http://www.w3.org/2000/svg" xmlns:xlink="http://www.w3.org/1999/xlink" width="220" zoomAndPan="magnify" viewBox="0 0 165 82.499998" height="110" preserveAspectRatio="xMidYMid meet" version="1.0"><defs><clipPath id="5e0c49b0d4"><path d="M 0.496094 0 L 164.503906 0 L 164.503906 82.003906 L 0.496094 82.003906 Z M 0.496094 0 " clip-rule="nonzero"/></clipPath><clipPath id="6f0cfeafdb"><path d="M 144 30 L 156.300781 30 L 156.300781 51 L 144 51 Z M 144 30 " clip-rule="nonzero"/></clipPath><clipPath id="0656396801"><path d="M 8.699219 27.996094 L 40 27.996094 L 40 50 L 8.699219 50 Z M 8.699219 27.996094 " clip-rule="nonzero"/></clipPath><clipPath id="43905287ed"><path d="M 74 34 L 92 34 L 92 54.089844 L 74 54.089844 Z M 74 34 " clip-rule="nonzero"/></clipPath></defs><g clip-path="url(#5e0c49b0d4)"><path fill="#ffffff" d="M 0.496094 0 L 164.503906 0 L 164.503906 89.457031 L 0.496094 89.457031 Z M 0.496094 0 " fill-opacity="1" fill-rule="nonzero"/><path fill="#ffffff" d="M 0.496094 0 L 164.503906 0 L 164.503906 82.003906 L 0.496094 82.003906 Z M 0.496094 0 " fill-opacity="1" fill-rule="nonzero"/></g><path fill="#000000" d="M 50.175781 36.929688 C 49.996094 36.613281 49.78125 36.316406 49.53125 36.050781 C 49.054688 35.535156 48.476562 35.121094 47.835938 34.832031 C 47.179688 34.53125 46.46875 34.375 45.746094 34.375 C 44.710938 34.351562 43.695312 34.632812 42.820312 35.1875 C 41.929688 35.792969 41.25 36.664062 40.871094 37.675781 C 40.371094 39.003906 40.132812 40.414062 40.175781 41.832031 L 40.175781 42.753906 C 40.132812 44.167969 40.359375 45.578125 40.84375 46.910156 C 41.203125 47.910156 41.867188 48.773438 42.738281 49.378906 C 43.613281 49.933594 44.632812 50.210938 45.664062 50.183594 C 46.390625 50.1875 47.105469 50.035156 47.769531 49.738281 C 48.421875 49.449219 49.011719 49.035156 49.507812 48.519531 C 49.753906 48.265625 49.976562 47.988281 50.167969 47.691406 L 50.167969 49.761719 L 56.675781 49.761719 L 56.675781 34.796875 L 50.167969 34.796875 Z M 50.339844 42.628906 C 50.351562 43.265625 50.285156 43.898438 50.144531 44.519531 C 50.058594 44.933594 49.863281 45.320312 49.578125 45.632812 C 49.453125 45.753906 49.304688 45.851562 49.140625 45.914062 C 48.980469 45.976562 48.804688 46.007812 48.632812 46 C 48.460938 46.003906 48.292969 45.976562 48.132812 45.914062 C 47.976562 45.847656 47.832031 45.753906 47.710938 45.632812 C 47.421875 45.324219 47.226562 44.941406 47.144531 44.523438 C 47.011719 43.902344 46.949219 43.265625 46.960938 42.628906 L 46.960938 41.832031 C 46.949219 41.199219 47.011719 40.570312 47.152344 39.953125 C 47.234375 39.546875 47.421875 39.171875 47.703125 38.867188 C 47.824219 38.75 47.96875 38.660156 48.128906 38.597656 C 48.285156 38.539062 48.453125 38.507812 48.621094 38.515625 C 48.96875 38.503906 49.308594 38.628906 49.566406 38.867188 C 49.851562 39.167969 50.050781 39.546875 50.132812 39.953125 C 50.277344 40.570312 50.339844 41.199219 50.328125 41.832031 Z M 50.339844 42.628906 " fill-opacity="1" fill-rule="nonzero"/><path fill="#000000" d="M 72.324219 34.972656 C 71.601562 34.5625 70.78125 34.359375 69.953125 34.386719 C 69.144531 34.375 68.34375 34.539062 67.601562 34.867188 C 66.925781 35.171875 66.320312 35.609375 65.824219 36.160156 C 65.488281 36.53125 65.207031 36.949219 64.988281 37.398438 L 64.988281 34.808594 L 58.691406 34.808594 L 58.691406 49.773438 L 65.175781 49.773438 L 65.175781 40.800781 C 65.164062 40.464844 65.230469 40.128906 65.371094 39.820312 C 65.480469 39.582031 65.660156 39.386719 65.886719 39.253906 C 66.097656 39.136719 66.335938 39.074219 66.578125 39.078125 C 66.746094 39.070312 66.914062 39.09375 67.070312 39.15625 C 67.230469 39.214844 67.371094 39.308594 67.488281 39.429688 C 67.742188 39.753906 67.859375 40.160156 67.820312 40.566406 L 67.820312 49.78125 L 74.304688 49.78125 L 74.304688 39.726562 C 74.335938 38.714844 74.164062 37.707031 73.800781 36.761719 C 73.511719 36.023438 72.992188 35.402344 72.324219 34.980469 " fill-opacity="1" fill-rule="nonzero"/><path fill="#000000" d="M 101.773438 43.875 C 101.796875 44.5 101.640625 45.117188 101.320312 45.65625 C 101.1875 45.847656 101.007812 46.003906 100.800781 46.109375 C 100.59375 46.214844 100.359375 46.265625 100.125 46.257812 C 99.761719 46.273438 99.40625 46.148438 99.128906 45.90625 C 98.832031 45.582031 98.636719 45.175781 98.5625 44.742188 C 98.421875 44.015625 98.359375 43.273438 98.378906 42.535156 L 98.378906 41.84375 C 98.378906 40.5625 98.523438 39.652344 98.816406 39.113281 C 98.941406 38.859375 99.136719 38.644531 99.378906 38.5 C 99.621094 38.355469 99.902344 38.285156 100.183594 38.300781 C 100.410156 38.285156 100.636719 38.328125 100.84375 38.429688 C 101.046875 38.527344 101.222656 38.679688 101.351562 38.867188 C 101.640625 39.375 101.777344 39.957031 101.746094 40.539062 L 101.746094 40.621094 L 108.398438 40.621094 C 108.371094 39.414062 107.984375 38.242188 107.292969 37.257812 C 106.5625 36.28125 105.570312 35.539062 104.433594 35.121094 C 103.03125 34.597656 101.542969 34.347656 100.050781 34.382812 C 98.550781 34.355469 97.0625 34.636719 95.679688 35.214844 C 94.4375 35.738281 93.382812 36.628906 92.660156 37.769531 C 91.921875 38.90625 91.550781 40.332031 91.550781 42.046875 L 91.550781 42.464844 C 91.550781 44.171875 91.910156 45.601562 92.625 46.761719 C 93.332031 47.90625 94.371094 48.804688 95.605469 49.335938 C 97.007812 49.925781 98.515625 50.214844 100.035156 50.1875 C 101.511719 50.214844 102.976562 49.964844 104.359375 49.453125 C 105.53125 49.019531 106.558594 48.265625 107.320312 47.269531 C 108.054688 46.261719 108.460938 45.050781 108.480469 43.800781 L 101.773438 43.800781 Z M 101.773438 43.875 " fill-opacity="1" fill-rule="nonzero"/><path fill="#000000" d="M 123.390625 34.972656 C 122.667969 34.558594 121.847656 34.351562 121.015625 34.375 C 120.207031 34.363281 119.40625 34.527344 118.667969 34.855469 C 117.992188 35.15625 117.386719 35.597656 116.890625 36.144531 C 116.644531 36.417969 116.425781 36.714844 116.242188 37.03125 L 116.242188 30.183594 L 109.753906 30.183594 L 109.753906 49.761719 L 116.242188 49.761719 L 116.242188 40.789062 C 116.230469 40.453125 116.296875 40.117188 116.4375 39.808594 C 116.546875 39.570312 116.722656 39.375 116.949219 39.242188 C 117.160156 39.125 117.402344 39.0625 117.644531 39.066406 C 117.8125 39.054688 117.980469 39.082031 118.136719 39.144531 C 118.296875 39.203125 118.4375 39.296875 118.554688 39.417969 C 118.804688 39.742188 118.921875 40.148438 118.882812 40.554688 L 118.882812 49.769531 L 125.371094 49.769531 L 125.371094 39.710938 C 125.402344 38.699219 125.230469 37.691406 124.867188 36.746094 C 124.574219 36.011719 124.058594 35.386719 123.390625 34.96875 " fill-opacity="1" fill-rule="nonzero"/><path fill="#000000" d="M 136.859375 36.929688 C 136.679688 36.613281 136.464844 36.316406 136.214844 36.050781 C 135.738281 35.535156 135.160156 35.121094 134.519531 34.832031 C 133.867188 34.535156 133.160156 34.382812 132.445312 34.386719 C 131.414062 34.363281 130.394531 34.644531 129.519531 35.199219 C 128.632812 35.808594 127.949219 36.675781 127.570312 37.6875 C 127.070312 39.015625 126.835938 40.425781 126.875 41.84375 L 126.875 42.761719 C 126.835938 44.179688 127.0625 45.589844 127.542969 46.921875 C 127.90625 47.921875 128.566406 48.785156 129.4375 49.390625 C 130.3125 49.945312 131.332031 50.222656 132.363281 50.195312 C 133.089844 50.199219 133.808594 50.046875 134.46875 49.75 C 135.121094 49.460938 135.714844 49.046875 136.210938 48.53125 C 136.457031 48.277344 136.675781 48 136.871094 47.703125 L 136.871094 49.773438 L 143.378906 49.773438 L 143.378906 34.804688 L 136.871094 34.804688 Z M 137.023438 42.628906 C 137.039062 43.265625 136.972656 43.898438 136.828125 44.519531 C 136.742188 44.933594 136.546875 45.320312 136.261719 45.632812 C 136.136719 45.753906 135.988281 45.851562 135.824219 45.914062 C 135.664062 45.976562 135.488281 46.007812 135.316406 46 C 135.144531 46.003906 134.976562 45.976562 134.816406 45.914062 C 134.660156 45.847656 134.515625 45.753906 134.394531 45.632812 C 134.105469 45.324219 133.910156 44.941406 133.828125 44.523438 C 133.695312 43.902344 133.632812 43.265625 133.648438 42.628906 L 133.648438 41.832031 C 133.632812 41.199219 133.695312 40.570312 133.835938 39.953125 C 133.917969 39.546875 134.105469 39.171875 134.386719 38.867188 C 134.507812 38.75 134.652344 38.660156 134.8125 38.597656 C 134.96875 38.539062 135.136719 38.507812 135.304688 38.515625 C 135.652344 38.503906 135.992188 38.628906 136.25 38.867188 C 136.535156 39.167969 136.734375 39.546875 136.816406 39.953125 C 136.960938 40.570312 137.027344 41.199219 137.015625 41.832031 Z M 137.023438 42.628906 " fill-opacity="1" fill-rule="nonzero"/><g clip-path="url(#6f0cfeafdb)"><path fill="#000000" d="M 156.148438 38.8125 L 156.148438 34.804688 L 153.371094 34.804688 L 153.371094 30.195312 L 146.886719 30.195312 L 146.886719 34.804688 L 144.605469 34.804688 L 144.605469 38.8125 L 146.871094 38.8125 L 146.871094 45.34375 C 146.824219 46.304688 147.078125 47.253906 147.589844 48.066406 C 148.066406 48.753906 148.746094 49.277344 149.53125 49.5625 C 150.4375 49.878906 151.390625 50.03125 152.34375 50.011719 C 153.0625 50.023438 153.777344 49.953125 154.480469 49.804688 C 155.058594 49.679688 155.617188 49.488281 156.148438 49.234375 L 156.148438 45.703125 C 155.699219 45.851562 155.230469 45.929688 154.757812 45.933594 C 154.394531 45.957031 154.03125 45.859375 153.730469 45.648438 C 153.488281 45.457031 153.371094 45.113281 153.371094 44.625 L 153.371094 38.808594 Z M 156.148438 38.8125 " fill-opacity="1" fill-rule="nonzero"/></g><g clip-path="url(#0656396801)"><path fill="#000000" d="M 34.425781 28.003906 L 34.21875 28.003906 C 28.023438 28.003906 25.011719 37.300781 25.011719 37.300781 L 25.011719 30.167969 L 8.730469 30.167969 L 8.730469 49.78125 L 15.238281 49.78125 L 15.238281 36.703125 L 18.707031 36.703125 L 18.707031 49.78125 L 25.691406 49.78125 C 25.691406 49.78125 29.28125 34.257812 32.640625 35.417969 C 34.902344 36.273438 28.519531 49.765625 28.519531 49.765625 L 37.742188 49.765625 C 37.742188 49.765625 39.019531 40.976562 39.039062 37.9375 C 39.324219 32.769531 38.511719 27.996094 34.421875 27.996094 " fill-opacity="1" fill-rule="nonzero"/></g><g clip-path="url(#43905287ed)"><path fill="#000000" d="M 80.132812 50.648438 C 80.140625 50.390625 80.066406 50.136719 79.917969 49.925781 C 79.757812 49.722656 79.535156 49.570312 79.289062 49.496094 C 78.964844 49.394531 78.621094 49.347656 78.28125 49.355469 L 74.8125 34.804688 L 81.566406 34.804688 L 83.589844 47.285156 L 82.972656 47.285156 L 85.089844 34.804688 L 91.707031 34.804688 L 88.425781 49.355469 C 88.0625 49.34375 87.699219 49.390625 87.355469 49.496094 C 87.117188 49.566406 86.914062 49.714844 86.769531 49.914062 C 86.640625 50.136719 86.578125 50.390625 86.589844 50.648438 L 86.589844 54.089844 L 80.132812 54.089844 Z M 80.132812 50.648438 " fill-opacity="1" fill-rule="nonzero"/></g></svg>