<svg xmlns="http://www.w3.org/2000/svg" xmlns:xlink="http://www.w3.org/1999/xlink" width="220" zoomAndPan="magnify" viewBox="0 0 165 82.499998" height="110" preserveAspectRatio="xMidYMid meet" version="1.0"><defs><clipPath id="d475d4b28f"><path d="M 0.496094 0 L 164.503906 0 L 164.503906 82.003906 L 0.496094 82.003906 Z M 0.496094 0 " clip-rule="nonzero"/></clipPath><clipPath id="f902ded7c9"><path d="M 8.699219 19.320312 L 156.300781 19.320312 L 156.300781 62.558594 L 8.699219 62.558594 Z M 8.699219 19.320312 " clip-rule="nonzero"/></clipPath></defs><g clip-path="url(#d475d4b28f)"><path fill="#ffffff" d="M 0.496094 0 L 164.503906 0 L 164.503906 89.457031 L 0.496094 89.457031 Z M 0.496094 0 " fill-opacity="1" fill-rule="nonzero"/><path fill="#ffffff" d="M 0.496094 0 L 164.503906 0 L 164.503906 82.003906 L 0.496094 82.003906 Z M 0.496094 0 " fill-opacity="1" fill-rule="nonzero"/><path fill="#ffffff" d="M 0.496094 0 L 164.503906 0 L 164.503906 82.003906 L 0.496094 82.003906 Z M 0.496094 0 " fill-opacity="1" fill-rule="nonzero"/></g><g clip-path="url(#f902ded7c9)"><path fill="#000000" d="M 142.136719 39.699219 C 145.316406 39.699219 148.222656 41.769531 149.238281 44.757812 L 135.078125 44.757812 C 136.046875 41.816406 138.90625 39.699219 142.136719 39.699219 Z M 156.292969 47.335938 C 156.292969 43.65625 154.863281 40.160156 152.234375 37.492188 C 149.605469 34.824219 146.101562 33.351562 142.414062 33.351562 L 142.226562 33.351562 C 138.398438 33.398438 134.757812 34.914062 132.035156 37.628906 C 129.3125 40.34375 127.792969 43.929688 127.746094 47.75 C 127.699219 51.660156 129.222656 55.339844 131.988281 58.144531 C 134.800781 60.949219 138.492188 62.515625 142.414062 62.515625 C 147.578125 62.515625 152.421875 59.753906 155.050781 55.339844 L 155.371094 54.785156 L 149.5625 51.933594 L 149.285156 52.394531 C 147.855469 54.785156 145.316406 56.167969 142.503906 56.167969 C 138.953125 56.167969 135.863281 53.820312 134.894531 50.417969 L 156.292969 50.417969 Z M 119.949219 28.429688 C 117.414062 28.429688 115.386719 26.40625 115.386719 23.875 C 115.386719 21.347656 117.414062 19.320312 119.949219 19.320312 C 122.488281 19.320312 124.515625 21.347656 124.515625 23.875 C 124.5625 26.359375 122.488281 28.429688 119.949219 28.429688 Z M 116.445312 61.960938 L 123.457031 61.960938 L 123.457031 33.949219 L 116.445312 33.949219 Z M 103.023438 19.921875 L 110.035156 19.921875 L 110.035156 62.007812 L 103.023438 62.007812 Z M 89.601562 61.960938 L 96.613281 61.960938 L 96.613281 19.921875 L 89.601562 19.921875 Z M 71.109375 55.660156 C 66.863281 55.660156 63.359375 52.210938 63.359375 47.980469 C 63.359375 43.746094 66.820312 40.296875 71.109375 40.296875 C 75.398438 40.296875 78.855469 43.746094 78.855469 47.980469 C 78.855469 52.210938 75.398438 55.660156 71.109375 55.660156 Z M 71.109375 33.351562 C 62.992188 33.351562 56.441406 39.882812 56.441406 47.933594 C 56.441406 55.980469 63.035156 62.558594 71.109375 62.558594 C 79.179688 62.558594 85.773438 56.027344 85.773438 47.980469 C 85.773438 39.929688 79.226562 33.351562 71.109375 33.351562 Z M 41.175781 33.398438 C 40.804688 33.351562 40.4375 33.351562 40.066406 33.351562 C 36.515625 33.351562 33.148438 34.777344 30.75 37.351562 C 28.351562 34.824219 24.984375 33.351562 21.480469 33.351562 C 14.425781 33.351562 8.707031 39.054688 8.707031 46 L 8.707031 61.960938 L 15.578125 61.960938 L 15.578125 46.230469 C 15.578125 43.332031 17.976562 40.664062 20.789062 40.390625 C 20.972656 40.390625 21.203125 40.34375 21.390625 40.34375 C 24.570312 40.34375 27.152344 42.917969 27.152344 46.09375 L 27.152344 62.007812 L 34.164062 62.007812 L 34.164062 46.183594 C 34.164062 43.285156 36.5625 40.617188 39.375 40.34375 C 39.5625 40.34375 39.792969 40.296875 39.976562 40.296875 C 43.15625 40.296875 45.742188 42.871094 45.785156 46 L 45.785156 61.960938 L 52.796875 61.960938 L 52.796875 46.230469 C 52.796875 43.011719 51.597656 39.976562 49.476562 37.582031 C 47.308594 35.144531 44.355469 33.671875 41.175781 33.398438 Z M 41.175781 33.398438 " fill-opacity="1" fill-rule="evenodd"/></g></svg>