<svg xmlns="http://www.w3.org/2000/svg" xmlns:xlink="http://www.w3.org/1999/xlink" width="220" zoomAndPan="magnify" viewBox="0 0 165 82.499998" height="110" preserveAspectRatio="xMidYMid meet" version="1.0"><defs><clipPath id="9694e85ed2"><path d="M 0.496094 0 L 164.503906 0 L 164.503906 82.003906 L 0.496094 82.003906 Z M 0.496094 0 " clip-rule="nonzero"/></clipPath><clipPath id="15baabd281"><path d="M 9 20.203125 L 51 20.203125 L 51 61.949219 L 9 61.949219 Z M 9 20.203125 " clip-rule="nonzero"/></clipPath><clipPath id="413e355cd4"><path d="M 23 20.203125 L 28 20.203125 L 28 50 L 23 50 Z M 23 20.203125 " clip-rule="nonzero"/></clipPath><clipPath id="28a61b926f"><path d="M 9.734375 40.621094 C 9.734375 51.898438 18.839844 61.039062 30.078125 61.039062 C 41.3125 61.039062 50.421875 51.898438 50.421875 40.621094 C 50.421875 29.34375 41.3125 20.203125 30.078125 20.203125 C 18.839844 20.203125 9.734375 29.34375 9.734375 40.621094 Z M 9.734375 40.621094 " clip-rule="nonzero"/></clipPath><clipPath id="18183b4b12"><path d="M 31 20.203125 L 35 20.203125 L 35 47 L 31 47 Z M 31 20.203125 " clip-rule="nonzero"/></clipPath><clipPath id="ee97a03b66"><path d="M 9.734375 40.621094 C 9.734375 51.898438 18.839844 61.039062 30.078125 61.039062 C 41.3125 61.039062 50.421875 51.898438 50.421875 40.621094 C 50.421875 29.34375 41.3125 20.203125 30.078125 20.203125 C 18.839844 20.203125 9.734375 29.34375 9.734375 40.621094 Z M 9.734375 40.621094 " clip-rule="nonzero"/></clipPath><clipPath id="ed43a47f5f"><path d="M 23 40 L 50.425781 40 L 50.425781 50 L 23 50 Z M 23 40 " clip-rule="nonzero"/></clipPath><clipPath id="9bb234cda8"><path d="M 9.734375 40.621094 C 9.734375 51.898438 18.839844 61.039062 30.078125 61.039062 C 41.3125 61.039062 50.421875 51.898438 50.421875 40.621094 C 50.421875 29.34375 41.3125 20.203125 30.078125 20.203125 C 18.839844 20.203125 9.734375 29.34375 9.734375 40.621094 Z M 9.734375 40.621094 " clip-rule="nonzero"/></clipPath></defs><g clip-path="url(#9694e85ed2)"><path fill="#ffffff" d="M 0.496094 0 L 164.503906 0 L 164.503906 89.457031 L 0.496094 89.457031 Z M 0.496094 0 " fill-opacity="1" fill-rule="nonzero"/><path fill="#ffffff" d="M 0.496094 0 L 164.503906 0 L 164.503906 82.003906 L 0.496094 82.003906 Z M 0.496094 0 " fill-opacity="1" fill-rule="nonzero"/><path fill="#ffffff" d="M 0.496094 0 L 164.503906 0 L 164.503906 82.003906 L 0.496094 82.003906 Z M 0.496094 0 " fill-opacity="1" fill-rule="nonzero"/></g><g clip-path="url(#15baabd281)"><path fill="#a477fc" d="M 50.421875 40.621094 C 50.421875 51.898438 41.3125 61.039062 30.078125 61.039062 C 18.839844 61.039062 9.734375 51.898438 9.734375 40.621094 C 9.734375 29.34375 18.839844 20.203125 30.078125 20.203125 C 41.3125 20.203125 50.421875 29.34375 50.421875 40.621094 " fill-opacity="1" fill-rule="nonzero"/></g><g clip-path="url(#413e355cd4)"><g clip-path="url(#28a61b926f)"><path fill="#ffffff" d="M 27.269531 48.140625 L 23.488281 49.570312 L 23.488281 19.144531 L 27.269531 19.144531 Z M 27.269531 48.140625 " fill-opacity="1" fill-rule="nonzero"/></g></g><g clip-path="url(#18183b4b12)"><g clip-path="url(#ee97a03b66)"><path fill="#ffffff" d="M 31.050781 19.144531 L 34.828125 19.144531 L 34.828125 46.691406 L 31.050781 46.691406 Z M 31.050781 19.144531 " fill-opacity="1" fill-rule="evenodd"/></g></g><g clip-path="url(#ed43a47f5f)"><g clip-path="url(#9bb234cda8)"><path fill="#000000" d="M 34.828125 40.441406 L 23.488281 49.570312 L 50.964844 49.570312 L 50.964844 40.441406 Z M 34.828125 40.441406 " fill-opacity="1" fill-rule="nonzero"/></g></g><path fill="#000000" d="M 69.683594 26.679688 L 71.230469 26.679688 L 71.230469 34.007812 L 69.914062 34.007812 L 66.601562 29.429688 L 66.601562 34.007812 L 65.054688 34.007812 L 65.054688 26.679688 L 66.480469 26.679688 L 69.683594 31.152344 Z M 75.265625 29.5 C 74.929688 29.5 74.644531 29.59375 74.410156 29.78125 C 74.175781 29.96875 74.015625 30.230469 73.925781 30.570312 L 76.65625 30.570312 C 76.550781 30.226562 76.378906 29.960938 76.136719 29.777344 C 75.898438 29.59375 75.609375 29.5 75.265625 29.5 M 78.179688 31.164062 C 78.179688 31.316406 78.167969 31.464844 78.148438 31.613281 L 73.886719 31.613281 C 73.949219 31.996094 74.101562 32.292969 74.347656 32.5 C 74.589844 32.703125 74.894531 32.808594 75.265625 32.808594 C 75.527344 32.808594 75.761719 32.75 75.96875 32.632812 C 76.179688 32.519531 76.339844 32.359375 76.457031 32.152344 L 78.054688 32.152344 C 77.851562 32.769531 77.5 33.261719 76.996094 33.625 C 76.496094 33.984375 75.917969 34.167969 75.265625 34.167969 C 74.71875 34.167969 74.222656 34.039062 73.777344 33.777344 C 73.328125 33.515625 72.980469 33.15625 72.722656 32.699219 C 72.46875 32.246094 72.339844 31.738281 72.339844 31.183594 C 72.339844 30.625 72.46875 30.117188 72.722656 29.660156 C 72.972656 29.203125 73.324219 28.84375 73.769531 28.585938 C 74.21875 28.328125 74.714844 28.199219 75.265625 28.199219 C 75.828125 28.199219 76.335938 28.332031 76.78125 28.597656 C 77.230469 28.867188 77.574219 29.226562 77.816406 29.675781 C 78.058594 30.125 78.179688 30.621094 78.179688 31.164062 M 82.082031 32.648438 L 82.773438 32.648438 L 82.773438 34.007812 L 81.695312 34.007812 C 81.078125 34.007812 80.589844 33.828125 80.230469 33.46875 C 79.871094 33.109375 79.695312 32.617188 79.695312 31.992188 L 79.695312 29.582031 L 78.675781 29.582031 L 78.675781 29.253906 L 80.902344 26.878906 L 81.191406 26.878906 L 81.191406 28.355469 L 82.746094 28.355469 L 82.746094 29.582031 L 81.214844 29.582031 L 81.214844 31.785156 C 81.214844 32.0625 81.292969 32.273438 81.441406 32.425781 C 81.589844 32.574219 81.804688 32.648438 82.082031 32.648438 M 86.511719 32.5 C 86.925781 32.5 87.269531 32.363281 87.539062 32.085938 C 87.8125 31.808594 87.945312 31.457031 87.945312 31.035156 C 87.945312 30.617188 87.8125 30.269531 87.542969 29.996094 C 87.273438 29.71875 86.929688 29.582031 86.511719 29.582031 C 86.097656 29.582031 85.753906 29.71875 85.480469 29.996094 C 85.210938 30.269531 85.074219 30.617188 85.074219 31.035156 C 85.074219 31.457031 85.210938 31.808594 85.480469 32.085938 C 85.75 32.363281 86.09375 32.5 86.511719 32.5 M 88.445312 28.355469 L 89.433594 28.355469 L 89.433594 33.355469 C 89.433594 34.238281 89.179688 34.933594 88.664062 35.441406 C 88.152344 35.953125 87.449219 36.207031 86.558594 36.207031 C 85.792969 36.207031 85.15625 36.023438 84.648438 35.65625 C 84.136719 35.289062 83.820312 34.78125 83.691406 34.132812 L 85.203125 34.132812 C 85.285156 34.375 85.453125 34.5625 85.703125 34.695312 C 85.957031 34.832031 86.234375 34.898438 86.53125 34.898438 C 86.929688 34.898438 87.261719 34.777344 87.535156 34.539062 C 87.804688 34.296875 87.941406 33.976562 87.941406 33.574219 L 87.941406 33.359375 C 87.464844 33.699219 86.925781 33.867188 86.332031 33.867188 C 85.816406 33.867188 85.34375 33.742188 84.914062 33.492188 C 84.484375 33.246094 84.148438 32.902344 83.902344 32.46875 C 83.65625 32.035156 83.53125 31.554688 83.53125 31.035156 C 83.53125 30.515625 83.65625 30.039062 83.902344 29.605469 C 84.148438 29.171875 84.484375 28.828125 84.914062 28.574219 C 85.34375 28.324219 85.816406 28.199219 86.332031 28.199219 C 87.0625 28.199219 87.6875 28.4375 88.203125 28.917969 Z M 93.453125 29.5 C 93.117188 29.5 92.832031 29.59375 92.597656 29.78125 C 92.363281 29.96875 92.203125 30.230469 92.113281 30.570312 L 94.84375 30.570312 C 94.738281 30.226562 94.566406 29.960938 94.324219 29.777344 C 94.085938 29.59375 93.796875 29.5 93.453125 29.5 M 96.367188 31.164062 C 96.367188 31.316406 96.355469 31.464844 96.335938 31.613281 L 92.074219 31.613281 C 92.136719 31.996094 92.289062 32.292969 92.535156 32.5 C 92.777344 32.703125 93.082031 32.808594 93.453125 32.808594 C 93.714844 32.808594 93.949219 32.75 94.15625 32.632812 C 94.367188 32.519531 94.527344 32.359375 94.644531 32.152344 L 96.242188 32.152344 C 96.039062 32.769531 95.6875 33.261719 95.183594 33.625 C 94.679688 33.984375 94.105469 34.167969 93.453125 34.167969 C 92.90625 34.167969 92.410156 34.039062 91.960938 33.777344 C 91.515625 33.515625 91.167969 33.15625 90.910156 32.699219 C 90.65625 32.246094 90.53125 31.738281 90.53125 31.183594 C 90.53125 30.625 90.65625 30.117188 90.910156 29.660156 C 91.160156 29.203125 91.511719 28.84375 91.957031 28.585938 C 92.402344 28.328125 92.902344 28.199219 93.453125 28.199219 C 94.015625 28.199219 94.523438 28.332031 94.96875 28.597656 C 95.417969 28.867188 95.761719 29.226562 96.003906 29.675781 C 96.246094 30.125 96.367188 30.621094 96.367188 31.164062 M 100.652344 28.222656 C 101.292969 28.222656 101.800781 28.4375 102.175781 28.863281 C 102.554688 29.292969 102.742188 29.867188 102.742188 30.585938 L 102.742188 34.007812 L 101.21875 34.007812 L 101.21875 30.832031 C 101.21875 29.984375 100.890625 29.5625 100.234375 29.5625 C 99.847656 29.5625 99.539062 29.695312 99.3125 29.957031 C 99.085938 30.222656 98.972656 30.582031 98.972656 31.039062 L 98.972656 34.007812 L 97.449219 34.007812 L 97.449219 28.355469 L 98.496094 28.355469 L 98.789062 29.058594 C 99.007812 28.796875 99.277344 28.59375 99.601562 28.445312 C 99.925781 28.296875 100.277344 28.222656 100.652344 28.222656 M 105.25 31.601562 C 105.945312 31.601562 106.507812 32.164062 106.507812 32.863281 C 106.507812 33.558594 105.945312 34.125 105.25 34.125 C 104.554688 34.125 103.992188 33.558594 103.992188 32.863281 C 103.992188 32.164062 104.554688 31.601562 105.25 31.601562 M 66.058594 53.402344 L 72.589844 53.402344 L 72.589844 54.351562 L 65.054688 54.351562 L 65.054688 40.46875 L 66.058594 40.46875 Z M 80.21875 41.871094 L 77 49.625 L 83.53125 49.625 Z M 85.535156 54.351562 L 83.914062 50.554688 L 76.613281 50.554688 L 75.019531 54.351562 L 73.960938 54.351562 L 79.757812 40.46875 L 80.652344 40.46875 L 86.617188 54.351562 Z M 99.6875 40.46875 L 94.429688 48.851562 L 94.429688 54.351562 L 93.410156 54.351562 L 93.410156 48.859375 L 88.210938 40.46875 L 89.300781 40.46875 L 93.929688 47.902344 L 98.597656 40.46875 Z M 105.820312 52.777344 C 106.761719 53.316406 107.816406 53.585938 108.988281 53.585938 C 110.160156 53.585938 111.214844 53.316406 112.15625 52.78125 C 113.101562 52.246094 113.832031 51.507812 114.355469 50.570312 C 114.882812 49.628906 115.144531 48.578125 115.144531 47.417969 C 115.144531 46.546875 114.988281 45.730469 114.679688 44.964844 C 114.371094 44.199219 113.945312 43.542969 113.40625 43 C 112.867188 42.453125 112.214844 42.023438 111.453125 41.707031 C 110.691406 41.390625 109.871094 41.230469 108.988281 41.230469 C 108.113281 41.230469 107.292969 41.390625 106.527344 41.707031 C 105.765625 42.023438 105.113281 42.457031 104.570312 43.003906 C 104.03125 43.550781 103.605469 44.210938 103.296875 44.972656 C 102.988281 45.738281 102.835938 46.554688 102.835938 47.417969 C 102.835938 48.574219 103.097656 49.621094 103.621094 50.558594 C 104.144531 51.5 104.878906 52.238281 105.820312 52.777344 M 111.859375 54.015625 C 110.96875 54.378906 110.011719 54.5625 108.988281 54.5625 C 107.964844 54.5625 107.011719 54.378906 106.121094 54.015625 C 105.226562 53.652344 104.46875 53.152344 103.84375 52.519531 C 103.214844 51.886719 102.722656 51.132812 102.363281 50.25 C 102 49.367188 101.820312 48.425781 101.820312 47.417969 C 101.820312 46.070312 102.128906 44.847656 102.738281 43.757812 C 103.347656 42.667969 104.203125 41.8125 105.292969 41.1875 C 106.386719 40.566406 107.621094 40.253906 108.988281 40.253906 C 110.359375 40.253906 111.589844 40.566406 112.683594 41.1875 C 113.777344 41.8125 114.628906 42.667969 115.238281 43.757812 C 115.851562 44.847656 116.15625 46.070312 116.15625 47.417969 C 116.15625 48.425781 115.976562 49.371094 115.617188 50.253906 C 115.253906 51.140625 114.761719 51.894531 114.136719 52.523438 C 113.507812 53.15625 112.75 53.652344 111.859375 54.015625 M 124.808594 54.542969 C 123.285156 54.542969 122.027344 54.042969 121.039062 53.042969 C 120.046875 52.042969 119.554688 50.769531 119.554688 49.21875 L 119.554688 40.46875 L 120.554688 40.46875 L 120.554688 49.152344 C 120.554688 50.449219 120.953125 51.507812 121.746094 52.332031 C 122.542969 53.15625 123.5625 53.566406 124.808594 53.566406 C 126.050781 53.566406 127.070312 53.15625 127.863281 52.332031 C 128.65625 51.507812 129.054688 50.449219 129.054688 49.152344 L 129.054688 40.46875 L 130.058594 40.46875 L 130.058594 49.21875 C 130.058594 50.769531 129.5625 52.042969 128.570312 53.042969 C 127.582031 54.042969 126.328125 54.542969 124.808594 54.542969 M 142.65625 40.46875 L 142.65625 41.414062 L 138.25 41.414062 L 138.25 54.351562 L 137.253906 54.351562 L 137.253906 41.414062 L 132.835938 41.414062 L 132.835938 40.46875 Z M 149.5 54.515625 C 148.019531 54.515625 146.828125 54.121094 145.917969 53.339844 C 145.011719 52.554688 144.558594 51.511719 144.558594 50.207031 L 145.574219 50.207031 C 145.574219 51.21875 145.933594 52.027344 146.652344 52.632812 C 147.375 53.234375 148.320312 53.535156 149.488281 53.535156 C 150.554688 53.535156 151.429688 53.261719 152.113281 52.714844 C 152.792969 52.164062 153.136719 51.445312 153.136719 50.554688 C 153.136719 50.335938 153.109375 50.128906 153.0625 49.941406 C 153.015625 49.75 152.957031 49.582031 152.890625 49.433594 C 152.820312 49.285156 152.71875 49.144531 152.582031 49.011719 C 152.441406 48.878906 152.316406 48.765625 152.199219 48.675781 C 152.082031 48.585938 151.921875 48.496094 151.710938 48.402344 C 151.503906 48.308594 151.328125 48.234375 151.191406 48.179688 C 151.054688 48.125 150.851562 48.058594 150.589844 47.988281 C 150.324219 47.917969 150.117188 47.863281 149.972656 47.828125 C 149.824219 47.792969 149.605469 47.742188 149.316406 47.679688 C 148.742188 47.550781 148.304688 47.445312 148.003906 47.363281 C 147.703125 47.285156 147.316406 47.144531 146.847656 46.949219 C 146.375 46.75 146.019531 46.539062 145.78125 46.308594 C 145.539062 46.082031 145.324219 45.769531 145.132812 45.375 C 144.945312 44.980469 144.847656 44.53125 144.847656 44.03125 C 144.847656 42.886719 145.261719 41.980469 146.085938 41.308594 C 146.90625 40.636719 148.007812 40.300781 149.382812 40.300781 C 150.726562 40.300781 151.796875 40.660156 152.59375 41.371094 C 153.394531 42.085938 153.789062 43.042969 153.789062 44.242188 L 152.796875 44.242188 C 152.796875 43.332031 152.480469 42.609375 151.851562 42.070312 C 151.222656 41.53125 150.390625 41.261719 149.363281 41.261719 C 148.308594 41.261719 147.457031 41.507812 146.8125 42.007812 C 146.167969 42.503906 145.84375 43.164062 145.84375 43.992188 C 145.84375 44.199219 145.867188 44.394531 145.914062 44.578125 C 145.964844 44.761719 146.019531 44.921875 146.089844 45.0625 C 146.15625 45.199219 146.257812 45.332031 146.398438 45.460938 C 146.535156 45.589844 146.660156 45.703125 146.773438 45.792969 C 146.886719 45.882812 147.046875 45.972656 147.253906 46.058594 C 147.464844 46.144531 147.640625 46.214844 147.78125 46.269531 C 147.921875 46.324219 148.121094 46.386719 148.378906 46.453125 C 148.636719 46.523438 148.839844 46.574219 148.988281 46.609375 C 149.136719 46.644531 149.351562 46.695312 149.632812 46.757812 C 150.050781 46.855469 150.367188 46.933594 150.582031 46.988281 C 150.800781 47.042969 151.09375 47.128906 151.472656 47.25 C 151.847656 47.367188 152.136719 47.484375 152.34375 47.597656 C 152.550781 47.710938 152.785156 47.863281 153.054688 48.0625 C 153.320312 48.257812 153.519531 48.46875 153.65625 48.691406 C 153.789062 48.914062 153.910156 49.183594 154.007812 49.5 C 154.109375 49.816406 154.15625 50.164062 154.15625 50.546875 C 154.15625 51.746094 153.722656 52.707031 152.851562 53.429688 C 151.980469 54.152344 150.863281 54.515625 149.5 54.515625 " fill-opacity="1" fill-rule="nonzero"/></svg>