<svg xmlns="http://www.w3.org/2000/svg" xmlns:xlink="http://www.w3.org/1999/xlink" width="220" zoomAndPan="magnify" viewBox="0 0 165 82.499998" height="110" preserveAspectRatio="xMidYMid meet" version="1.0"><defs><clipPath id="1d69fea81e"><path d="M 0.496094 0 L 164.503906 0 L 164.503906 82.003906 L 0.496094 82.003906 Z M 0.496094 0 " clip-rule="nonzero"/></clipPath><clipPath id="ec4cc435c8"><path d="M 72 3.171875 L 122.917969 3.171875 L 122.917969 79 L 72 79 Z M 72 3.171875 " clip-rule="nonzero"/></clipPath><clipPath id="b19c69beca"><path d="M 41.726562 33 L 96 33 L 96 49 L 41.726562 49 Z M 41.726562 33 " clip-rule="nonzero"/></clipPath><clipPath id="6141d08581"><path d="M 40.9375 0 L 124.429688 0 L 124.429688 82.003906 L 40.9375 82.003906 Z M 40.9375 0 " clip-rule="nonzero"/></clipPath></defs><g clip-path="url(#1d69fea81e)"><path fill="#ffffff" d="M 0.496094 0 L 164.503906 0 L 164.503906 89.457031 L 0.496094 89.457031 Z M 0.496094 0 " fill-opacity="1" fill-rule="nonzero"/><path fill="#ffffff" d="M 0.496094 0 L 164.503906 0 L 164.503906 82.003906 L 0.496094 82.003906 Z M 0.496094 0 " fill-opacity="1" fill-rule="nonzero"/><path fill="#ffffff" d="M 0.496094 0 L 164.503906 0 L 164.503906 82.003906 L 0.496094 82.003906 Z M 0.496094 0 " fill-opacity="1" fill-rule="nonzero"/></g><g clip-path="url(#ec4cc435c8)"><path fill="#f89c0e" d="M 109.394531 37.640625 C 106.515625 37.640625 104.617188 39.882812 104.617188 43.101562 C 104.617188 46.515625 106.34375 48.347656 108.988281 48.347656 C 109.777344 48.347656 110.480469 48.179688 110.757812 48.050781 L 110.523438 45.851562 C 110.222656 46.003906 109.882812 46.066406 109.480469 46.066406 C 108.179688 46.066406 107.390625 44.914062 107.390625 43.015625 C 107.390625 41.203125 108.179688 39.921875 109.519531 39.921875 C 109.988281 39.921875 110.332031 40.03125 110.566406 40.117188 L 110.929688 37.917969 C 110.652344 37.789062 110.054688 37.640625 109.394531 37.640625 M 116.277344 37.640625 C 113.402344 37.640625 111.503906 39.882812 111.503906 43.101562 C 111.503906 46.515625 113.230469 48.347656 115.875 48.347656 C 116.664062 48.347656 117.367188 48.179688 117.644531 48.050781 L 117.410156 45.851562 C 117.109375 46.003906 116.769531 46.066406 116.363281 46.066406 C 115.0625 46.066406 114.273438 44.914062 114.273438 43.015625 C 114.273438 41.203125 115.0625 39.921875 116.40625 39.921875 C 116.875 39.921875 117.214844 40.03125 117.453125 40.117188 L 117.8125 37.917969 C 117.535156 37.789062 116.941406 37.640625 116.277344 37.640625 M 101.675781 48.390625 C 102.65625 48.390625 103.316406 47.667969 103.316406 46.535156 C 103.316406 45.382812 102.59375 44.679688 101.699219 44.679688 C 100.84375 44.679688 100.054688 45.46875 100.054688 46.535156 C 100.054688 47.667969 100.800781 48.390625 101.65625 48.390625 Z M 78.867188 3.171875 L 91.257812 3.171875 C 91.257812 3.171875 97.679688 3.171875 97.679688 9.601562 L 97.679688 15.5625 L 97.699219 15.542969 L 97.699219 22.007812 C 97.699219 28.4375 104.121094 28.4375 104.121094 28.4375 L 116.496094 28.4375 C 116.496094 28.4375 122.917969 28.4375 122.917969 34.867188 L 122.917969 47.261719 C 122.917969 47.261719 122.917969 53.6875 116.496094 53.6875 L 110.546875 53.6875 L 110.5625 53.703125 L 104.097656 53.703125 C 98.046875 53.703125 97.695312 59.402344 97.675781 60.0625 C 97.675781 60.082031 97.679688 60.097656 97.679688 60.117188 L 97.679688 72.511719 C 97.679688 72.511719 97.679688 78.9375 91.257812 78.9375 L 78.867188 78.9375 C 78.867188 78.9375 72.445312 78.9375 72.445312 72.511719 L 72.445312 60.117188 C 72.445312 60.117188 72.445312 53.6875 78.867188 53.6875 L 84.816406 53.6875 L 84.800781 53.675781 L 91.265625 53.675781 C 97.285156 53.675781 97.660156 48.03125 97.6875 47.324219 C 97.6875 47.300781 97.683594 47.285156 97.683594 47.261719 L 97.683594 41.308594 L 97.671875 41.316406 L 97.671875 34.851562 C 97.671875 28.421875 91.25 28.421875 91.25 28.421875 L 78.867188 28.421875 C 78.867188 28.421875 72.445312 28.421875 72.445312 21.996094 L 72.445312 9.601562 C 72.445312 9.601562 72.445312 3.171875 78.867188 3.171875 " fill-opacity="1" fill-rule="nonzero"/></g><g clip-path="url(#b19c69beca)"><path fill="#162d66" d="M 44.628906 48.347656 C 45.375 48.347656 45.949219 48.265625 46.332031 48.15625 L 46.3125 45.980469 C 46.078125 46.023438 45.863281 46.046875 45.585938 46.046875 C 45.03125 46.046875 44.523438 45.746094 44.523438 44.53125 L 44.523438 39.773438 L 46.015625 39.773438 L 46.015625 37.789062 L 44.523438 37.789062 L 44.523438 35.0625 L 41.726562 35.882812 L 41.726562 44.703125 C 41.726562 46.34375 42.046875 47.132812 42.625 47.6875 C 43.113281 48.15625 43.816406 48.347656 44.628906 48.347656 M 52.875 48.222656 L 55.667969 48.222656 L 55.667969 41.886719 C 55.667969 39.242188 54.921875 37.621094 53.003906 37.621094 C 52.492188 37.621094 52.003906 37.746094 51.597656 37.984375 C 51.257812 38.21875 50.9375 38.515625 50.703125 38.878906 L 50.660156 38.878906 L 50.660156 33.460938 L 47.867188 34.265625 L 47.867188 48.222656 L 50.660156 48.222656 L 50.660156 41.738281 C 50.660156 41.503906 50.722656 41.117188 50.765625 40.945312 C 50.980469 40.246094 51.386719 39.964844 51.855469 39.964844 C 52.683594 39.964844 52.875 40.863281 52.875 41.886719 Z M 62.449219 42.035156 L 59.976562 42.035156 C 59.996094 40.992188 60.359375 39.648438 61.273438 39.648438 C 62.105469 39.648438 62.449219 40.691406 62.449219 42.035156 M 64.898438 43.996094 C 64.964844 43.699219 64.984375 43.292969 64.984375 42.546875 C 64.984375 39.390625 63.683594 37.621094 61.445312 37.621094 C 59.078125 37.621094 57.269531 39.710938 57.269531 43.207031 C 57.269531 46.472656 58.824219 48.347656 61.660156 48.347656 C 62.726562 48.347656 63.8125 48.15625 64.535156 47.878906 L 64.152344 45.875 C 63.664062 46.046875 62.960938 46.214844 62.171875 46.214844 C 60.933594 46.214844 59.996094 45.617188 59.953125 43.996094 Z M 73.058594 37.960938 C 73.058594 39.304688 72.125 39.855469 70.980469 39.800781 C 70.808594 39.792969 70.660156 39.800781 70.53125 39.757812 L 70.53125 36.148438 C 70.703125 36.085938 70.957031 36.042969 71.214844 36.042969 C 72.511719 36.042969 73.058594 36.703125 73.058594 37.960938 M 74.574219 41.035156 C 75.316406 40.222656 75.796875 39.605469 75.796875 38.046875 C 75.796875 36.832031 75.414062 35.636719 74.558594 34.890625 C 73.621094 34.015625 72.324219 33.78125 70.660156 33.78125 C 69.59375 33.78125 68.527344 33.886719 67.738281 34.058594 L 67.738281 39.855469 L 66.09375 39.855469 L 66.09375 42.269531 L 67.738281 42.269531 L 67.738281 48.222656 L 70.53125 48.222656 L 70.53125 42.042969 L 71.085938 42.042969 C 72.234375 42.042969 73.675781 41.972656 74.574219 41.035156 M 82.273438 48.222656 L 85.066406 48.222656 L 85.066406 33.847656 L 82.273438 33.847656 L 82.273438 39.867188 L 79.351562 39.867188 L 79.351562 33.847656 L 76.558594 33.847656 L 76.558594 48.222656 L 79.351562 48.222656 L 79.351562 42.46875 L 82.273438 42.46875 Z M 92.859375 37.960938 C 92.859375 39.304688 91.925781 39.855469 90.777344 39.800781 C 90.609375 39.792969 90.457031 39.800781 90.328125 39.757812 L 90.328125 36.148438 C 90.5 36.085938 90.757812 36.042969 91.011719 36.042969 C 92.3125 36.042969 92.859375 36.703125 92.859375 37.960938 M 95.597656 38.046875 C 95.597656 36.832031 95.210938 35.636719 94.359375 34.890625 C 93.421875 34.015625 92.121094 33.78125 90.457031 33.78125 C 89.390625 33.78125 88.328125 33.886719 87.539062 34.058594 L 87.539062 39.828125 L 85.890625 39.828125 L 85.890625 42.242188 L 87.539062 42.242188 L 87.539062 48.222656 L 90.328125 48.222656 L 90.328125 42.042969 L 90.886719 42.042969 C 92.035156 42.042969 93.476562 41.972656 94.371094 41.035156 C 95.117188 40.222656 95.597656 39.605469 95.597656 38.046875 " fill-opacity="1" fill-rule="nonzero"/></g><g clip-path="url(#6141d08581)"><rect x="-16.5" width="198" fill="#ffffff" y="-8.25" height="98.999997" fill-opacity="0.098"/></g></svg>